<mxfile host="app.diagrams.net" modified="2020-11-21T21:44:29.435Z" agent="5.0 (Macintosh; Intel Mac OS X 10_15_6) AppleWebKit/605.1.15 (KHTML, like Gecko) Version/14.0.1 Safari/605.1.15" etag="PlHahs3ZUVwDUJvGSeGa" version="13.10.0" type="github" pages="2">
  <diagram id="VcEPtm9fC6ZkhgRlHk6Z" name="Page-1">
    <mxGraphModel dx="799" dy="549" grid="1" gridSize="10" guides="1" tooltips="1" connect="1" arrows="1" fold="1" page="1" pageScale="1" pageWidth="850" pageHeight="1100" math="0" shadow="0">
      <root>
        <mxCell id="0" />
        <mxCell id="1" parent="0" />
        <mxCell id="ZE5KDX_BzA8Tbf8UvSml-7" style="edgeStyle=orthogonalEdgeStyle;rounded=0;orthogonalLoop=1;jettySize=auto;html=1;exitX=0.5;exitY=1;exitDx=0;exitDy=0;entryX=0;entryY=1;entryDx=0;entryDy=0;" parent="1" source="ZE5KDX_BzA8Tbf8UvSml-1" target="ZE5KDX_BzA8Tbf8UvSml-4" edge="1">
          <mxGeometry relative="1" as="geometry" />
        </mxCell>
        <mxCell id="ZE5KDX_BzA8Tbf8UvSml-1" value="CameraController" style="rounded=1;whiteSpace=wrap;html=1;" parent="1" vertex="1">
          <mxGeometry x="250" y="120" width="120" height="60" as="geometry" />
        </mxCell>
        <mxCell id="ZE5KDX_BzA8Tbf8UvSml-5" style="edgeStyle=orthogonalEdgeStyle;rounded=0;orthogonalLoop=1;jettySize=auto;html=1;entryX=0.5;entryY=0;entryDx=0;entryDy=0;" parent="1" source="ZE5KDX_BzA8Tbf8UvSml-3" target="ZE5KDX_BzA8Tbf8UvSml-4" edge="1">
          <mxGeometry relative="1" as="geometry" />
        </mxCell>
        <mxCell id="ZE5KDX_BzA8Tbf8UvSml-3" value="Full Auto" style="rounded=1;whiteSpace=wrap;html=1;" parent="1" vertex="1">
          <mxGeometry x="410" y="40" width="120" height="60" as="geometry" />
        </mxCell>
        <mxCell id="ZE5KDX_BzA8Tbf8UvSml-6" style="edgeStyle=orthogonalEdgeStyle;rounded=0;orthogonalLoop=1;jettySize=auto;html=1;" parent="1" source="ZE5KDX_BzA8Tbf8UvSml-4" target="ZE5KDX_BzA8Tbf8UvSml-1" edge="1">
          <mxGeometry relative="1" as="geometry" />
        </mxCell>
        <mxCell id="ZE5KDX_BzA8Tbf8UvSml-9" style="edgeStyle=orthogonalEdgeStyle;rounded=0;orthogonalLoop=1;jettySize=auto;html=1;entryX=0.5;entryY=0;entryDx=0;entryDy=0;" parent="1" source="ZE5KDX_BzA8Tbf8UvSml-4" target="ZE5KDX_BzA8Tbf8UvSml-8" edge="1">
          <mxGeometry relative="1" as="geometry" />
        </mxCell>
        <mxCell id="ZE5KDX_BzA8Tbf8UvSml-4" value="CountRings" style="rhombus;whiteSpace=wrap;html=1;" parent="1" vertex="1">
          <mxGeometry x="430" y="160" width="80" height="80" as="geometry" />
        </mxCell>
        <mxCell id="ZE5KDX_BzA8Tbf8UvSml-12" style="edgeStyle=orthogonalEdgeStyle;rounded=0;orthogonalLoop=1;jettySize=auto;html=1;" parent="1" source="ZE5KDX_BzA8Tbf8UvSml-8" target="ZE5KDX_BzA8Tbf8UvSml-11" edge="1">
          <mxGeometry relative="1" as="geometry" />
        </mxCell>
        <mxCell id="ZE5KDX_BzA8Tbf8UvSml-8" value="Pick Trajectory" style="ellipse;whiteSpace=wrap;html=1;aspect=fixed;" parent="1" vertex="1">
          <mxGeometry x="430" y="290" width="80" height="80" as="geometry" />
        </mxCell>
        <mxCell id="ZE5KDX_BzA8Tbf8UvSml-13" style="edgeStyle=orthogonalEdgeStyle;rounded=0;orthogonalLoop=1;jettySize=auto;html=1;" parent="1" source="ZE5KDX_BzA8Tbf8UvSml-11" edge="1">
          <mxGeometry relative="1" as="geometry">
            <mxPoint x="280" y="400" as="targetPoint" />
          </mxGeometry>
        </mxCell>
        <mxCell id="ZE5KDX_BzA8Tbf8UvSml-11" value="TrajectoryController" style="rounded=1;whiteSpace=wrap;html=1;" parent="1" vertex="1">
          <mxGeometry x="220" y="270" width="120" height="60" as="geometry" />
        </mxCell>
        <mxCell id="9vju7ALtElRdlA1bbl5p-4" style="edgeStyle=orthogonalEdgeStyle;rounded=0;orthogonalLoop=1;jettySize=auto;html=1;exitX=0;exitY=0.5;exitDx=0;exitDy=0;entryX=0.5;entryY=0;entryDx=0;entryDy=0;" edge="1" parent="1" source="ZE5KDX_BzA8Tbf8UvSml-14" target="9vju7ALtElRdlA1bbl5p-3">
          <mxGeometry relative="1" as="geometry" />
        </mxCell>
        <mxCell id="ZE5KDX_BzA8Tbf8UvSml-14" value="Build, Execute Trajectory" style="ellipse;whiteSpace=wrap;html=1;aspect=fixed;" parent="1" vertex="1">
          <mxGeometry x="240" y="400" width="80" height="80" as="geometry" />
        </mxCell>
        <mxCell id="9vju7ALtElRdlA1bbl5p-3" value="Hardware Controllers" style="rounded=1;whiteSpace=wrap;html=1;" vertex="1" parent="1">
          <mxGeometry x="80" y="470" width="120" height="60" as="geometry" />
        </mxCell>
        <mxCell id="9vju7ALtElRdlA1bbl5p-6" value="&lt;h1&gt;Full Auto Global Overview&lt;/h1&gt;&lt;div&gt;Talks to Camera Controller, Trajectory Controller&lt;/div&gt;&lt;div&gt;&lt;br&gt;&lt;/div&gt;" style="text;html=1;strokeColor=none;fillColor=none;spacing=5;spacingTop=-20;whiteSpace=wrap;overflow=hidden;rounded=0;" vertex="1" parent="1">
          <mxGeometry x="80" y="10" width="330" height="120" as="geometry" />
        </mxCell>
      </root>
    </mxGraphModel>
  </diagram>
  <diagram id="-USqHhsjp17Y-Rz2WMJW" name="Page-2">
    <mxGraphModel dx="799" dy="549" grid="1" gridSize="10" guides="1" tooltips="1" connect="1" arrows="1" fold="1" page="1" pageScale="1" pageWidth="850" pageHeight="1100" math="0" shadow="0">
      <root>
        <mxCell id="v0qMlTzIx6Jk7zW65Q-t-0" />
        <mxCell id="v0qMlTzIx6Jk7zW65Q-t-1" parent="v0qMlTzIx6Jk7zW65Q-t-0" />
        <mxCell id="Hg34Zm3RwD7VYLSrHEG9-0" value="&lt;h1&gt;Trajectory Breakdown&lt;/h1&gt;&lt;div&gt;TrajectoryController talks with all Hardware Controllers (Drivetrain, Intake, Shooter, etc.)&lt;/div&gt;" style="text;html=1;strokeColor=none;fillColor=none;spacing=5;spacingTop=-20;whiteSpace=wrap;overflow=hidden;rounded=0;" vertex="1" parent="v0qMlTzIx6Jk7zW65Q-t-1">
          <mxGeometry x="20" y="10" width="310" height="120" as="geometry" />
        </mxCell>
        <mxCell id="gCi0SzVC2TGAyjIE5B04-17" style="edgeStyle=orthogonalEdgeStyle;rounded=0;orthogonalLoop=1;jettySize=auto;html=1;exitX=0.5;exitY=1;exitDx=0;exitDy=0;entryX=0.5;entryY=0;entryDx=0;entryDy=0;" edge="1" parent="v0qMlTzIx6Jk7zW65Q-t-1" source="gCi0SzVC2TGAyjIE5B04-0" target="gCi0SzVC2TGAyjIE5B04-15">
          <mxGeometry relative="1" as="geometry" />
        </mxCell>
        <mxCell id="gCi0SzVC2TGAyjIE5B04-0" value="TrajectoryController" style="rounded=1;whiteSpace=wrap;html=1;" vertex="1" parent="v0qMlTzIx6Jk7zW65Q-t-1">
          <mxGeometry x="390" y="30" width="130" height="60" as="geometry" />
        </mxCell>
        <mxCell id="gCi0SzVC2TGAyjIE5B04-2" value="" style="shape=image;verticalLabelPosition=bottom;labelBackgroundColor=#ffffff;verticalAlign=top;aspect=fixed;imageAspect=0;image=data:image/png,iVBORw0KGgoAAAANSUhEUgAAAggAAAIICAYAAAAL/BZjAAAAAXNSR0IArs4c6QAAAERlWElmTU0AKgAAAAgAAYdpAAQAAAABAAAAGgAAAAAAA6ABAAMAAAABAAEAAKACAAQAAAABAAACCKADAAQAAAABAAACCAAAAADdmLHaAABAAElEQVR4Aey9TaxlyZbftc/H/cybWVmZVfXe8+t2g2V3C7UbY3kARhaShQCJKbIsSwhkJIs5IxghoZYQE0Y0zLDAYmAxYcDYCEsWI8sfYDAM2m65u1/Ve1mVVZU3b97Pc/j/IvbaO/Z3xMnK587MFVX7xN6x13+tFf+IHRFn35OxVn/mr/2TfVXpf08/LAPr02r/B3+z2v3u71SVzvOS2mFzUq2OL6r91YuqWq3zYEFqX63PPqt219+qOR/KcEePZGtT7W6+V74qwK6q7dmn1f2bbwowEt3vq+3J42q3u692929UsGxzv3uonv34z1RPnv2p6uXP/6/quxf/WPRssu3uZfP09JPq7u4q2M0GSnCzOaq2apfrm1eiZ9nXVPeZ6nl9e6kq5z9jez2PJ9vYZ27ur8VOvk1kz48fVa9lMydh61R1+1c+/5eqnXz8+7/4v6vb3V2RzY366dn2pHolbkt8xfYn27Pq8uEm2M7xFxmYPF1vq63a4vLhtsgm+Kfy9dv7G06zEzYfy+aDrF+pL+a0yL34/HNnT6rfOrmo/sH1q+rv6cDn3LST4HPZvNTzfFfUf8SP7Jzr+Hq3q8pGkar6Yr0OOOznpsCP7GHrW/laYhNGvtDHV5mPCH490fFXtrvq3/z+TfWbr9WWBbwK6imTgW143PYlXSFT88cuBqcFD/XHTpfX3xlwBpwBZ+CPFgNaIPRS0bfWHtYvtSjwxZZ3A2fAGXAGnIH3n4HeAkHveG5fqlbL73r2WkiswjfkZdkuTatqr9dBq0MmUhYvB+Pws9RXQYpsyr+jx4C6VfYrZ8AZcAacgXfKAKP7y/Wq2mWMv4zQa80HeX8s6rq9EQ4bpbMJ9kg5/nUt6s+cvwSb+Pd01/3zULtAYCLU4uDhH/2nVXXH36Jn/oqkSfr+0Y+rzfU31Up/R85P+quj/t690988N2++nrcxonT36EfV+vXPdaegaeTr/uSpMGoW/Q256G9V4mB/+qxavfmF8AuTPguX42fV5jf/Ky0SLka89yJnwBlwBpyBd8XApb54/tVPHlc/128oln6dxMT3qeaRrzSuz8x0A1d5P/xjzSXfCFU281XVI9k70zzxC/3eq8QmTvyx/X31s9W2ZOaTl/oNi36/Qv5ywSYyT/WF/298+6p6rt+tWGoXCKFEEy+Lg7vv5idvJsMH/bANWf2gKT8xsfMDOv0Aa8nGmNKH84groQlft2oO8rDwWZjoU7ssko6OapsLOPTrx2xFi5fUlp87A86AM+AMHMwAs8t3WiS81LG0QGCkZpJ+ecAC4UyYb3WUznzI85Na/CtdIDyqcQVfjcPCYCscM+6STc1eIfX19xYIkmFStKMGjWe5cila5tENPVk2UiznNa5kgRBUYFMp2FyY6KNk/Ex9FdHLqbazLOgSzoAz4Aw4Az8wA4zAdsypNhnL52T79wxDnpuYeFNcCRYbhu1P4Ev2waW25+THfBorm9Ph95wBZ8AZcAacAWfgI2DAFwgfQSN7FZ0BZ8AZcAacgVIGfIFQypjLOwPOgDPgDDgDHwEDvkD4CBrZq+gMOAPOgDPgDJQy4AuEUsZc3hlwBpwBZ8AZ+AgY8AXCR9DIXkVnwBlwBpwBZ6CUgeE/c+Tf83PMJZOxfE62c0//4CJg6rxzL+OCnRuDb/zDjczU2DNszj9XNN2SDTYz7I3K1Ta5l5WQT46if86Z4LLt4VSNa/IsRxMhwydFS6fBv8TfJXnuGybIFmDr5o7BkoQLnBImKD9FaT5LUFF/RJVhDYOGt7GZU8PUltkrtWk63gZXgm1bMeUn/7k2fA4/JmMYy618Lk9l7Zw8N6WYt8G9DfZQX6dsjpXTcpQvzDqNK8ghP6bL9Cz1BtORa9OMI58eVr6Um1+GXZLv3zfcWJ37snZtGMutfCyfkuksENg++e7iJ1V1r+2CtZlDPzUlmnTvz39U7Yk8qB2emtR435yEWw2O4S7spHisf9gp02GfAUS68o2++sTwu/PP65J5+UYfYkwsJ4r9xULh6EwFpq1WNZfBwan221rthVrAof/404Q32d2eVyvt/litT1ors67r5ua4Wh1pQyjsyf6C1VavOFzL14oIh/gSNdT3J4yGYuHgRTttrcJGT1jsyk/7oGiOgdvaTC9rcV19tMlGEQeJ0Lh7IGphK4mK7pUKJL9Xnbbic71WZEX1oeOzp6JnuB3KAFvXhQXC8fHjgCeK5FQawwebahc8m4zmWFexjz+Vr2v910Zz7HEx6oh81bNF2qq+bS+Yx0bbK0VW1FYuo6JjhYocqbpt9TzC8YX63p34aW2mDnbxVte1nuNT+q1ER3E8gyOJ0seKrAi+5WdEsFMUdR3LXyIjEkky2u0IzV48oS1rn6wOswDdxOqFni2iOZ7IZs6r1wfZAHMkP8mf6/naMKZkPl+4+FS44/2qIjKkpaVNfpE8kR029Flr6+F+HefwYJ9RP1UwjiJmVXntwhieW49kE154Uqb46fuCUsqeD2+odJgQwy/Fu60YJdMRAJtfBCc1vuh8LrFR0tNadsrXPt5s/0ge8HS2o0hNTB9QX/MsInGuzzNhj3TRtbmAF/bHmmfBjEtOlz7TTopslHQhu12bKkwSkVw/kRq2dE5TZ4FAfIQtWyBnbLW818C1UZjfVeFOinuFr60Uynbd2Wq565Q5OOgzerADrlcJkx/NVSd2zmbSXJWGM2bgYgC6Jj7FwJuuOenXikmH1UXyCmO7B1sY7rlSZ9jfKGwz9rtWZq4kqa04dzfaBRNfktR6PqZNZUyYmmx3t+Xhngm5/ACONKY+3ul9RsHScM8PhAWWrw/qQ3c3l6JnaRhozTIBrSV/d/fmgHDP4lV2b28VzjgM8K3epUqvNNLe3L0umADRGBdEWDkk3DMT7psQRjv1c/wcWwwODyzWlL9RGORDwj2j57Www+lo+skBwyR/pZDN2I7J8nF/KUXiVH2cyfb1AeGeQ5joonHLWpm9+8vCPb/RtrVM7uTfqQ+NhnueqDLFWrY34Z7b5xgWphM4Fgh3Anzb2Vt/wlCiCokjzSTfyt/uKJIIjZyCY8JkEjok3DMT0TfL7kkqLhAISK7RteMj/rIz4tc6lkYG2/MW2bmJMxhMPrABlq2WhzspTlRA7cAdFjVnOvmFns8Sm5g/EvbnGqMnLCAySPhK3AcWCN8IO2dzJx9v1U9jnIjWSmeBgIUQW4GHR5WYTEy26uwsDkoXCExGhp21MWZc2DCZldDEZAnO8sEAP2aoLoMDDZzR5sLjafpTdU0Zj05OUsPwrdhszrXBQJ2wWi0GLHmS2uZOCptTJqMozzd63lrkJ32XEDbg8kHyM9oM2GB72WaUpcuD1aIP3HzFOh6xQDBcwHbuzl/s93zD1YApm2MT4Bw64vA331l5KlvUVc2pvMQmsmAMP+cb98wWuZ2X28TP6HOJr9GeJt3gbwk/WnvLHr3G8qV6pvfBcJQkpANOLOXaRI6vJ2DJc3HmFz2ABYkdVr6UY4+Bnd6qrxqzE0NfV6inChmxYg/sS4xfgwPDrGH5uOSwlHYEw5GT8AtZcuymyfT0y1MZzs0mk/zMTNeHBZvYADdcIEyPY/iDPO8DWdyU2BRM9Y24pXohawl+sMXovmQzyg75LPXTbHvuDDgDzoAz4Aw4Ax8wA75A+IAb16vmDDgDzoAz4AwcyoAvEA5lznHOgDPgDDgDzsAHzIAvED7gxvWqOQPOgDPgDDgDhzLgC4RDmXOcM+AMOAPOgDPwATPgC4QPuHG9as6AM+AMOAPOwKEM+ALhUOYc5ww4A86AM+AMfMAM+ALhA25cr5oz4Aw4A86AM3AoA75AOJQ5xzkDzoAz4Aw4Ax8wA75A+IAb16vmDDgDzoAz4AwcysBgq2XtCav9FtnQcWZTR7vfyOaaN70ZNkZV1rjxSDSjiFiP2i7+Tu+GOYKvcXNcNCiTbQrqk6nyvhzXJpvmY3JjZSmG89x0KM70G96uc3LDWJ6LSeVKsOBM3vJU19K5YchL0yFYw2DrEJsRFzcjnve3rz21PI9s7xqmr6uVGD9LcSXYQ3HmheHtOic3jOW5GJMzHHluSjFvg3sb7KG+ltjEhtU1x96crN1bsp/KLcmmPv1QuBKbKT8luL6vc1iTTevKeW+BoH3cjy+0ObV2Zk7jAAw0a693RalbHSs4C3EOBmkAqCW0L/mRQlYogtv++E3XxkDHsGCvaH57/MseNOWHFgX77SPl2pH6eBhrYHa9AAeyWamuiysL9s5HNl2BELESbBqsKSyuhnWLfshfImQqGl/QlbbBENIr0XRAFL/tjerKztpzKW2fiKO9Vw/aLVyxGGY56ajVnuIbBd7C35Ik/8BVq9h3cuwR72EtPlfyk+iKGwX8GovmOOUGsRA24nYnPSsFteqnsQh1JrMhCh8RD2mbolgVasZ1xJXEYqB/g6MhiHGQw4/5SusRmfGIiIVLicdD/x1JngBPXBElEXvjvSDtN61yIiqCOwnYfG+xfawAWid7BcOafS5aW5zhxYlwBD66FzbfYtRzongnp7mBvpIqn6qexEVQcMURm4lgNFPd64sMkRyJN3ms/EyBu0q8ReOpcOr5IVhPrXYk69rmKkRzFPY82B+BTBSBPatxNork8AvuXIL0ImIODF5Nd12URJvQz8jJKDuVUh/wC1me4tQOMpQzQwyDNXUdIOCS4skG2VSHiicT+qPtfQgUNTbzTYGxjj0iOl5JS65N00c0xsc60JNyEe53q2aQ4OtjjbXEYiCWQ2tzCKBej1Xc190dKdUxdpq81S11tOp0EVIziOphJtTzXoN0VRQVDdxxtVf444ANgxKqhw5Hi93PgMW/xcEk0YcsgyWT5uZWDHQpSCS7xrjCP0Igq64tdROIoF+yjXrJEXgJ7CqGwh0aoKSnD181AQafG36GyMZMc0sTCaGBra6hvKe7kU1PIi4sEMCKn4HuRk1zUiuQLJMC/o6kgR6TEVfgFIlW1R/Hmih5EFN/ZEHAAoEojiwSutEc+77VGppiojnKZvB1pI6pwc55jdOiIi5QurXqXnWA4QLMRsdwgdA4NgSpT4Chb2xU18bbOUitBX824mkjf5vndcRCKJIwk7TZoD22sscwFG2OG+zXmcXFliP1NbU5ribY3spXsPiRm5AM9tRXyUt8xQYLiyPh8lLrF7bwlIm/z0HspV2NyNJ6gVfZPBY+tmars4voXjFos8Bg9BjaG7MY8WgHQ2AgFiZNTRfMYgMRnkjwpW0CBlvpaNn43ZxIIKTWGW4d6wPcUkIWXo4FZxHQV6vZRXrgfT7FOk7NdGBb/1JN2Eb/qY5+sKa+LykObWACVnNS0yap0MQ5ek+EORN+3KvpUn0lCnwR+tv8szw1R73wrz9mdBcIGri3Vy+0BFTI4LkHSHJ7Bj6FbC6N5sgbhB3hnq9+MW8j9d7ONbiv8W+CJhPr5EzcIfKfJqVDwj1DK6GpG3o72tsL7OzU7M3iRbgHhbYGqzcI403YwuOZpFhQ6K1MCBM90wZDfSoh3PM14Z6n1rZjXUO4I8lroN6V8iNOQrhncCWp5qg83PN1He75jcI9vwq2hzyMO8IETbhnQjZjtyRttkd6e3Bf3dy+1gJljMNpbYR7vibcs8LuhpQBZxiwaIyHhHvG5pv7q2mnkjtm60HPCN/irxRK+/Bwz9f0iET7/Cm2maxfE8a7eW7mMdyFSd4cgL08INwzbzxeCddN835jk4M3CFe8heqCR69CmGeNC+RXhHt+mAj3PIrGFt+S23DPdQ+akG6LkeMtABH8XspuyWQE9kjRS1/KbyaN3ATO3hwcEu6ZCf3rzAriF62n0TVwpCwk4N+ozi905CwQ0PMLyY7zM97CYFhcfC1Uf4Gg4smEb4R75k0JYZvHbU7Cwxukr4TLpCgowld6Kv1oMdyzZGL4bOrdWukuEHQrLAyYmGYmJ8Sy5YKwfciw6bbcbuXkDaatQA6sqUvAjzf8qB6zRy6iF1OQS6WEMR1p8eS58VOKQyFYcPhZ2P0MZ/mkf/0btb1gs39v4dpsBSw+L6SOXGs3A5ko1vQlPcWTvNo+/PcW2Jzukzga7HFdW05vzZ6bPHluSmUPxR+Cw78Wl+ttlGtx8awEDTOgSlPEgY3HEj6Vs3Py3GSjTimW0dEw6CgZDQxbgqE+4MyW5ZTnJHwtxSA/xqXpIZ9LqdySbF9Piu3fm7p+G37QaTbRU5LApbbnsGM8jJXN6fB7zoAz4Aw4A86AM/ARMOALhI+gkb2KzoAz4Aw4A85AKQO+QChlzOWdAWfAGXAGnIGPgAFfIHwEjexVdAacAWfAGXAGShnwBUIpYy7vDDgDzoAz4Ax8BAz4AuEjaGSvojPgDDgDzoAzUMqALxBKGXN5Z8AZcAacAWfgI2DAFwgfQSN7FZ0BZ8AZcAacgVIGfIFQypjLOwPOgDPgDDgDHwEDvkD4CBrZq+gMOAPOgDPgDJQy4AuEUsZc3hlwBpwBZ8AZ+AgY6MRi2CsYxN3FTxQJ5bE2uk52uh5sAK0QkudfhIiOxcGaCNlMQCKi6qU2Msjen38uKflFYKTchOzJJxFDOOakWosqiKNw8mkd3rUGTgaVkZ2jZ0mdRNrRebV69COVpXHKBmQmbuieIiquwOFoJ7bDBK4pVjCi009FqcKUTPLTCHdsrgMvREmMbTJNUR+vaHonTxpdCnI3kfo3FKRHYbB3BAi6V9jmxUZRWB8FndmKF6Ixgj0+fSp/iY23kJr2Umjh48cBT7CmRVyjlmiHhHsmNp7+K+yzp8cKi67/CExEmuaoMagThQlW1FJQW9qkTjk+I3Mmnkj9yGyhMP2QS/h1oj5HiGgCWl0Ie1fED9EjV9Up/TbYTA3Mn2P7gnDh6ufGTxvsbB5LmGiCNRF4KbSLNOSmJ0QtrVPL6QS+Lia7kE2CNREuevjNaoh/EJ+PhCEiI9jnhA3XeWvTvBhiuUPpU9k6UXzpO11N950hPoSXli3YGfo6b/eZOFW8ryZY09Bfw+NktM3no2CPaIf0vZgsry9HshgZ83lPsHfZwTH6E/iIIPNpUCbqqVlJtnOiOe6rT4JsbI85e6lx6vmFmCEqowVrWsQKFPjR56mwR+IsxaTnqa30/McKwIcceuxzCYfsM42xBGsiXLT1n7FxAU4/kV/9cFCdBcJKyo4uv8yK5oixt4nmuDkgmqOqWK3xr6ZJJ8tJk+WeyG3KD4rmqIlpdfVz2VlojrAQESn1AxPk766q/WthFc0xL0GqHq9jxdUiamVngbCkge6gcN3X38oHukRu0tB8dCPoYdEcsXL/5mWusSgnjvaKiFcazfFefO4UXvxe0RFvFbWyG+553gULt3wXdMzxA4/dxOJgq3a5JoKkBsGytK+uby/D5JuLY7I8qcOoHxLNkRq8ls2chK17LQg4iKh4KX4OieZ4r/7/Stix6W/KD2wzjlyORHOcY5n6nWhBEyNB3hbZNF++u1efL0jYfFAEydJojq/Vz+/gVfk3D3fB51yzDNrM7pd6ntGRm5A8VT891/H1AdEcGXbABfuZRrFJdEUm6UOiOWLm55lVxK83avU36j/pk0w50Rm/1JEuHNDdTyz3b4X/mXJ8zk3GSVE0R3VmqhaiOWqxR1TGEpv4xvPwB4rWm0kRkNB+17IERyGa48xDRb0u1cceQiu2VjoLBJTGqiDQCoXizofdt7xzc+bC5NN8Rnxw6xBciuG8JKXYJZzJ9uWmyvtyXJtsmo/JjZWlGM5z06E40294u87JDWN5LiaVK8GCQ95Sem5lnv9RYmCuhdJ76XmJ/6U45NMjx1bfhuFzsMiYvOWH4vp+zOkxW5bPyab3TD7N0/tL54ZbkuP+nKzdI59LqdySbKrnh8KV2MR+ajf1Z+48xdj5lPzU/dKFzJR+L3cGnAFnwBlwBpyBD4gBXyB8QI3pVXEGnAFnwBlwBn4oBnyB8EMx6XqcAWfAGXAGnIEPiAFfIHxAjelVcQacAWfAGXAGfigGfIHwQzHpepwBZ8AZcAacgQ+IAV8gfECN6VVxBpwBZ8AZcAZ+KAZ8gfBDMel6nAFnwBlwBpyBD4gBXyB8QI3pVXEGnAFnwBlwBn4oBnyB8EMx6XqcAWfAGXAGnIEPiAFfIHxAjelVcQacAWfAGXAGfigGhlstE1OAYy6ZjOVzsp172tDRMEs2Orj6gv3IA46NITNTai9gZzakHlPZ2FzABTt9v5L6jukOZaleuAdTH2GDzUlg70aCA5+dEltFuNpA42u2wbZ+Jdjgm9UrqeuC2QbR4BUBIJwvAO22moeYAeE/cGlzmcxM3mAL2tIwqOW8NKX4JWxftn+9hOe+YchLUoorwWKlPXJttg1n2DJfU5t5yNSOned6i4UU8za4XGzf3sIs0CEhxZbgUELLgM/FIccxVi+717a2BEeSyZGXpBRXgrX6Gb7EJrKGG6vzlC7DWD4ll+rvy3QXCIrS8XCmiIRHRJAbe7lQu6eB8kGRA0k50RzbxtIwsFUUPyLVMaE2wYjyqr0jKqMCu4QJNFiPH63+pNBOZWd/WkdzVLCL3AE+6MQ/ohXuCOwyZaXlpDomsqHJqZzAS/C0bqM52l1zr5sLs1ZUPEUArEKwnrQNxjlq9Sma4/GFuBGvhcGaLJpjeORGghG1NrreUte1fN3UgYX6d5vrwYSsqGFEOVSAoLWi3LWcNYjBCcGdNor8R7RK8q3qGoM1dXmZ8pVFwZaolfJ5s7kf6J8uiNEct4oAuD9+mA7W1HWjUXe8PVOTqA8OOIgiY5HVmCyPtwT4Iupb/K9RuHBC/U/V7x628nV0CO0qwNaJ+txGvK5Wu+pM3IZzoftpWBIrTURFojk+qI1KgzWdCccANuRnglBkdViwJvzPsZn6fq5AT/frNMxPv6bDa2wSmRFUboTEe7X5qbghguOZ8ifCc76UTAJeLhRWkYBW6GpTet6WpmfEAj2TrXspS0eRVGbsHM2PA06B38YEJsrAXQhHXM4wLkzIxdbr3qS+T/SRhs8yDhrJpMr4pXjDIWpkWjcwzEoEYVoO1qRImZJTGL8Mflrj2FZ8X33ummiOughp4LPdUA7ikT7PhOMpSf1uOGnNJMg4Oj7TuH4r5IRIR94u8PW55gJyojR2bZpUzNFLNMe+THeBgHk95IrBK/G+aDKMy1kiPzLAr5AfpKlqqJywlTuZxQYT8EiaIjraxF5ff/86UcqEiY9h4qRe49rHS/EXLDZriYGpuiDoRy5JPNSBn7a8D+/a1d2VZEMbKLf4nEFlHxnttKUaKuXDvvE38aM+7dqy+9IQ6qdr6mD1tNsUN0aak/quNGJztA+MaaphUoivATthMzGPB3Xd8C9c1fUMl1kfTECRHziKerKAie2A7/HTcNqnplbe2hwXGCuVp42PO/lqE2Bja9ZxDexW11m5eDPYwp7+439i+FlZ396Yr2hhIYJNkH1MsDIBxE7AqY7DBUL0b+wTddFezEdtjgHrMvy0oTYXG2w2dgNbMxbiLXpZqLo+OLdRYCWuchKYHVjJEzq6JD2oYtQRm3neRu1YYQIDV/aUIB8tFdmUQdoAzENmFRFjJB8Tpxz/2zQmFWc3bCI/Pgu1GmwkQ2tsR0VArTlKpdrzoU3zGdzQZu1v6narrOHnXguwoHmgflAQ0NbnYj37i5LEgE7Nv25pVXUXCOqEm5vvs8I9r48eVWvJ5rxBaI2qAxFGdHsXsFMLhFa+e7aSzRCyebRrdGWbKyYD3hww0Cpcr74mNbcWT1jA8O0fXKfTjSCxE8I6W2PJzk7r01th1xY5fIgz6XhHV7x1oCMQrndiATXUQom45dvq7Wud0iWGqWtL9wMVdSnhnhVGuYgfKdjdn+i4GhqbK1E/W21kT4vE3f0bc2QOERYhO/HJAmint0gPwpWGe95uj6t74bBbkvYb+FT89/tr0TPff/ocbx+OqruH6zDI59pkmDUzt6qrLRBy8MhuNtvqhjdtGSnYkhwLESaiG4VGPyTc80p99VrYcV/HOcP2ib4sXNMPCiZAOOYg3PMbYcdtTlf+ZLcRbvwZmUJhT+9YNPnsqythx2vURfOt/0a8giEn9DM+5yYG+FNwOkrDPcMKy7VLYZcnwNYj6nkuvwn9i/3cBI52wNYrYUtswsgZOB05yfzi27+dg8MHgpxrBkveIIzzzTtyJj/NYEW+Yk+zUMBNj+pDm/hGP1BPr76TxTl+kO2nCyFe6gj3hur74uEaX6knPf3lQohpZHkeUz5V1FsgUEIHtoPr0ZTIFHT4oMp0Wz6qf6LwEIwaM462ic8T6gfFZo8cPbNpTOZAm+ZzsDtrtHeztrfoaw8W5M1/8tx0CMZ0p9gcmyYP3s5zcGbvh8LN2xzejb4Oy1O/huc26ZHb+VBqWGLypRjTdCjealliF5sRt/x0mX+Wp7hybsvt9X3NsWk+9rFWh6Xc8JYvyaf3DWN5em/p3DDkJSnFlWBTXI69Ofm5e6nuVI7z3HQoDv252DF/KGNRMbZ4QPdUMptg5xYl4Mfuj5VN2fJyZ8AZcAacAWfAGfhIGPAFwkfS0F5NZ8AZcAacAWeghAFfIJSw5bLOgDPgDDgDzsBHwoAvED6ShvZqOgPOgDPgDDgDJQz4AqGELZd1BpwBZ8AZcAY+EgZ8gfCRNLRX0xlwBpwBZ8AZKGHAFwglbLmsM+AMOAPOgDPwkTDgC4SPpKG9ms6AM+AMOAPOQAkDvkAoYctlnQFnwBlwBpyBj4QBXyB8JA3t1XQGnAFnwBlwBkoY6MZiEHKvPZsrIuzNxQHYawNHyQVZRYDrp7GtIqOMNopEf3MUrk8MV7ThZPRVRmu709716xE4gAfsho0yBxJJAfp79QlbNdf1TSSnT+EHe7XNoC93c80EW8RPggt2l/lpJWKd2Ye/LBFrQFHq6mOZW2kncFW95TXxEFpsruW+zVwcZltfl2Ix9LWar2WbpOJrZDnY7iuduQ5bJQd+2laaEQ+3go86A8H5Gvxif2+1BvkDcPTsEBlR2JLU4OTjwFduLqRgs6B+qDOblud4zFMROK3zcrsxpgF6Sp8ww6QjV47PsX4xlkGOvFwLyXDYxWaJv9gxXFC28IF8Wq9UnHI70vL+ucmQl/pq2OHM17fSXsOP4fJtgoopYomWMJ367YV/RHEkbZXP1TOVDYD6o7NAYMK/P/9c0R0IndE318II1Xx/9lm10UKCiI7DNF4NwofsFXJ3R0Ai9DcTy7h8X++e0MkhyEpfvn+dIOVrRZhocoWW1QiY3ExOGxXNSfRPNgkQND1g1vIKUFIdy79Gv64Vsnd19lw9sA33nFisTxN7lBDu+ehc8yHlE77WyG6mDqB6Bj8ngjV15e1KOAV5oi2YjFr/E+s9Fw1Jvj1W4FUF4IopCi56rboR7nlNkB7apE5zOCJGbjdnCg+9rTby90hhuAn93GJmnJR+Hq0jgn2pjrvQh8xqzOs4ad3C+mqDTfykTZr2XcYhcUKIacGaR7vn5phdRI5rXtahjm0to9X42Za2Smn/M/W70YiVtViKo+hEtqjjWvU7F7f3RFtNmDWbLc5KokLCPaMDm2PPyRAX8URwPFcALaLJTAVrGsMGn+vQySuFLRyTMQ/H7l1sjhSUpibDBGnbkWR47hLuGdwRz0oj28W15TFE87kwBGgi/1RBtLrhnqexqOepeqL23+oL2X3sRI3VeBLxqU3KKT2RzVMdBGyanhiG9il5yjig/+2pRudkqnkDF8M9xwA/0za7mqKHVfVMlciyJ3iwpU8CojNxWsLmc5UTFCktt/tpfiSZT4LsHD8pIj4R+PhcnjLxjs18XUS84rsNPp/rk3DPXEd+KM1LnysKMra7iO5VXxN3n2kuIFiTRgQ932MSsQzdhHu2BYVJdhYIhFM+uvxZVjRHBsvNm6/LozkeXSi4omLOX/1CjOd2o7oS6kTryy91Maip1WeYa9Da3yuyHYMXkSp7A/wQkJTIv7A4eP2VCvuPYSLHKQuQBzVFM9BI/u5NtQcbojz25EcvVa+tFhMPF8K9EK6EHzhRNK7rb5XRJXKTpi5NnLwl2ZXyAyfq7ffX3+Qai3LiaL+/K47meH//Wpi76l5RJ2+vX6r7LA0DrVtMRgxGd3dXwW57Z/lsowllq0XttaJ62jf7ZZRJ7KtrReacCmc81pNZTDzoGSFdE0Fyqe+ZKeXI8rC/JhpoRsLW3e5Ei4IYUfESbsVxns34TLBAOFP/f6X+noeLjmGbdKnIk1MLhCjZ/QR1qgUNE+/lZATJLia9Av8tY0JBAnO334bJpySa46UWo0RiJH/xcFcczXGvIeBSz3NpNEcWB+c6vtbivXQUAQCOfpSb4Ie4rNj6VvUtsUkvwtZXKMlIyOrrgezFcNYGCTpU/qWOpZHhSDI3wv9MeYmv2MDNr4WajuZoHtW5KghGo7oiZa6qrzTWltg0bX+gqMSZFAUIs8AbWSL/GpvxcTV1nZx6PVO7PVTXOmutdBYIAcEEakdHRXqRyCBbkky35SVYNWbRBB90GybxOddmqFuCn8VJDv/6qbietR6z3dc3e20+jPiRjSvBHmoPZ1Jsjk2T72NnK9a7aTpy7KXQFHcoNtXXnk9ri3eYcEsmXZMuxZhHEW9arHQ+/yHYmeZh3PYPYXNc83RpqU2TR6Odk+emFFOCQ/8Phc319W1spr7m2DP5MVm7Rz6XUrkl2VTPoTh0/BDY1JelcxYhZpPzpUXJGA9LmCUf/L4z4Aw4A86AM+AMfIAM+ALhA2xUr5Iz4Aw4A86AM/C2DPgC4W0ZdLwz4Aw4A86AM/ABMuALhA+wUb1KzoAz4Aw4A87A2zLgC4S3ZdDxzoAz4Aw4A87AB8iALxA+wEb1KjkDzoAz4Aw4A2/LgC8Q3pZBxzsDzoAz4Aw4Ax8gA8N9ENjwh2MumYzlc7Kde9qAwTBLNjq4+sKwyUYOY2KdMsNYHv5laEdi/iIX18jNq/O7zoAz4Aw4A++GATYFytkmjm/GzHLIttsC6WIhgTFcjh1Thw3zrdQmOsxmqa+5Nk2/+Wt5d4HAzobHbA18pB0WZl4uaDJcHT+r2c3dcBKTqt5W292G3QJ1PmfDPEzy1ZG2Mj7BXgFNTNzHbLUMZmar5cROcxr4oJ7QPLaNRCMp/diRbCpH2e5WZUv7epmemhPtMhhw2v0qPwkbcMIW7qRYaec8bYkpm+QL9ew4JFmz2SlfuKAtsMU23eQpZ1NQZLXd6IrHTDnHnm3mMhM7GaZHJiyIHYoDfAiWHQbBQUvIS5zFpuH7uJGmDbLJ89S/7qsYuzYMeUlKcSVYrERszEtsImt253D9mkSbYNVl9dlS2Z719emJCvKURxzY/GR48hJcaqsEh2eHYg2HjlKbMFhSR5PFZprQ80W97fvSyKkZrnqq2rI5eP4oEv38XCgmTkau3ISvj2TvTM/1SmNtiU1sfCbcvXD9Os/Zh6fnwpEfL9hE5qlk+361CwQms+3javOn/8u2V89YD3uKS2FxCs+TPg7CvgUOag9wN0yYub4yuSpeQKybtqt99q8qPsJ/oYG+T/sMa8hqS82VtpBNRqEZQHtrpe2A1+AKK7qSPeq51lawpTb3ih2xDoug1o/FM5pC+9ITb2Kdu5iR7JvTp9Xd8UV1+yt/XjEg/la1/vpvazHbduFgd6KNmRSOjxXjQvVMYzGE7thxeKiArZY3qmeINbCwgOrrOzlSf9AjWjLR4+tJiFfC7mfs+9/Xag4PfUX2VNs0p3U06X6O1miLWAyKayGOieOwVSyGaHOov6+DazaOPVUshp3GkFFfJ54fbJ+rnljpb7U8VWPsIX9Sxzigw87JIk9KZR7pC9DDZqlu9f0ku1BfY59/Yydqnv58UL3xc6/jSP39fKstu+k/S6ZrAcTYUvqBWAwTHE5ZJxbDmUzdKC8YfYLlRxqDbsQYkwap5W7ace5YLAba0jCWB0XhY6gDmQt9vBneavS0nMUJTxFgFBNDviUGLmT3v/9O25q3xmbP4MXqOCvYu3kozlzN9S81+8uwiX9wmKbe6CqRzUWX9VQ6PUdR2jrpvbnzYP9Q7Fvg8OkgfwtsBnKpoA4mvrNfqVbn/0K81ucvI1knPMTWodhDcfhYgr0Vv7c80ifH1WMN8J8qhMSexU1I8N7qa4Ig1R0eO2sN0gR9YrJu7tfDCQFUYjI9ltNtNE2r7zzoLUYMotXasdF+WB61bRngw1uSWl/fTuKfeYDOtWzi8079qOGoJ9vUodZp10eakIitYMnKzcemvNbHYv/T0/iW7bc++/VmMWO4to4R2ZTXeDzdKG4INqOvLXcgWrtN5aOcLvH1gTaxdmhy87LW1as7Njnu6wWm+dRwVcPNdluuhaK4vZNNUloer7u+i4wgBwdH4onLdDHT2jW5WlzZTkV/6v62+s2XL6q/oMXTlcBBvhZtbRsm3kjLN+rxlDKRWV1MummXtqA5Y0LhIMhTo6/HYSNcn1hdWADFFqkdtfvdy7q09Rl72IrMtuVBsMH2ymsMT3F8l9gIBph99OtOUKFPZezzO6zFGvL5uGkvQ3r+NgwohJuCwvD2oDQ1I2psnGz4oTgMBGyhvQYXTvgoSOqswVymzSAmTPhGrZzBi0MDkqe3Z4AooiSFFxKtt/rLj8Kt8KeRkOLAYi1lgx3SJMrDJBT+NEHbxPLmvl0m8hGnAVZ/6tmHBYLeCtVyZqfFxxttOejYZecWCOZHF6dAaLJJ2UP4s0pQZabq4ZA61c40PrU+3D9kLBAiI6qbIlzCrTixoE3Bd9NvnPTs2G0marhl0o31aP0IenpcR93BXKhYukCwSrZ81LpqHVYOO9i9axYIQVXwJJ7V1z0c+lcKa3c7sUAY2E9832sRxOVDMl5aG5hfqW1CXj1/c1n9ua9+P44BY0IpQPLDRP3HyoeSH2WJnsuGnqatPkom3kmlt/s/+Jvtk5ptQq95iMp4r+htycOSA9/r9d5e36rW91cSL+v4RB1cKRqfPcQ59pDdb4iMp4EhvH7PQwUpvjEo/G20mYPTw6xXpqvP/oKW77wE4+HWcfuyPs/RQYfXUchr0MxC5BBc0w74W5h+WTb5PYb+BEbiTyKvX/2z6vL3/jfxHKMeLnnNW4PT0yd1NEe+deTX1aI53hwQzfH05KK6uX2tiSXfHpPtCb/TUbpR1MHll+itbmTP9Zy8vpuO5pg+dcGWwpH/y5//Rvhm/A9f/H+a6DOjOdZmieZ4qrDNlwdEc/xEf9IgImP7rbytSyCg94HvSJxoDOF1/Wthl/npKvlE3H53QDTHx7wNkvXcaI7X8u9Xb/W9WG9JwjPddSPzKm2tTMhHKPZ7m031t471p8DMuvOVjRDIrwt7D32PqIzELbWvJpkmK0JMbzUOXOl5KW3VC43rl4y1BQlfibJKfn2ATUxtd7/7O+RlSUbvL35ah3vmb965ScPR0eNqRyjbq5/roSmr8E4215d/KGNUOTNB0Kl+PKh8dfNd2YPKN8ezz6rV1ZcyltGkslHp7+TrZ39a0ZP1yhY/b7+rHv7Rf6b3Z9heqq/kWWBogN8rlPayfMqBXkufKlI5day/VaV3p8+FOzqXLcI9v1KeUc9G2araqr73Cr1clPSQbDVx7vRKeqdwxjI6D+dHiWe/Vm1+87clys+LVEVxvQtvapY4jaqZoAkVHY/223W8O/8JJTu1HW8CSsM981sAcKULhAf9DoAUbC7x07jPVKnXw2p/vpX309hTwwJhu4p/dsFHcPFNwEKbJMoZgo7UHnybL5mssX1X49oFQqJ44pR6rIXj5fmt8hKbqMQmuJKETTAsEKLNZTRLO36H4OkdMyCO/5/tpvrPHz+qjjP5ZhR5rrb8Q7VR3ggS60Cv+amWBi+EKv2RIguLR+pDX2qsLbGJ5V/VGPj7+mJU0pvw9QvGAuUh3DOKClP8E0MhKHxL1bcO/QJPyJKqqnqG45vf4oTZc0w/FIvfGAtoYiDAZsixmT/wBf+Cv8KpIy0ms9WRla933+cvEHbwqibNWlCkHsnOkbo9uMIFAn+pZIEQ/Czhh3oeqf2xWZJ4iNdqF/5OrrdQi9yyQDjW4mWQaJOMdmlwJl+CAZziSrGGb5woPDHbhbAR8VzPSy2a3lIcLhrGdIy4PVqU4g7FjiqeKSy1OfBL/f53Hp1Vf+f4OGsiY5R7orcPbzSulP5I8VjP8Ykc+F4/hBj4MVNHbj1drwKOCaYkncsmti5VzxKbyPJ7gm+ocEbCr+fi5LdfXWnCjSDeHPAvBEoWCLxB4CfEJTMYtiOOH6vmJ7w8k71T+UheYhMrhsukKDgWfJU9FgiH2ERJSR2DUf84gAEWQnbMwtX8YdGUK58qo+vUuKJ1Zm3T/CtdIDQ2U1+Wzns2F4cTHicOT87A+83A/6tX4X9Hr8JP+TKxkMJEqD/JXmrBz1uP3MRIcKrnmQn7a70RKnlywP5Ii5IXwuVb1HcS4R7LJra+la8lNlkg/EgfX6IkIzHh/TH9c0ZyT++WAV8gvFt+Xbsz4Aw4Aw0DDLh8yz3OmAyZoKOsvpFnyJsRRPWPctn1JdgpmazBHtX+lS4QsIkt6lZikwUCr/xzOJFYWBgcFfABxtNhDJS042EWHOUMOAPOgDPgDDgD7x0DvkB475rMHXYGnAFnwBlwBt49A75AePccuwVnwBlwBpwBZ+C9Y8AXCO9dk7nDzoAz4Aw4A87Au2fAFwjvnmO34Aw4A86AM+AMvHcM+ALhvWsyd9gZcAacAWfAGXj3DPgC4d1z7BacAWfAGXAGnIH3jgH9s9xD/kEpmPTIrXeKsfNcLHKGIc9NKaYEh/4Um2PP5PuyVr5k3+RS231dU9emO9UxJWvl/AtkT86AM/DLZMCe1CWbqVx6noMzeXI7X8Jx32QPwRnG8hx7JlOCmZKdKjcbaW6ylqf35s5N3vI52fSeyad5en/p/BBcirHzJTv9+wr9zmaTeamZTrRTFgGQCGSkwAp54CCl3dfBhUPYsGsgN3B/Oe2JHV8HXlqWriXYgUy4sNUy2JKdAvEPbLDZ1H7atNnq7wyIjl2ObfEQ7B1p52NhGn6mTbZ3tJmKdl0LuMKtlsGx1fJqo61VZvnpt5O2Vg022eZEqXd7mrHoawhZsiYuwrRk1Kv7CpSTphCCGb85MhJxBtYECQt6sNdzdkaH4TbClsZiWGtXOnClsRg2BPhRCjaX+Enqwma3RII0/Fi1UraJh4As9eJ1Iudb7aFXEt+AYE0cW/SM+TpBdYwDIZz8JbJCTJaPeR57ChJb7MnnI+WjNsfhoRQsuJKETTCK56g8byvhB/lHKO004fOJDjYxWkpsVESI6ePCGuIrNsCSl9Q01FP2wE1tlNSpkZ4rUrCpHFtsTF9iE30a7QJO2WJiB0XkUz/Mbg6vGCBw0j+XrZZl95Btj21758g2NUjrn5bGe3zSfmf6hK9zsaUgpsVpuzt+EkLZjiGbBhgoVqCcY0XWI/67AtH0U4Pr3xA5ewUGYqLfEVmxeUgHBgKyr2evCJL7E/bu78v3r6PhuPuYhp7jC0Gsu/e1DpxsC/SQVAROEj5rEMKG5DuTrHQQfEmhJLvlrZXkTPVQvInVFps3Km8fMwsrmwj3TjVoidvQHk1do0hb4zGeNHFuCdYkWywsqHM/9WCpxFqBtzbgM1KD06CyEW5HKONgz+70DJlOYjEgb9dq/5Um3c2RFplNNMcaO6UCm+p3McgTj0xMZnnYp0yCSVNR4jZH1YN86C8QWnwrn54d0dc39/T8WNzzbwyPLDgS4++YTFTW/YxymlDk6z0xPQapZ1z3sXVC/dT+TNIn6n9r+myO1XpyAHsSbKo9c3C1X9g+lm1adipY01jdqcWJFhVMtgRP6sj0qti5V9s91ULmNiwU64KQdYF9HHfB2UKmfz/VZOfweLRiAdymE3H1SHpOau7Cna7pRhh+ziRPrnBf3Xo2UuMnxGLgq9+t8O0oMmEoUYHEI2Fv92MLhIjv1F2yJMNhi6ertcndNnWwoTjW65FuxFitrezUGePARU8RXxOeaMAvicWgWaF6oiP6usyNREM9H+uTJ9pmvtaVCR0qDvzok8VBP9hXi8dCmlp9TzSmX4Xent7vnrd6Ig6ePhGO9qBkqk26WuKV7dy53b7+cuz+fFmYgLQ6VsTBsQXCNFhdXZM80Rw3V7+Ik9K08PAOnf31VypviRsK9Urw9UFNqXx1o6BJdYfuSY1f8nDqQV7ha87jiS0iDAZ+apXCh8iMd99m1Ff1YmLQ4ml/9aIjv1zj2AV2RFYsfIOwP2KxRjRHIk7SzdquNk6MlUpO8vfXqltJghP5GKM5Lgdr2rOQWL9KQrlq8Hq4qe6u5e+ahdRyCm8Q5OutwoVjtyRttkcKe3pSXR8Q7hkqr28vQz/KtcmE8MCiSOnm7loq6vbIaJYgK7nXd6+zzAVbmwctKNQeapfXCsN+S9RKs5mhhQUCO/e/Ivx7AQ7bDFqXasupBcKYeXr6qSZ4FgiEii6xiT4Wed/JZl6KpGOTyIwl4Z6vZOeNYgak6VI8f/1wHwILWfnUsw2SuhGL4Va2c1PgR7aZ6F/IfsnEAHYjwAuNYV3P562DIy4rtr6VryU2rVv/PLOKYQEi2VQc219pUZP/BkEx5oT5UvxGX80LFc6k2CaKjiiULRBmxOMtqcZXojmei9evNNaW8IMS5P/wgGiOt+qx8PVNqU31HZLemZa6GnDqucLZURctZ6LJMJYvg1qJBpN2jfb25Bk4UsDndYRWvq6nOlJWMlupsPk9di+VoxuZj4bp3J+7ACsfg40SfgxXY+uOMWepvQemPtrCvDPDBXvSMZPCBDDwS6WmYwbbuSV5MP23AB2ZkQvsh/8OxeJnYcIeKfib2/eQT/4LCjI+zBaih+IPwXXtZTiaiKT2Uv8TkclTmC3FoCzi2nzSQH2DUaff8lz3y/syqV6zWY9g6a3Jc55+s0FeijUfJw2M3DCbZq/EptnLxZit1I1SHamfuXbNXoq1sqXcfD4Ei27DoackgUtt52OjJfCenAFnwBlwBpwBZ8AZ6DDgC4QOHX7hDDgDzoAz4Aw4AzDgCwTvB86AM+AMOAPOgDMwYMAXCANKvMAZcAacAWfAGXAGfIHgfcAZcAacAWfAGXAGBgz4AmFAiRc4A86AM+AMOAPOgC8QvA84A86AM+AMOAPOwIABXyAMKPECZ8AZcAacAWfAGfAFgvcBZ8AZcAacAWfAGRgw4AuEASVe4Aw4A86AM+AMOAOEmStnAUx6ZGvo40pt1/iweWSm0dTP4rrin9nMsBf0j9XJdIzdS/Vyvz7QZREzUpHJ8wRbwo/Za/JJAxM3zO7E7dFiw1g+KpQUTslNlSfQ5tRkLW9uZJwYhrw0zWPHNBKjIPYDPsck5n2I6Dwc+lPJeJ2WzNlig9umx3b0zKHsXvSzxVv5Un4ozvQa3q5zcsNYnovpyxmefCmlsjnypq+Pexus6VzK38Ymug2/ZGdO9hAdJZjU9tviwJcks1eCSzF2PmVzSu/27vFPhYkPegueEq8lFHDi4fwLhXs+UbCmscA343giEu4V+W9HQCLC9DaxCcblW3/i2f7sc/UkfO3L968TJIGTTj4RRLmiHWpz++Rmcjq2eMC/00+Dtem92xPb6DhRjDAFxmiSdKzOPpNtQimPvbBJ8IDEC9Efo70xedPcw8nL9ekzVU9hkbODNaGjjeYYwz63/DRnfVPmgvJt4DYWNPLJ/dFT8bQ9fhSDNSlkeMvthCEFLtor6mgbPCZGZtyqbVYrgsuSJrDxZgiWdKwIpGvxu1PAnH6ai5ZJyOUNobC1r1g/jsMcDhunoS1jRL5gs+fmGB6R42AvRpJs+Qkamo+W71YpsmeB07asAdQnDU7tgBSRGLeqI5EuL+TvfYjQ2kg18GFJtBGjORKUmMh8Q6lhSVSJ9ccKpU5IZIuS2G/GMWzwWRERwRG6eUzGnB6790TcDsp7z3//PjaJwoifp3q++/fH+t+N/Dvrxdh9LB2fie9ONMd+pWvnsflUtk405hE9cCiGxHgiXPOpDtiZHkW6eOpEyXNxuhaoe3fcjn3BRPYi2FN/0vm0zb6eGM3xuYwPOe3LxmvGgS8knNpgFPhJUTTHffWJakh/TfWMW4yl+Bds61NxYdUmeYnvefCjOMYh/PKRLqJNSvPSTwhYJ9GIiJ9LfCH1THMBo51CJDbfN8fGnCkvFM1R0RFzLHU0iCZ13KlojtPqNCQomuPqwGiOOz1c6xBZMZ9YFgZ7JgTlB0VzVL1Xilq5TJJEWITsiRyZTEDYJ8LiHZESl7qi6sXEoAF6/0YYPXD5SVi1yY7Iiqn9RQW0iXwGmxntsvVKZxpJHogCWZLCYKxocVpc7hQBUMbn0UQ23LxOHmSF+SXiJf6uFYkyI4VojvL17pBojkygapMbRWXsLxCWTCN/rciK2M9NTJyEwibd3N8ssdNRGyZo2bxSPXMSth72J9UDbSEfr9QedwdFcyQSZBJ5MsM4tpnAXh8QzfFuV0dzVPTUzqIkg2Zsfn+f12+sGqiFn5Jojm9o+95i9ErXLxXN8TSjP7AYYaImmuNdhnzqK4uDcx3fjERznHvaqCfRHF8Kx2SYm8DBKCPcd/J1aaRL9eIP8i8y2g4co+tWsql/xOb8RVE0xxgq/OfqCyW+YpOvf4dHc1wVRHNsCdHXvupLjdFtiQoWErLEZYWvl8Ku5xp+Qtd2xWRSYhVFTLbC2TGhe6RYhoI9bOJ2oeEwARfiDGO5CMtP+Mukj80MXJBNu21tqdGxVF+zZzZLum6KHfFhstI1jvrhZ0Y921pEDN88i5IGEDB2LNoM/PVtRB3R52XrTNBmr9TfiKvtZfCTetPabVlL74+dy1KzoIi+ZvS9RFG0mWfPbCEdDvHERFhikW8k2CzFmW1wHLkJyZ2+ltEjSm1ig4mXoyQFmzUObA4/+Ne3Enyu9SzZj7JxIuQ8N0Vfy3HoNywj3iE20VE4QgcusQUuJyHXl8XvsfIpfYysJt9voykM5eanYedk03upf2DzbLa9LNor+e5vvsYFAu8fSmYT8/0QjGE9dwacAWfAGXAGnIEPlAFfIHygDevVcgacAWfAGXAG3oYBXyC8DXuOdQacAWfAGXAGPlAGfIHwgTasV8sZcAacAWfAGXgbBnyB8DbsOdYZcAacAWfAGfhAGfAFwgfasF4tZ8AZcAacAWfgbRjwBcLbsOdYZ8AZcAacAWfgA2XAFwgfaMN6tZwBZ8AZcAacgbdhwBcIb8OeY50BZ8AZcAacgQ+UAV8gfKAN69VyBpwBZ8AZcAbehoE6mqNt/Nhu7TirlG1R02NWOL3Zx5ndVGbm3GxmblQZNBnG8hn1w1uJv8Obw5IpG035Un1re9QPTEk9g2yNC9ihe4OS0Nxmp8ZmdoFWl+HbkuUzw1i+hJiSmyof02eylo/JTJUZhnw+DSXChsJqneGdKU2G4H4JzvSleCubyvuy/espXFoeMXO+jneqFndQT7cen7qSdW6tmSVcCxnG8hzsWIsbfuxeX2cqmyNv+D7ubbCmcyl/G5voNvySnTnZQ3SUYFLbb4Mr2cLa+MAeOPLcZPKGzcWlctsHovGNP7+tXO1VK6ZAHiePFclRoSBGozm20Hhm1dKQoGhxe0Vw2ylAy1LwotZereX4otqfPNGF6TM7/WsrR1Q2hYt79ktOAUxyUpAiuJKiDlYPjwWpcQNTSQETM/KpDc5DmYLvLESeC/Ui0txWOo6vg/y0r4ndIKT94RUpc3XcCxbVej6hyqI5KgTJsXb8Tn2fQKTFa0UOXBMlk9RzaZJp8QSOvhMD7UxK1noJ1mRRG2PRigiLqm+1JnZcm6Y0EStgIx0hZkBWn211Es1xq3Y52qq/T/HTq7uht4pcerxRLD76RmZi4jwm4ikpgU3VLQrG+iMstQAAQABJREFUT/g8Xh9X94ZPb46cY+tEdVuHvpmejwhPFIVojuLojr5rz0kqm9QhLaZyJ8I9KNZGG4thUriBInFK+6stwI7abKSHJ6cK+nauoyRh80wYgjWRctpiLf+OVuyi36ZT8fxIEZg6wZomqswAfy552kjh21olGWdEczyTkzfCt6+Jl3Ug8UhYIlGWTGTgYjRHAlrN7fs/9AEuH+mDUXYyJTD80ojeaQOCGT0RR8eZPCmWsOwpwJjylh9d1GmqfbENjvaI4dQMQZ44mRbXdzTzhYiO12J2zKbBx2w/UT//VLhxC+Ol+PqJ4ghZ7Icxvebm1L1tpU5voUemhCxOZOOGombtiSylh3SOlKFxaVA44j0PJ1h13pgazQYJeb802hS2N9hO+h3olBbsESZaPhdNgPgXMMJZdxwYS7zEL+RN1mpDGT409bUb/bzGE8IN+b6evnhHQq0o/atgf0RwtAjfsUk97RhUcN6LLJvYSZIC7eDrPmBld96C7kffUi1hUjCfU9XJeffU+IEjbOamLm5ygTChLrYJ9sx7yyNgyHaUjD5im5qOSY0bRJKJKdhtbI7LUoo30QLPNFH4iHUY/5tGxTsWOgZpbBpygJtwH9vR17kJZaAt+oy9+sB+bgr84G8BBt3B1yaf87dt39izu75xRbDoTg/simAupOCrPvCV0aBNrY22rD3jLvLYaUd37kdDE+YQaOqZN/oESAdHvcB26teKjZ7hT/R39HYoTH1mwkM+TTk6UnnzkRls2deWb7OjWSxwleq089RXK0MDtmiPoc1Wv8n388hP1+aYnRTHAgFc9Hk+wuaUri0hm4uTVjN7fUOZCvc8rU8VPNKbA4V7XmO3aKCWVn0DXL/5RifLhDY+yNcgzzeNzHDGDTZMQGpOwjXXD1dzb+wksdXcZtGA3TuFYZa+oedp08hXvinD73VOeOiUCWnWN8cQsjlEn2w8WDgRTqFdY7jnV8pTfxag4mS1PlK4Z+FKkjhhUC8K93x01RkUdnp7tVP45Wo9XMenrhjf8Q2CvuUqDPKDwu1mJ9GxUbjnnTi9ub1SfUv4kXubjUI2XxW/QbCh4KYwhHKYrLW4vA5htJdriZ39hpDPD+Fb/JuH6+r2gHDPPB5XeitYMllj+0jPBLj2DUKOz3qppz60VV99rbDfeTbbdtvK5mXhWyT6ERpKwz3fhDGhrdMbXX+vkM+dNwjt7c4ZI9eRrB4S7vlW3PB+7jvZW54Ao1nqyHGyX4eQzd13H1Fm6hMc/mLrpdom1yb64FVB7oXjajnhF+/XUnFCTX8jTejJSbxBIH0tzLKvbd+hjieqaVG4Z2Hw9VqfvGt9IYujNlszkuomvfusXujLX1rnrsTwCl9J8PWNsKM2g8T0x7Z4kjZdYfKUSfLspOqluCKsjDB5BUwJTeBqH4PtmVbo18PkAz4TNzbBmt/mR99Ocw2f1DE5mnsZJ4YLj1yGvIkYznIrX8wP9BO9Zot80d8JGdMx4yfINkU9xW8B5F/4T/byJqPUYjkGtNmJ6G4tWu3DM5M3/FBiWJLKHoo/BIcnLW7o11yJ9QjDz8n27xm2X750bTjLc+VTOcOSL6VUNkc+1XcIFgwjq2ELR/YOrgRbag8f+/rRQVm/XEWjyWQtHxWaKDRMri3UmM+HYMEbrnDmC7jUNrpKUkkdS/S6rDPgDDgDzoAz4Ay8xwz4AuE9bjx33RlwBpwBZ8AZeFcM+ALhXTHrep0BZ8AZcAacgfeYAV8gvMeN5647A86AM+AMOAPvigFfILwrZl2vM+AMOAPOgDPwHjPgC4T3uPHcdWfAGXAGnAFn4F0x4AuEd8Ws63UGnAFnwBlwBt5jBnyB8B43nrvuDDgDzoAz4Ay8KwZ8gfCumHW9zoAz4Aw4A87Ae8yALxDe48Zz150BZ8AZcAacgXfFgAINsEllabLNMS0vwRvG8kOwh2DMHnluSjE5OJPv67fyEh2G6euauzZMjp1UT4orwaa4VF/OeYpdsmmyfb1T5X259PoQjOHHsKWbn5qujyeHtbk0xuqcPPcMY/mSfHr/EMwhNrEzlnLtm5zlY7qmygxj+ZTcWLlhyEtSiivBprgceybfl50q78txbbKWj8mMlZm85WMyU2WGsXxKbqz8bTCGJS9N27uLn4itBehgDNxVD+dfKMiLwrsqsEt+UngWhegl0FOM5rhgt6d4f/5ZLOkFQOmJdS+RJaQ1uUIMF62HiJ1w8mmIcsee7yERfGkqBVsKWppGVJSO1fnzqronPAgvbGbw3INThU8O1jqxGyZwTbECpJw+VVPKxiQ/jXBSA+EIm4yfIcJmU9NExk77+FW1TcJvKxjgROrfUKAdhf0mANLu/kR1XegHe4VLVnhxCz4Chxv1oSPVtx/ueeBA014KBXv8uForuBRBohYsJmpkSxgCNoV9/5eelQTJ6alCfYMjMBFpmqNwu/5QEKMtvIgn2baU4zMyZ3X4bYu2aPhBLpfwi3DPW7U9Aa0uhL0r4kddVpychlDPZY8Xti8IwKa+Z/z0I7UOfK4LjhWQimBNMUx1ZHhKtl/+WL5aj2w5tZKedF1MdiGbBGs6Hg18M8Sfyb+zdbf8sXQ8U1/qBmvqypgHlD6VrWNFoiW88HTfGeKPsa2D/6ZfEw9xlHwaxoIYfAlfWo646qX6+QJHmGhsETDJMJb3UMklgduq6rk+Um/mcAQf+kwCab0IBv9jEXTcPO+JiZHTI1n7JFiEodbfEdFOET5+oZGIHmQz35yvASxQ4Eefp8Ju5WOKSc87xpKLH2kMJEWO4ucSDqlPGWOVa7Rt+s/iuIChOm2PLv/QzvNzTUArVfKwaI4X1U7RHDdXv1CrpE28bJ6Kri+/1GckaBmBqCIjKloc+SHRHPeKvLa6+kqKlpoj2lI4RdlK4qBh/+pFE81x3mfVi8XT8UXEFPETOdldK2pkan/eIE4rwua1qreJkSD1kOcnZBUXPUTYzEcxCew1CRVFc1w/TaI5rhSR8aa6I8rmmqFhOTH5kYjmiN2SxOJgq3a5VtTK0kBP8HOtqJNmP8cuk+VJvfA+JJojNX1NpMuMhK178cFBRMVL8XNINMd79fNXwsbhNsOwRLDNpHd5QDTHUy1oWCBcZkdz7Pr07b2e04IEp/f7bXE0xzcaP9L0StdfP9z1FgipRHvOeKfAigdFczwVN+c6vlak1pJRlnoy7IBrF+StT1Nn4PTVKNj6Vv2oxGYcRarqK5RkJBil36T+aQSrfqaFVH40x1V1o/73M/XYEl9Dm8hWUTRHVZCqaVSvzuXjV6MLTAkspD9YEWQ6P+HrG9UOvkI0x5KhvTZTwk2+Zy7pDDgDzoAz4Aw4A+81A75AeK+bz513BpwBZ8AZcAbeDQO+QHg3vLpWZ8AZcAacAWfgvWbAFwjvdfO5886AM+AMOAPOwLthwBcI74ZX1+oMOAPOgDPgDLzXDPgC4b1uPnfeGXAGnAFnwBl4Nwz4AuHd8OpanQFnwBlwBpyB95oBXyC8183nzjsDzoAz4Aw4A++GAV8gvBteXasz4Aw4A86AM/BeM+ALhPe6+dx5Z8AZcAacAWfg3TDgC4R3w6trdQacAWfAGXAG3msGtLlzuqN1Zl3ApEcmLOxIfRCuNmDYkh2pDWN5TkyFtD4luEY2VaDzqfKeWMuPdtwGU5TA2DGFHduMu8bAaR2voMzsAbjGz0ysyXcc007+o+UdoeYixkKImJK4CCggZkD47wB+BtixJmi8jCeGMdu924uXKX5JuC/bv17Cc98w5CUpxZVgsRKxMS+xiazhu7j5hokYw3aRU1eGSe9bGflS4ilO5XMw6EwxUyPBlG3DgivBgjN5y6ds9MthvsTemKzZz7VtOnLlzecUV4JN/SvB9e2iJzcd6muqf3t//rmu5x8OAzRRoDRQPpwpQiFRv4qjOT5SREci1WHWXmDU1V6o/e7006p6INDOuOCwFpKTr3uL5khkvJJgRPhHxMAQScu0j9sOHDGpE92wqRd1FE5+r7bSRfkA3iuoozkqzGFXTzDQfpg3bYkCpFhkxWZx0dPdCidnbTTH4Kv8Hehu1DQnNX6l4JMKQTIR/Gigx6zKP3Br8bpTIKSltCKao6Iittbl8/pYca0UHqYJ1tTe7ehrihUhUREkCSdTFs1R8bM2W0V0VPy2YwX86vWfyTrWTpwQQZQ+OLm4aBxM3FZUOoJ2KVm0wnAxJhpu2AdR4oisqJhx226QICTGfGWiJZrjhgAyioBzrkBq29026DGtljfPvxXU+Ub9Gh07tetI7xnp86ZA9up6EigqNyF5qqiIRJGkVtHmOH6szo8U6OlB/malxC9wCr1WjbMz1EZExdNVdzo4X6+rT+R7N5rjEEsJyMeS36hqd4kfJt3WrVt3rhhhieb4oCFH/8fUFbPSJkcfIk/AqU3pG7kJyQvhsLXRYb5ZPtTT6kbmU33MhVBL9dCznyU20M3T8pn8beN0UjqdGHWeSh6bDT8d8da/tJjS52oZMBbN0e6nPlqZ5eAYwc7oQboYt2nSMU/1faYAfMSgnfaqi+UK2Wd1NEd4ybHZaomWtut7IvmlrtSaW8nhGQOBIrCthC1dIIRQyDIHtjORDq0MSlZEbiMy44CmcdqCAibLB0X8C7mwvbr2at61yUOiyGtVsDkrGV3Cxva26x+uye+9Dhnv6k+u4p26HkyayLOgmEjDGutx1mIt2MGP0TRE4fg+LJyoKzanfRyqVIfV4gC7Y2lorS7RE7ImemA4El7q230P9iwQJNuWy67qGNpmz3C0nJigo7075QwxQ+9SLa0tleqCMNphYVHEjwZ52XqAo5EBPrXXPdcCfBUneLCjk24X0Fwh+6BB4aEXRbAR6J0wCWxli5xJ+j74i200zXNkqvZaWGzXu4At8RWb9/L1Tm25vECIvtAunN0pKh7LIfAlNvH5XvXEZlaqKSA7EQamwHb6x4QijVZBPr39INu3OtY6llKsZ5RngTBts6uLK7rpVnmwtWQouR9sypJGrLBASW6NnppP4MAwYhElcTBydV3s6EIHo8DNjEwKoOX6sTjpsZqRZHkqde+gA5tEgRz4GlRYzcJF84EW7GjmaxYI45INJJyAY6TSV+rqWo0zbrOLSa+w+Ua4bi1qCT0LpL4f1PFaCHKiOs7b7GuO2rbrzLCwONAkPSDru8cV2NIFAm7seKixOzMBNraSk5W+MUZcvzKJUP+UgYBvCzzUd6/jk9OXmbrGP74BghvQPwLC1r0ey87DL1/vr6KOmfrGGulT3OjrsV5aCDMjP7Su4fb+XMebqGMoMFEiHHb0DTJgpzrhKHpV7bT42mGzJIkf3hyECZuF4hK3vMHRIi1dCuzF0+5B2MyuwAT98HASwkRjtyQpEHbw8J5FMSNvQbrfHVfgShYITJzrYEeDkBZtJRMgQ8/R5r662zFcL/uKLd4A8O2fSfpW3BwS7nm921Q3hYsZbN9qQQJueYHQkh6bnG+5GmyFL+EHLafrh4BrNS6fYfNIAzELhDeMJcsQDcosYLod9EbX4HP6AwP7meI9Iz/2BmHKBSyCxccr2ZufGLpawL4RBhw6chM4Jj9svdZFiU385N0eo2xOYjFAaGlsWqKMAOfT74W6LcYbBGQ1gxX5CieahQJu/GuRBEYSvnLQc17JYgk/qLsUAlxaZ8pD6lbNSkP7nQgBN9/rGS+1iSK9LZvQ3pgZOwGjA2wx/i2xh9rD3+YYq9NYWYrhfCmZfF/Oykt0GKava+7aMDl2Uj0prgSb4lJ9Oecpdsmmyfb1TpX35eza5JfsmbzlKe5QrOnKzc2O2c7FmVzptBlxZs2sm7a5PMWU4NCZYuds9O+luENt9nUuXZfaHPMr1fFD20v1pXbG/Ehl++cptn9v7jrFldhMcXP67Z7J27XlU+V2P81N1vL03ty5yVs+J9u/ZxjL+/fnrt8GY1jy0nTIoqLUhss7A86AM+AMOAPOwHvGgC8Q3rMGc3edAWfAGXAGnIFfBgO+QPhlsOw2nAFnwBlwBpyB94wBXyC8Zw3m7joDzoAz4Aw4A78MBnyB8Mtg2W04A86AM+AMOAPvGQO+QHjPGszddQacAWfAGXAGfhkMsJeGp3fNAHsb8G/5F/8lqv6V6559FHLlU8fB1jjy7FTjkA8+lvxjGMmazWx72DFfrZ4LNvGrqE4lzrisM+AMOAPOwBgDvkAYY+WHLGMTorM/rl1WtGUz57NJEyebOh2dS+oiQz5VJixbUa8/0WRauMUJm0Fpo6Rqw+ZVC5N1apJ/xX7K1tI6ShILBG2drJ2OtAFSzkZJ2gzn7KeyUOJbiUMu6ww4A86AM9BnYLvSjmuliW1uK7bXBTuxze64Tk0MAafJCOzihNnTErDsX9WfAGcmDvPV8pIJEP8amzM2zE2zYftdcb29qDa/+duSUN2zE7ZK5E2xYiMciEPDIVh26zsURy3zsZJmEVPXj53o2E0x981ClGcHO+2Fl/E2ImV/rd3s6PNhB9DCRUrcoTBv5zzagMQOg+BIk/ENwt3hB9sjmc3h3WGJ2SK383Kb0c8H+VyyPVO0p53eArcp40M/08UhkmxZTP+xfAwxVQaGoySZTXZSzLXJO8P+SEUZI+7SVwV8A8tohzx5bsJX9LNbYK4t0w3WbPZ9N5mxHJzZsnxMbqyMdgTDkZN4P9qXxdd+2ZyutJ7jbYFXw9S2SbvV8lBqWGL8EMeDvVHHbQ5xVgKGAz2W7Nw8tWu7Hzlh98+4PXSRzVrp9vJP/qXhRD3x8DTu6f5OAZDWbEGswdYc1ChqvoW8KU+rpW/I7P0ftnhuBaJ8F97oMrt7BSNa3XzflNvJqme3Kceu7u31jXzFgJvEnTCdJmsuti4JywJBAX72t9iMdwa4WkH0QZijU81jegOQ+rTyFzUNz291EjsIk/WZgoyd/ejPapto21w13rP2s5zpNiRlW7XNTlsXhwVu2j4S6Mu31xpsCWSkADv399O7vU/1wRMFP7oNW0J3/Uv9wr/UHhPnVoGBKLvXArWddPs6QCrVdTEdJwqGdhO2sI63rbwvF+8qiJVsPSbolvT8iU9+VRMgQws+1dxFwcblfvlGkkcKaHUdtoVGuOdno6Y5CXVD7ExbbrPVcrv1cA9rtns6t3o2sXvDAl55U8eez225KVKAKNX3DTFWAtLKLe/Zr12mTc60BfpO17fip9Xbkzc1yhnQf7pnA2BkIuLPEfdkfaLJe2wj7K4ubD1SPW91PIRb3futqVjeXsfFwZFsXukLkflqeSs31EcJWwm/1hRGndPU4rvlJnOi/sMkxMbrJtv0lXGIJCMPbJ38qiMTL0xP60r06hPZYgFk6Vck8Jf1p8ht/SxYueEaP+obfNXQxvQVI/vYxNmR7/ilYFZaul2phky8aWp8NaP1TYUqCSVse0zQpFfCtrIjz5kpre0i+1TWvu152uroOmjlbF9+IV9hGH+H9WxxhjHTzVjxW//xP63db24NT1o98R7aQkP01fYFh6rmSvra5mTz7pX78/Y+yGYcX9Xy6oYMCEVumPAhnhyKPRRHK4D9JfgqE/sdxKrDK7LiJ2/+fvX88m9rgWCLr1gHHkZS+4DX5ZRpkmehGCajeiAxOcNZYzXl4MIgyzdzLYabyRMrpKjfgu/0mdjIv92eyajrX3PNLKDUxcVYDJTFb/NBRJCurPlo/SteM+FrMaNJ15Lt4N5fxNg1cR+enOhPWtL/SjFSbLJu9Pd8b8prf9iDf7NW3IEQFwGrPT9rufbBqAdlxTbYMukKZ5OR6W75MN66OhnsViE2QhymTd7wVnero93HNybO+9CX0snB9NviqNbQ+E5QK2mXmPGDhNmz3OySE2brX3v1TfVvffnPJFgPz9LRb+0U83bnsQ5vp+OPCjqjLn2RwK35379p5f8881+yT5PmJm8MyFEQNj0Q9aA3uPtBF7RDxnw1ITNXFk21LIuDy39c7b/9eyqySWzeUhhYNbhXmgCrEACpxK7WiVutiZNvq0vW4n3hmmiOxEgrsSlX9Q15l3xbzbW55k0Sk3WYyJZthrcGj76ojs8+ra6vvqnefPsPqhe3vytz4iukbqdvNdblyo6OzhSsiTcImlQa8XjSytfqkklurW+cHHd3hN+JyXKTNoX98mPZvLuzmGpit7HbIjlLJxhEjuow2PedYE1dcGOrKea7wqrqv0GY8i3MdthS3f7FT/QdTLPfP/n+9+tIkGiPihs7KompNlhnhF0+lr/XesOSphbXONjcDtpl71z9gLcAFqypxZjouA9H9RuE6wPeIDxSf7+q3yCYlem6moTeIOiZ5vvYbb244E7r77COt+Llj9/1nqmw4BjKmhXP34KBwO1b4N85tO0t79zUrIF8P3ozl4BMTkm3n7ZjnTzfWNR1KA402FJ7hiM/FJuLk3+7epDUomD/3f9Z7f7J74hThZvOSsJv9CcKXvde/ULuDl8KTavRt86zz6vd9beiqf32OC1vd4Q74geRGvxuvlOeW1fwem119qzavfnalOXlepDX+nMRi4MdUSsz2mWvb5mnP/mz1ZNnv1G9/OofVi9f/OPqOvTVPJNMQGdnn2iyvtIiQfwUVHOjye9oc1K9udHLwSJ+9Apd9by+fRUm3zxP6eV7TfL64ajSjRaKYy8Hp3SxQDjXD0BfZ0Zpxdap6vbFudpRHP3+qy/DhN19CTplLZYTDfJcf9b4XtyW4LD9VPV8pWiXtkCYtxTvMgqcapLnG/0lETb1X5vS87Y0PXsqX7/tLWbS+2Pn2HyshRTvOl43b0rGJNsywvP+G3fqaywo9KbE0ztgoP88/pFfJLwDDn5IlT0+kwWCHqzdm2r/s/8lhNadnSjUCLtj/aWKwSvjB1+p//z+YM83Mg0mszZSUH2+18S5uiUoKI9rZpKve33LJa0YFJbHj0Sxvtfx+4UQ7jkpHjulY+ob/OqLf6deZGGQtwGyXbJA0N8n+RtlwBQuECJOWP6pZHaS39gzX3sdZF6NyDRf5wW7d+EKHN/+17zSzWkUDc36vQF/UuBPDKtw2NuDrvqxK/4EsFIdOdbrgv4jZfwGIeBCnuNr68FabQieyTA3IQuOFGxn8RO1M1lGm3kTktkCR83AMuF3J92oe+oT+UNwZjvaK+FHPUf9NB5lvlIHw07VZ6wc78CRWJjk9AK+ar04Oa3+/qefVS/0xoIjr1WCmdBjTsWt3q9oARXLcj83cpBfsVzT73NBtdyZ6geu0GR1JEPYuhGwxCayZ/q4yjSIGNz+ST3Hv3J7X316zxgiu/L7fz47qS6VL/HMfZbg/EKkxFds6+tbCOUdraogI5nPR+L1dWb/SdU+1tvWV+oLJQmb53U7slidqyeyp/r4S9c3AWN22plECqqHN9Xun/1P+hmrvoXOOSNn7y9+Wm30zbHsX0Go0x09rnZM2Fc/n7dhHib57uKPVevLn6mE6mQmXmOfPhNEPywq/YbMwH72WbW6+lLG5ujVbemvTj6vNp/9RY0kTH6enAFn4GNmYKPB+ffOz6v/9enj6u9df1/93etXYXGRywkT0Gf6MnWpL2G30pWbkGSSP9fxQm8vSqYVsD/S2w5wpRPgE9nD1kv5WmKTkfVH+vgys4r4pX/MXf372131b393VX3Kn3Fkm38w/d+en1U/k/9LXx34geNzzSN/qHG9xFds/1TMvBAq/sxVBRmJqrGweKR54kvNKyU2Uf+reiv8+3w5yrBlIvj6hfoOv9L5esEmss/Ubv/uze3EAiFoVSvZN8KFBUKUYyIsqaqqF/QLx7fqORvBn96H+VZCExM3uJBjk+6YmfCvsbmAMzuZql3MGXAGPnwGeHN1pLGBX/if6Wi/kS3XnUH7VJh7HSw2chOSGunCgc3CETrYBIf93GQ2sVVqk5EVf88yqxh4kTzfxtO6BT0qw37OAuFU8whvEVIdupxN0Ta4srakamBoT/ISmzhkuEyKQh2s/7BAWLJpsv1ZrtTPYNg/nAFnwBlwBpwBZ+DDZsAXCB92+3rtnAFnwBlwBpyBgxjwBcJBtDnIGXAGnAFnwBn4sBnwBcKH3b5eO2fAGXAGnAFn4CAGfIFwEG0OcgacAWfAGXAGPmwGfIHwYbev184ZcAacAWfAGTiIAV8gHESbg5wBZ8AZcAacgQ+bAV8gfNjt67VzBpwBZ8AZcAYOYmC4bwcb/nDMJZOxfE62c0/bPBhmyUYHV18YVhtNZCfDWL60I2JfsTa2iHz0t5DoCQb9fb+S+vbExy9N3myOS42XgkmOcaGR0hoDp+BLk9kswRnG8hxs8M38q30NZRFsd6ZUxQh82slTmDQa35R8Ws6ms+G/xF56f/S87i4NtqDPGga9nJemFL+E7cv2r5fw3DcMeUlKcSVYrETsofykuIXnuq5QtAkuHjn1TGXtnDw3pZg5XP9eilsYyQeuGBZcCRacyVs+UD5RQAuU2DPZfr1Rb/eWWtXkyEtSiivBGj+GL7GJrOHG6jylyzCWT8ml+vsynQXCXjsH3j/6iSICKniPJtJJkjUZ3j/6UbVXJLZVEla2VR6rMcTrsd4+qnbChQiHCzsptviob3f+ef105tIkOQZ1BcwJkzwBcIp2UpQHJ8+0/z/x32tvJk2rGY60pXOjX4LEZlAEwmrFPmGTwJY2ZOBU8R9CEj99DhLheNqo1e5cinQYdqdksZKkeR3CyU9wqw3doZVOVITT9o4Z1X74p2x6atd9RPe6wcu/DQGpQrAmuJlP4IjAuJGfRFXcHj2qjk+fyuXlF2Bmk0XBMfFD2K60Ez9k3neiL67Fy5bYD/V/XW/n8WfyFZwtSsyfVsc4/oh+IKGt6mttMhUJMuUfW2e058xiJvWBifZEdcMOoaUfqe+djD7T5kXruTU7sRROtjGsearbJMfKuIftC227ThyH6WBNkZ9UByUn2jo2KxZDQ2+r5wmRMmf4Mb9j3iioHokjgjWddJ7LrnR69SAbjxSdldgN5M/oR834kEi2JpLC2KpPhTtWWOs76UojfnYERy6OZYftlvmvfUomDCV4JJ5RP4G6o4jav4E3Jw2Skkeyhy3iJLQ2G5FwkrZjvBNjRTwf3ugA09v4xbbF7IKY7piIzS9UDk9mP8WlCnmqnkoOlk02vT92ji5s/0if1HEYEm/IC3rgjTuKtSufd9VWF/M2h3p+XI9Z3JmqE7Ziing+n+mZZidFzboNbgxPrI9P1MeIGpOmzgKB2Ombm5eKxUBUv5kqyOheEdE21y+1QCjbkXp/JHnFKlhjZ85G6mV9vtJgsrpRnIheJcYq3MDxlQvlK0XVayfwRqI+6RITCuXffqXo8cRwMHpHxKICdZ19OvDIK0Wa218Lu64jPNaWpjMpJ44DPt98H/iZNFcraeuu4VaTyp4ofp0JUJfTBnVHd2UvRnOc42dMiYYfDbYPmZEDGw3qZ7T9LiwQ3qi4rUUj0zshmuMuRP3T3uIKunWvAForQmNnJibojQboe0WP3EnXME2ztFG77hVU6pZohWMD/FBZU7LRpHKrMNFMhvlJ0nCkdBtCaUd+llmCSQ3S4uUmM1ph8GuzDyGeeVLA3apdcmxZfVggAHgziKxoEuM5to800V8ppPXUAmHMD5h5UKAeJlvCNlPnkrTdrRWRcTi8d3V024srrLBAuMqM5sgWyTeKacBCgfxSOAv41LUVr/q1YDI60uKAWAzoyk1Ingr3IH6+PyAWw4n6Ojjs5yZsIs+s8Z18nZk9BiqpNxPud5lVxM6DWkOB2zs+Uv6dyjUrdRYOKh4kYjFgF9llX1vHsHFS2xjOfP0WrM2qGA2aDUIgq2/0vKSS6XmNGGRslfyNnpXWk4HIoABfYYrR7uVSLAY5QT+Ny4jWSmeBQDVWeliZ2GYnbyZbHkxi1RcuEKq1MBCEHQaWgoStgCuhickPH8mDzZzmqJ3CP7Cqa+xOM86anVSkKcudyNQwwSYhYmUzg5+2KTXcatDbh7qOTYCpY+l5xLHMBT+9gEoxdq61erC5NNiafJ2rIxou2Ow8Lj1Zg2hw3cMnWA2YLC5KvlEx4bIwiEeZv/TX3SpiSxcIO3zVYRP+eO26paphtVvHNnwQtmQCRJY3AeByErYeJE+Oj5yX2sROxDG85D9fZhvs1AJhrA70+a0w2Lqv8zG5qTIGQnAlCZtM0iwQyHNqafJgwfEWoH1el63jITo4wOYmJInmyCR4J4sloyxYnixGvBKGwIHBluU6zUpwCUYzQlbCL/Ovz4rpWRpxzV9sLvPTtjZPFUtSzWLBBxzu+0BZPyHDIihE2BR22WZXA/audeTYMiQ8gWO0AztnE1mCXfX19xYIkggJQlpS6sIkm7uXiPmpM+AMOAPOgDPwgTAwNvONlc1VF/lSDPpKMSZv9ux6zDeT6d+bW1T0Zf3aGXAGnAFnwBlwBj4SBnyB8JE0tFfTGXAGnAFnwBkoYcAXCCVsuawz4Aw4A86AM/CRMOALhI+kob2azoAz4Aw4A85ACQO+QChhy2WdAWfAGXAGnIGPhAFfIHwkDe3VdAacAWfAGXAGShjwBUIJWy7rDDgDzoAz4Ax8JAz4AuEjaWivpjPgDDgDzoAzUMKALxBK2HJZZ8AZcAacAWfgI2FgZCdFNlu0Y4oFu2/5lFy/3OTTvC8zd30ILsVwXpJS7BLOZPtyU+V9Oa5NNs3H5MbKUgznuelQnOk3vF3n5IaxPBeTypVgwSFPKsVFVPwEO7cfWSrr53MMpK2Qns9h7F4qz/khqRRnNi3Psdm3UYJFv8lbnmNzDNf3Y06P2bJ8Tja9Z/Jpnt5fOjfckhz352TtHvlcSuWWZFM9PxSuxCb2U7upP3PnKcbOp+Sn7vcWCNrHnUhw7N48FwdA+5jvJbfbaofnPbtf1wkrStNDqPYiF45AT0R1LNv3XyQpGiP4SFcwtfwRfFXcL/Zef6Be0btpHxOVyG4UbZAokDO1Cgj0I5smIvGBXffKU5nOufZ4J4qf2Zxrg9BlUjBYhREBm7kPf0SDE0a2Yr7MTCuh3fAJvNWvd+pWOK87hpVrX/k1QakUQCS0yxK3wu0VC2ElPomLQERH8GmwptYnM9LNiTOwXh8pYJP4xe4g9XxM7m/ANdglSzWwVkewJrDEkMhN7NgPDksPwrbxDZZ1IEtkxhgFMseigh7BZ+hrijSnc+y3Npd1EKxpqwBRR8FnvF72E63YIVjTsbBTsRjG2Eb7sXAEazoRtuNrhukj+Us0yJgyAMFXIkiuQ0yFB8UtyXn1qsgowUdk8fUUnurxpzY+mxEh40TyxEYwb2cByU1wpzqI6Jjjq0Fhw3Dsz5+baEtGSWzdqNEUS2s0jbUnZYyQjOw5Cb+wBSepPs4pR880X9Ex4lQQAEmzUNCR6lHRZMI2URmvdSQz36S83cDqo8ARNvP6jz1H+IbNC0XHmKDVzHRyIjQSxZH4EbcK3jXXD6jXI41RfR66CwR1pp3C0yoCk46+aGJbk+Hu6EyBk9QUBPjppbYS7VkUUTdigaDBfXekKH56YEgzliKspiUsEEIo5L7eWqyXBb1M3EzS5ArWY8ayNOCfIkgStrkB9mxYI4YJADsNb7KgATNg18T/yknCaAKrtIAKPje6pq23PUaNS7TLrQJtUdfR1K119Akck7UmXoJSJTZHVYRC06NOJ3934JXy6ihB+Qcutr/pohwt43r2Cl7EwiAE+gqTdXeBYOApH1ggbBR5cr8XbjXss9Fy+9nqsYXFUbUNi4v2Tiuts6QaaflWvoKzYE054VYYbMFh6WEzDIA09KA1bguEI+GnUooPk3TglQFkHSZ5cKnMkp61+syRwmgfhwXClPSwPNomnLEWJRZLuK1KD9De4IxFBZPt3b63QOg53rsMOsGeZIQK7zmgRYmCdqltdpr9Bnpb9xrYVnU6gtXAz7o6lc247GtE6pMRsO5gxRYlxPEb2OyrabTFhQWjDpN9f2KY04Mn4DS6jwRrGvcTs3hnts4ltp4zEvxsdSF6pg8md0tzcEY3bDB59evGRJpOwFN6wNpiIupo/TEfLE91YJuFBXaWR5GogWce7WDAXjD+mfLM/FyYR0JFL+Nn6teYGnx9JBwLhHv1gzl5PLyQXH986i4QpGx79XOFq1oO98y3v82br4ujOe6PtA7SRLa5+kU9QYxVbaJMA9AaXE3ThFS3WHUKixjlqxBCeY6mLpQJLHzxe/NCNxZwwY7Emm+Kkr/XIgis3iBMd7/UpqT4Zq2Jei9ubQGFxDJeEmqTnUJwl75BiAsDYQlrrY60WNfGZXU6cfRASOuSBEc6csM9U3fCPT+ITzAPCtl8q7ZM3yAsmQ9vEOQrIZvRUZJYWDxoEXR9c6n6LvSDnuKVRsrru0v5v9yCBuVh3R3xWOvb2B1x2GqbGaaDrHy8Ekc5CVtEb3wg0qXa5Eoc3yoiaGMzQwlvEJg4L4UtwWGb6f0yhPEu4UdDlHxmgXBJRFn9V5KYsL8nsmtWirrxjoUBURlLwj1fyU+iMYJ5qTeYRyP9Z6rmDPAEBibc8y3PTGZCksn6Vsc3B4R73mr2+lrjGfZzEzYtMuK38rVkAoRh5F9kVhG/9DUoRB+MT4kulIC/EF8/1zH9BiGIhkiXYJGNvub1IWyj+2uhSt8gXMhDvXevvtI4XcIPHvNe70vhMikCEtqPt0/Uk1DRczapF0Hp+ToSmVSm1F0gUKKHvTm4nkq5ch28qpfiOC9Jhi2iSQbMTsDndYTgltkL+Ayc2WnqJIzpaMrmToyfUhw6wda4In4MZzaVZycw9ZGNqQUNRx465bSC4FFHTlOCrksna3w9BBcw8vEgLDjqFyoxXcf+nYCBGXwuAEfpcozZPxR/CA6bLc48yMtbXDzLQ0Wp2OMKG0TQiGvzJZsmjxznjHZjVsfKwJBMR8lIqSe6sQWuFGu+Yj83mU2zV2LT7JVgkB3jLdd+KldiFz5S7C+Dn9QmPJckfE3bZg47xsNY2ZwOv+cMOAPOgDPgDDgDHwEDvkD4CBrZq+gMOAPOgDPgDJQy4AuEUsZc3hlwBpwBZ8AZ+AgY8AXCR9DIXkVnwBlwBpwBZ6CUAV8glDLm8s6AM+AMOAPOwEfAgC8QPoJG9io6A86AM+AMOAOlDPgCoZQxl3cGnAFnwBlwBj4CBgb7IIQd38KmHDP/4lL3kWtlc5lqcQFb9O/19e85zWYJzjDK2ZynLBXUcUJ/GUe1j+ZzST0l2/BTVM+6jjW+jJ+0TQqQdf0afzOgJpvmJe2Z4jgvSSm2BIfsIVi1SMAZ/lCbOTizlfpZzE/a93KM1jJ927lQWi/4W+e5OJOzutp1Tt7abNtmCdfYSfv7Eii539is8cmt2dOAk0SDn5Xu3mww2Ozemr16G5sojnZnTTQ3zdbY82+cL/kedcQ6Lsk2hs1P+nv4L70zf97YC7yWcYvm2N/LcMFm3Y5L/ppsvxaDBcJ2qyJtfdpsLtRHBG+175LkNjpWBTvE0Q32wuxq7KyNEbvg1jpidxoRGCvSjmDYZHvf1QP1GtteYwyoMm1yBHYVbC7g2EkxyLW62OQm8KkdIPOSmmkT7QWfBxsvzWnR7mWyD0fat3ZOsHcv4sIujKX8aKuSUL9evXsGhpfqtOC0yZt27oKbZX/3O2xpe92NDnLhS3dSBLNX38ZuSdqoTbYc4oc2LUnY3O6wyyOYl3iYwZG0X6DYybeJrNnMsRZsqW4bcbpq2oWNc/NthlgM1FPcluCsnlvF2ZiKxTBWB5gM8SZ4vrQtfIlN9AV+wv5yY9rHy8wmW9Fu1Rez2BGfjJE8l+TBbkH/oZuGeup5Lus/wgVuxM9BOylqS2jhSh6TwI9s8kp6q3qXvJqGy60+tpmPSOBFmPVWbd/jM3CsLa2XdlLk6WJ3Qnpsia/RNqOWbXssRRkp8IM9zRPbhV0Nx9TBzVbbmWdSFFQEX9V3Ir/LOynSbv20+jN/7Xf1nKoz6N4zbcb8X/9Hu+ridCjYB1bs9b7XlrUjSgeyaYHtLFi43W1QgU1tA1uc1CAhacvSsiRqtW/7WLyJMT0vL1fVf/LX19Ur7bB8J2r+vT+/r/7Dv8jmrDRRZqLDwxFxIwoTwYzYkliNUoRku2Qm6X0xP7iq7T8P8bVe/OxZWGWmDVt0ayvqh/vr6kHb85amGKRJC8bCPhsHIfjJ99V8W6vv7Q7h9QB+Wpva+rjAV+p3RswRdZs3DwpDU8qP+g46Smyar2GbZvla1mPV72SPp6pkYdHa1PazhXUEyxbNpBKbZ3o+CNL0Rn3gunRlKlubwCtLqbKEp/h7SD1ZXIArtRlHERa15YkJu2QDdGw9VSUv/pv/rjr9H/+GgnMcVw+fPKl+73/469X98+eLDsAPs0KJTVNKlBNwh/CD34faPGDm00Im+pnTJptXr6pf+w/+arV9QXgAPGURVSeeF74p/cZv/Fr1KMbesVueZzLw8lIcrv+ppPWNSIPB8+efVX/q1z/NRLuYM+AMOAPOQBEDLAbqhddGi7E/8eu/XmngLVLhwjUDl0xgWjYli+e4TEgYur8v/5aUwD/q0/v77jqNRYInZ8AZcAacgXfEQH+MvT/k+/k78u19UzvC3WCB8L7Vyf11BpwBZ8AZcAacgR+egc4Cgb/rHR93in54ix+wxuNj/qrVpg2vazw5A86AM+AMvBsG+mOsfovg6UAG4E5rgDQ1P1Lkh3Qnq6vqX3/yNxWzXL+yCz8BSkWTc/2NYnf6abW6e6V/xdB9rZ5IjZzqhy+bUx3H1frm+4EzI4BO0R6b19+qrODnIfzY5vhR+LvK6v5K2C4BHQP9C34odvxYwcexuYTbVzf7i+r/+P4vK3b7iX7ItK3+xOnfrX799H8XlJ+1ZCb90HClH4ztb14V8qNfDh8/0W84X6uuJX/aUMurTfih4q6UH3GyEbcPt/rbVVHi191n+lOXfqvxQBT5JW5pPv149umvVecXP64uv/v96urVHwSf883uq6Oj8+r+/jbYzcfxe52NfltypB+eLjwXI0qPj86EK/3hn37trGeE9P+z966xtiTXeVjt9z7P+5y58x7SJMWIpEiJph6gkUiBZEEK/FCCJAIt5IcSKwkQIXDk5FeCJICRxEGcXzESJHGUP7YFA3FgC5ZC2TKs2LRC0jYpkyJpUaQ5w8fMvTP3fc9zP/N9Vb26q6tfVfvMoXzOXXXv3tVdvb61Vn1VXVXd55xai0h+xDR/dW88nJhT2IxJ/FW0Mer26v6L4GVtXgOvy6R7mr8M14eOIX7B8RTWu9tS/OJdvI16nuIXj1N+8Y/4EX8THIPZCX7ZOd6is7wzGJnDZdqvfNFX/sIh/TxFX4yxyV+9fPd427yC+/n1+bF5DZ9+FNL5SZu7sEl7C9hNSSM+7MHWQaSvoptWrgD7hOOmFEbklN0CjrwcARvDj6il7D6+HkUatLaA+SODtfnQP/q8eekLX7I/Oz+eTMxf+OP/mnm4tdX5lwn85bsd1PAhPE3xlbavAXcAVMoPM4jDqG4m+DxK6gUAIt1AO97HfRZJkcVQFjOC/WuUgw6blN2Zzcx/+qu/ZvaOMc6hLZnyX1Lk24PT0xPz67/+62Y9w4TIybEpscPuvWgGR3exQEi50dDpRnv4Uzz8NvrRW+02amyv9l4w/Sdv4koCTfB1Pb1uJ83e6aO84jXqq0VskO1nTO/wNq51dCPeiNNnzNbH/nXTG6N+uLG//vWvmy9/9a9jBMVviEcl1Au/pd/DomR99HYiP1ggbD1jVicPUNe0RVt/hD9f4W/bp/IDToZb183i+F5U7XIhDCDDCbouJ4bISZd/KXHj+R8w+ze+xzy480Xz8O0vJ/+Z43R61cyxgFol/gXNABPKEIuoEyxqeZ+kpC3U82T2xE6+sTgOzRP+VQESJ/qUIYyyO+NdcwCbMYm2puhzH332g3by+9xbv2tmaJcUm/xLhG0sSh7Pj5JwtH0VC8UnWFikLBB490+xIOEk+AQLqBRfyck1+PpgkfZXMLS5D5sL+HyEvhjTCzip/+DWFfOR6a75/PET809OHts/P6QPMYnL/Juw+QT38xy6YpPlB9zs4HMXP6NvGckrKom9hd9gJy7tMYOTvPuTwQfwNcUmubyFr9uRVaRfV/C5hj9zfPF4bl7iWwTYnmGC++QnP2nexHHXu1s+st1AW76BlkzxlbZfBDN3gUqb+YzBqG62MU/c5uIWelLSy/iLwW9v8GeOz6LvcDa412GT9cIsaX7x9NTsgT9J+QKBBRz8JliF2Qmta4EAucEKT56rrqYQU8y5QMDTNW5QYlsXIT4sO17BZn/OgTOyJxFnFwioEyfwHm0Wlc/UNmdcIMBmb0mbHTjoB3mWQ1HIHzFMp8AmLxCwzkzmBzflFNxinZq+QAA/XCCk8gNOhrC5WJOfhGQXCPAVfWe1YFt2cAsJLhAmk7GZjEc2J6+p+yBM4etgwL8wSVn78+GECwRyxDct3b76TEzRJ9BpN14g9OBqygRI2ckYbQKbMUkWCGNwy0mavPbRLik2uUCY4J6eDvhkHc8PbXMhNF/yTyTj72lKcoHAP8ebL/lMHm+TnFhfF2kY2pzQJnxeJSwQxuhzQ/SB8XqGO3OavECgzTkG+UEqPxzL8ZlusECYYIFAHCeN2GT5gT1OfFP4mjIBsiUm+Ir563r6Q79wV2FfCSx+ZrTsHohk/ppG7IPABQKf5nFHJ/nqbHOU7d5rASbyZPlhf8c8Me2YrHOQdzDBAmG6wQJhki0QumzaeqHdekdYOHt9LaUdPXf1UBlQBpQBZUAZUAYuMwO6QLjMrat1UwaUAWVAGVAGNmRAFwgbEqcwZUAZUAaUAWXgMjOgC4TL3LpaN2VAGVAGlAFlYEMGdIGwIXEKUwaUAWVAGVAGLjMDukC4zK2rdVMGlAFlQBlQBjZkQBcIGxKnMGVAGVAGlAFl4DIzUNoHwVaUf8/PT1uyMvjLzhjZkh7BZHnpWsQJ/z7T+oY8NuW+EpuAs/ozTAzO+hbqT8CH9qzNUF9bpT1bMf7mqjIc/kY3nR8q2QCX1y0Bm2N8m8BHJ8r6nzKwTRP/Xp9Yl5dxXWcOlYYVDHWfxWaXb6Lft+HbjsH7Onw9MVhnS5hta4GyNr8Vnc30PQ3irTnbZZtlf5rOBMPrcpxi18ecBXcWbFPdwvLQ1xSbPj+itw3P2UnsibzkLOf1rh4hOjpmOlGb5z4uBSt+EZOCE8OCa+NFZCUXjORSXpc3yZQXCNjwZIntjLErDBj2Xi5UvMImGhPsZYVNGHo1m870bPPVuYHbebRjVtwtkDsw+jbqxIOy9QR7UdktZFmdyIQFwhq72dmFBTbyyDdKqtSprM92MMpzq+VlxBa7XIhQNu+aMMDNdWjb2yip2nEDR7D1bA8cGewuF8VPDscmF9j2uM/2sIuocn3cWS7sXcSmJtiCmBsl5Rx5V+sO/Tr0h9vYbpnbJTPV6XdXSt+Y7AfA9bD5B7d4LjhzUr5+wXGjpD77DfwcIB+irr0sZrnI1Oa5S9i90W7vzOiwKdvzwldslDRAu4yX9LfOu1rLtnCMHRhXw2W+UVIMmpPemHW1Grq3AfJ1UnoC7HLQthlUTgosuZ0UuV0y71vuqsiNj7qtFnUegJNpf2wW2ITK96WQqD+ytrHNM7auyvmplyyX0vsJ+gE3SuJ2xs7XrE5F1cqg7Iz+bXHzoX7KbqOuZ29jd1S0pK1jUz39cu6kOAWXlh/k3DaZPscm8rMDHK3Pe7DbUTfR6/jpmW3YmsGcN5KLSJaXFdIzluxaXPMoHiixp4LjZsDcLqvJZp1W2t3DV+vm4J6rHP050nIzct8O9WC0hR7cs8jbEjdK2occR3ZfRxuG+mn7CnDss213WKiH7nNr5y3guE9prc2sjrTjUlHpqxjTT2zvk2vdOX29nm2URHuiV3JfA++jqzAX+lVeIPiIwje/1B2XrpVOqrLvSIlvwz/uUF4nWldm1dRdIJV15U12Y2TbZNquNdlsK3+n9bXZ2uBag3thcd2gYtslFGxxoRB1R8W5A9XdNCV1IaB08SwnXYp5PfOuQVSKu3urSHb7WyfZyVG32hqJOks1Yq1F8TqcJKdel7rrJJKtDnxXLoaedPue5laoX87fSTuiM82zNGnaEDtNvsv1FM2CCfMmGym6fVnRL2Vn0S+6mIseKRP9LucoW71SXiBglTLgXv5zxiwI1xKeOsit8TRG2eRYDHgKw/68pk87bTY8c3K44lNnbbAmqbpIejlWUHZdBJ97qQGi6B+ejAxxOb2ebv8Q+t2aVkiGT3wLQGxfnrCLjutDi2NgB5DFk4cL1tTSBgUoOwIGT38rBk6yda4INBTAJl/f44nMYhOecMhJbzhOD9YEe3z655P8CgFscm5bm5GBnU7hKvYWR76YYd//MJJbQw1ZzEBEC7wJWCD2Q8xWy9KKxA7xpmONbYRnwKa+QRgMhhZH+7HJ3ahOfpNYDIPlwJwsW5/HcldkUFih/3K74xNwu0ksBhCzQbAmvCnB9rHHiKfQvdVy0TnIzKqPN0KweYSgSylvO1jxMbaSPqp585mTUnNAm3yvwjcIKbEYTsDrkrwiP8BbsJQ3CHZE6QMHbGosBrLCJ/knwKaNIm6rZAZrov3YRH4cR8Y8BjbFJluWm7XHBmviiE5bHFV9H1nGkZoBmGLeIFAGM1iSr7S3BcwDoOI2MwcAyfmLQF84vg9sLT9FF7cY/wuh7Ww8BeqJTfSVdsjXfYzvtTYzZZRl3/b55KXyAoElnBTlw/OmxIkkRq6ER/UsbhMsFIlNS3dJccsJ60PmaTP7tEiXLom84EsXw5M63We0ae2GdlrOxV/WNSUJTvJoLO3U1TtGgY+N8NdyIXJiU85j7FGG8vJpx5Q1OwwnotTJaBOM89R5kIoX+RQ/fdlN8ZvgXD3ZIr4H7e0iV6UVJZfymHwTDPUKTvIuW76cHDOPTT4mBUf97xQ21tez2PR9jbHHiU4woTzLeZ2ftiQ6YmRDPbE2fBwndrEluX+961gwKQsE6iTOt91mh7JhqisLZfRcGVAGlAFlQBlQBp4yBnSB8JQ1uFZXGVAGlAFlQBmIYUAXCDEsqYwyoAwoA8qAMvCUMaALhKeswbW6yoAyoAwoA8pADAO6QIhhSWWUAWVAGVAGlIGnjAFdIDxlDa7VVQaUAWVAGVAGYhjQBUIMSyqjDCgDyoAyoAw8ZQzoAuEpa3CtrjKgDCgDyoAyEMOALhBiWFIZZUAZUAaUAWXgKWNAFwhPWYNrdZUBZUAZUAaUgRgGzrDVMtYWG2217OGIT0m5vcQNJ8WOxXOjzMgk9iw+Aid2cvXAiI68rO0A9bLyqTjqJJY4+pnCq4cT29FbWWf2rM22etVcE18tlj43J3u1JFfYbUeGOrGlL/SkxlNwWwGfAWt9z3wJu25DBWiTyfqbHcc0S+6rYDKzbZnYsvaAk39tGP+ayEvuX+s6FkwDDY3wAueOGgVrLtAWUeUkDdNUTkz5U8ZXz0SeV3jMuzLULteY1yXRkXhH574Stwk2BUO/yZ7YkpzlMUm4SbFJ2TouxXaXLl+uSzasg48NrzWdn4Uf6hSb0kub7ITlxPm2w+v+eR0PpQXCGgEd5ju3jFkw/K8njuAb5YQAJNvPmDXCptaFey7L8kzwCA0zRNBLhM61VfZtVEFeicOvpzcYq9fT54nUHgJH3yXcM4IZuQm0VrhayIF9ch3eM4xt1h2lKhVp+DVCqOx8MoDgCGE9wBPiMFek6wuAYbhnGwoZErkuHDfaFU0IkDK5Ci/RbgjQ4lInyCruI/AWgzX1EDiHNuujJ4qdcj4cM5S2s9Or9JOybHGGQDsM+40gSDb0t3DbUkmGex6Czz7CAw8RnnqMcOM9hM+tGyScnazuOQUIDDTeBX6YHu4ZNhnymal5cZEbcuaz78kY9xKSBEWSKjb77S8f2vMAAEAASURBVKRH7Ac4HMBfSc2YwjZbb2s0hRnpA4Iu8lwPYPRrAltD2GFAqW1wPF6NWngt9MgRwxlThwv0m2vv1EHbO7gnyWnBT1EX0R/mlJig7Wm3b/srbTpcYT1EFed71tfi3B2V7eZ6smJmO7DJsLhj3ishvMY+gzQxRPQIPjK/xrDhOA5T0/1Gm1dha7zuITAQzjJfBF9oKl/g2QR2tqytajCiJhz1EnsN4zKH5qYeVOAJcLb5vQN7nDV4p5RkcC6pWu7CZ1/HhSZ7xPo4yu3CUwZ48oMy0fZNlPMfj5l8nCtx3+jt5io+TaGpm3C0/QxQxDeFe65gQQ752cY3wz33wZn45/skxxU8LjzLgHHI+ZFve+h9hTj6ynDPzJ1dEXZa5Iw5S67Ar0FmQa4Vow9KelA2OngjKpojJ4PB8b30aI6jXbNCNMfB0dsw2EaTuFjkKzDQP7yNgmoFC6ngCJPlmpHtkG8SzZETU+/oDpSG9FftmAniZmU3jJWfH5k1/e2zK8ck1IuLGExk66O7ifyQE3R4RrtMjOa4xmRtozmmRrvMOFmgHyQlcLRezV00R0RI7OSWNUM7LMDnCrjF/NDMGEkUg25skmiK80xHjE3RzcXBEO1ycvqkZYEg0tX8BBE2xX71arWEA9wE9wjTJtEc2RMOZ4cW3/VFWwtENuSHERUPwc8m0RwXuL+eIDJnvpDuMozrtN2DsweIINkdzdEpdL0cAx4WNIyM+ASRIFNsilsPFoyrF59od74eJkdzPES/ZSRG5ncReTI1muMKQ+QB7ufUaI5TcLONzz08UKWMsqwnAcRxYolNxO3hQ1sPUd8UmxxZaeuONY6DjkTZfbT6MfoPIxVKsjpQfhufrpGBS2DEhjVvIk/xlTbo5j2goqM5ooLEcFGzjcXeHSz6UmyyfsR/Bw9wkRQRYjk9hqU8mmPLFMZ6XUO7LQ2jwBZWSgsEKnUDJzW1aLPXRKZNzioMvnzcpthAZetpaC/FZohtMySyoUxTeSgn5yIvuZTH5IJhnpJ8XApWZCU/T5uhDZ6HZbH2N8XF6le582IgbLlNe0GoJ8ZfsSV5Fya0EYsTvSIvuZTH5IKRPAYjMoJhnpJ8XArWx8XYE/k6WbnWZd+X65L17WyKo453Auv70nUc2murp8iGOlMXMiFez5UBZUAZUAaUAWXgEjKgC4RL2KhaJWVAGVAGlAFl4KwM6ALhrAwqXhlQBpQBZUAZuIQM6ALhEjaqVkkZUAaUAWVAGTgrA7pAOCuDilcGlAFlQBlQBi4hA7pAuISNqlVSBpQBZUAZUAbOykDwZ474+8cV/j54hb+FbNujgBvxWDnKzhJ8oH5so8ENDbps1GkV37y/06wTK5WJrzZnvdr+2KOEdBzkNjtwYidQoafKgDKgDCgD588A/3r/BOP7MT5d+yBwkyP+xT937kh5SuZ+ASfAEBe9DwIw9I0+YQsq61+KTcCcTdSLemKT+Mp9EMhJm03KYru8in5vgQDTfez89+K/jcmbm4i0TYjYJGm8Z/rYVKXYtQ+QzoSNUbhDHDY56RHbaqOqrA+bvWtPqhdaS2CTOwVyAseGLEk2QSp3NTTzgwgc+BtAFrvu2c2S2uhr9VcvKgPKgDKgDKQywK3F/vTRiTnguN0B5mS9hekQW591yvqqOEHvA3cElL9Jky/TdMy9Rkf4HNhlQpNUffkVbHv02O2nWS9QU0pfsV9tvmFSGyeUJR872CzJT8UCgRcG2Mr25Z/D9TZVDt6HMpe6ZTPBLNsURzixqfYEx3xTbCwO/tnFldQRORcm/EQlkc/yKIwIEeN9pLgzzzDkNugcnVAKiM0o4UxIMJLHYK1v8NEm7MGHc+7mKSVdKtxOhg6Xsqsh9VLe/rM+dFkqX8+QVoe9EtGVBEN5HqcmH9+FDWXD8y48rwuGeUrycSlYWnHYTfmpw7U3jLNJnPvE1NOXlWPmscnHtOHCaz4uduQRnwRLXAqWOJGXXHR25WQ+xZ7IhvWe4P78d4+4M6umjRnA4spPxQLBloJyO8H5Inq8MQPcNhnxERAkIVdRpj8vxkHW3fmGhVsfYwvZpB+HAN8b72Cfb6xrO7dazmzZDNuiIrYBt1p2t2mzh763PObam9gBfa1NmZ3wGm7kAXCM49Hr88VXvU2/lFst9+2+/diDfzA1I9TVbbUc2AhOxTQnlCHeJHGOX8GuJN+GlIX5YDCEzTF+OoZttzsA4eUxfF0Pl8UCIVRec05fJ+w7WWp6xslteXWmLLHLQVFH0VPN3bQ8Rd0G3H8fdqfA8ti1bhVRV0J56ligjep99RwsKYC9/hhPYvAjYfFFbRP0V25bvMJJzkNJd/nEl9nCFt1zvulLSGSK8RToq/+q1tcbqlugTlNww/gLzHeBj9tq2fHF7x3bFtgOm3tSu+LQTOWcYozFwK2WZ3DQ97cs7BT6dWDJLnBzfFImesHRFo+bbNa9JKf9fXzx/W5jcq7ay/SL2zrzDqnYgd+a3jkGhmt2vHcsxepiI0bIhiKRsLrqfFe7jfUTe8Rfe58Z7HwCIxgnX1cZuUFyf7KBMS/ngMAAPdle8Xl5XqlAj8dRj5MKf4wS6BRooSsD2QwDHu1xepDfJ8l1ugPxVfC5PthxNvnTPKQM1yjvccAfM3F0X2Mxk8tnfouivNziECRncg2fXdO7+QGzu/cSXOZ0JM5mvuY+BOVwz9YT9uxkFHBU3AaZntxXmsHkyQGTC5ocZ2ucV7pa7q4zCNIS8SPyOolbor+ijzi0CW3iaOXxI+1KCaa87kGdx7A5tzbLcuKjKwU+s80J/uqWC7r1fTffDzMcgiO4zfD0dICFHuM5uDYTDjP7mZxwwFIrB7ERJ10sLNxSpaiTtL1gxFcp58RAu4tsMSzlOSfOdF5HuU59Y/g6X7oXxH6586vsu9hnzqBLrIofN6Kw53CZWZdB+DrieFxFe3x4a8+8PJ7aehd1KWNEl+S0xYUF41zYFgl4FN8lF195Tn54V8+AEX3Sx+Xcl6fDoocTL3FFm/Aqrgf2bZm94totG0Xsz+YrtrKqim2xRR94zPBiHEUEV/jmgGE5X9W/CuAuPisuCvixqcxpVnjhM9YurJnUuHKhWrBx/Yd3Z/+fjcroNEhjZLmozT2TcnQdPI31+OSIzls0ei6YITN5vxgDAn8BsoeJLK9gJl10wBK8kEMAm54N7uMrZKeSc8kd3ulHGZ5S7Hq49ORYlpXBV3xydcIZJ90Ffy1FdApO8qzc+pDZuvISno4RJGr2z+Ebbm25ZkXLOLErzb+2EwOs574G8nnjZ+X+ZS5EiGvgQ2zkucUWw4CziYkh15kfZLUPzmmnh8EdA3y5aiIneQYv+Q5G7QLBe9Jt9Ru6wKWb3JGznvmgQP2ZrdykHLic35zo6WvtAkFczPQUfRo4lPFXfFb2Cdnpk/4gdqUPFuVO4WoNnJ3EMpzLcmt1uKJFsN6z91cmnvEjNsRHqbqcr4DhR5KUi6283NcHv3hKnFsguHqLLPNKv8jby703KHzN6pqBC7tF5W0dcMq4iIw3J28Qcl9zw6JLcndBpj0Xq46+uiR4gUu5nLO9BvDbxcYrcHk75u2fIfI6ujcHPGWURkliT3IptznkuJjgP+Z8o8CJW/ioxfB6pgTi1s8lbVpcdiHLRK7Q4/xiubWDnDblurSfnBd1dgpFHyd64vx+SAnxW3AO5b4tFl/M53BDdEkusnIuOct5TJtcRvvlOM3Pw3JeY4d9bWdsPjUd442HLcn7aF5HRwn0CDeS8w3EGr9s6GwIN04LyzIgr7MhvMSf1fOdaXGHFTopVvialWdwhlriR2yKSpEvfCjj6Atthj888X307Uo57ynWkakc0izTb6+4r6rtTOYDP/CDQfX9Cnoa/EMMIoud583g5H5cNEdnCxrQ5fD6fI2Jvm+jFQo1mZO+jZrj1e5zpn/AyIq5whqpoIgD3hSv+ZH3EI2vPKn4slXSuJBhiOne8VsQLPvqI/Nj2OCPFHrv/xksZBCh7qt/wz3Rx2CtEtzMXJDwRwyMkAj70Qmt2N+6sVE0x76N5oiJrJWfOgbw5Lh11SyPH0S6mbUbfB1O9uwT+SohmuO1W99n9q+9xzx8+8vm8b2vYhSsC7tb74q9WRD2e7FgRMhsQVMrWu1bNpojfkx0MkuP5riFyJwnNrKi1L3WaKmQA/NkyOc4RnPkQrqp71V9pew2fvxyiAiSXYlarS30uQ/f/B47iX3h7u/Ztw/NNqta7Y8YhmNzkEdzrPpVRTnbV/CgURfNsanG1EPtE0S24+v6Q7z1avW1xpUr8PXRIvyxWI2g5zSv7vFtEKwf24Wid7HhkJPs9+PNwQfRB76Ie+sLJweRP2JwCjkBXUcfP8QCk5Ouq7m75n+HXFFUfsRwf4Nojs/gDQtxxQToW6s/Zj/Cr5DbhclDHPcb6Ax9pTaWPYOvtxowoUX6xR8xfGLg3j7+ldUAv8BXLIpK8g06+QOma/CTkR/dKNsgWFLmFgXPg5n7QIV/xVBXN4FTO2Y+RHNcmbfwINc+sld9eRF94A3gqlfEQpGLH+TpJnAc7R502izw9ihbFQz7M/41QWJCJftjBJIEtue9yuzWwm7EJyp8868YUiZAKO/xSR6DUNONUmufkzZ+DmwXCMSWnjprEUUh/Rvhlf3cvvwqypuOaGsIedxc9gN/+fbB3QJNIL8c/EAHf7a+pq/25/P+9bZjYBHW2oW2bpsAQx3A2bc6sMmw2C38VDsnbi6G6iUuJaH9V0v8TB9vAVaRf1lin/zR18gPQz4v+QZqzR/dxCUuEFaYTJZ46+X/DkIk2k5CxPJHDSmJP15Ywq48IYfYKqfs3XjKZZxfpHnXBBgo5GQ5B6/+jxgCkdIpbfUxePCe5Ie4+HDPjgsuEAYYpGew2zpZlyy7es4w2fJD27GJkr0+3wkiZK+drNPaZIY+dGrf6sRadCPOGDguEE54j0ZAuUBgmGY8oticOPz9VgTSiXCAP8UbqJNMTyyQ/PDDHnQMbPtkVNZKHO0RR/uxibghquZsujwWS0Y4qsfORPSLbxzsWxXkJzDOESilnnxvyT/ro12Hi2sX2t70zxxph/cH/wKi3deqL8dojSOgyHNsIj/bQDDnX0602wy0Zi6gv1adCURrToEhTj41Eo1FgpG8UbDuQmaz7lJjmWA28Jc+8oaWvNGGXMjk5TQJK6BUm4JjLvaZpyQfl4L1cSn2KOtjY2yKfIhNsSs6Yuz5en3cplhfX3HcrM1d4YCSMumKdBrG98dpSMX7DBXauo/eCVwzh/X2xWb91eZSwUneLOmu+HJyzDw2+ZgUHPW/U9hYX89i0/c1xp7Ii6ycM49NPua7gaNfm9r0sbH1o5xbkDi7PE5aIGSGNsFkUM2UAWVAGVAGlAFl4LIyoAuEy9qyWi9lQBlQBpQBZeAMDOgC4QzkKVQZUAaUAWVAGbisDOgC4bK2rNZLGVAGlAFlQBk4AwO6QDgDeQpVBpQBZUAZUAYuKwO6QLisLav1UgaUAWVAGVAGzsCALhDOQJ5ClQFlQBlQBpSBy8qALhAua8tqvZQBZUAZUAaUgTMwoAuEM5CnUGVAGVAGlAFl4LIygB0rUzZvFBqI8T9S3pX7GDnuwoTXU3GUl+QfS1lbLvKS18n6+3C1ydVhtUwZUAaUgcvFAEfBTUbCWEyoX85j8WRbZAUb2wIiL/mmOLG/CX4TTKq/YmO4ZpyC1IQ9xdcI8GKx2Mc9PmHnd4sTbNoLjDVizjt/Q3rDc+eRnbrhqwGOsRhsZEa7bXKkx4zFgHCtFmc3yuzAWRuQJ85iYdfuaO4vItp0oB60x1j19Jk6siQRuuS8miPQE3A94rF/e22qpcnhGJLaYmPqmSvHhrwIYEO7SQn7vFscQNbn3Gatg1Y1ENjxGj6i/ZgzdDNjVsQmxkIgxoW2jkU5OYfLbEb2H2lxxjmwNmHfJcmbfbCxGLK6DZCnbXuMAFqwSVxngivWlvAKgMX2GGtAatCsRSRsLAb01SH1lHDtdXW2iUN8lnzIbrYnV6iVGAZrYl62KVLNucM23CMZTOomWpxNZ2lkbcoVyat1pQ5hZABfGS6aPscm7vtPDO7qWEguJ7gx8O01zSH2gLWgvSz+bfliSxs5nNvOl2HGUmyydhxBXHiywGTNKW2JDWJ5zFksxSbtcXQucNX2w+VKYpswQiLDU0fcYTme2okRbIyvfqsTy4iOcV46s/SVOMZiILawGaElExkuEemQg29dKkoDhQzkMWb8eAwkCO4SpgIXXkEFh9tmhUVCbxmG6w1lMXkERevRrllPGJaDVY9M8HE9RuwvTt7UGCoVNUEVbTEGAkObY4bniAByEoC8m+BhD1Hcekt2xSYsrQSGGZp6vJ1FgSyatE2D9ZWtONpGe4DXIBBNOxYdBxH1uECwHNkBLPDJGci/fX19tOdgnEXGy2H5QY7hQYHDzTVCuHAE2umTY+9KCZCfoN8wKh0WTVwcDBCNb8i6xkyCwi/aZoAoolworNfkKFfeeTAYDDHhjs14iGBECQM8FY8QlZHRI4tbu2y44KRwg7Ij3CNM7FJNfa/AFjopO8YicbFqHm59HJET1I0LA4Y/moDjPgIhNdm0TmVfEgaXbTixNl10PV+m/RgDLRaXlh1W1CbJ25ET9gO0BbElb3M9zfgp+s02FotMBRehfNkPnhHj7FXrWaeHwZom4IZ+Mt+FXR6HqQi1W77CRdM2cOwPEp66LOHOQo30ldEcGYxohmmhGEXKdQp1UQ8ldoCd4dMuXUZTdhcY2uJxYbMsVz1zs88ejPsh38I6+TiO5HuwwgmecvsgUEaRJi59PI85KlMHbVJHbG1pex84tk115nOMVXxHMa8wmuMUyPk6btHm+7SP+evY9j4o6kzOD35fBc7NfP4CoVNBHjZ7ODx4s1s6lLCTLVbHCElct0AIxYtzdHVMoD0M1IOjt9Eq8d3I6mAHPLyNQ0dAobfliL4iCp9dzJwiKCh0RCfenMD3jhLCPXPBxOiGCNNrENLaRkhsGYbKvqBenBiW6Lo2HHbBT3eNKYEh/gShl4MFQtmGf0Yu2CYIL40Bd5XKT3ZrLaLDPWe2MXAyOqON5pgQ7nlpQzUvzAKRQGcnj+wCoZsXZ5MLA07uM0QgTY3mOBiOzBDtcoKQvakLBFJ0Mj9AfTNPI7ofJ4QlFiNMp4xganl29ej6pizGH3M4P+wStddpazEAp4ysCY4OwXF8NEdngm8Q0JrmCbApvtI26agL99zmPJmcYrLm0/gBI2xaLW2I8jW24SMbRdQvb28Y2lyCHy4QjmwESR9bf8wFAkM12xyY+3goSnmD4KIVoo7QMYOu2GT5QR050d/dINwzg8jezSaWFJucbDliPYSvxcjVrUGYTwn3fIw2ZyRGYt9Ch5dwz93WnAQXCHyseRManK/iRbsGN9kacw+o6gKhAQvVbBM8aiLcc8/cwVibwg+10rvvIMR5fC9wj9Gn6LHsR/dTbWZ08D0t7acn4uQTjUb1BCN5NBaCOSaFpgxHOxYf1xEontsjzjaRLW3/ymVhJ/c31qbw42PbzRVXic1wSd0IGiyO2OxTKO042gSTqRRbzGO4LckVdomOT5hKoCd1kucEZP+dARtTRb8etMcktv1rbcciL/g2Wbnmy26K3wRH+wVOvInLC5w7ikM5Kdfj0noOkQ5X5F02RT7EduHkuow61JMySnN0FCzzVGyqPforNsVeik2xl4KhrPC7iU0fk2KXdfWxPI9JZ+GH+sUm9aQk4nzbKVjKpnKTql/llQFlQBlQBpQBZeACMqALhAvYaOqyMqAMKAPKgDJw3gzoAuG8GVb9yoAyoAwoA8rABWRAFwgXsNHUZWVAGVAGlAFl4LwZ0AXCeTOs+pUBZUAZUAaUgQvIgC4QLmCjqcvKgDKgDCgDysB5M6ALhPNmWPUrA8qAMqAMKAMXkAFdIFzARlOXlQFlQBlQBpSB82ZAFwjnzbDqVwaUAWVAGVAGLiADukC4gI2mLisDyoAyoAwoA+fNADZ35u7SiYkY7g1u8xQ8MfLxcdw0MyIJNmUrYcFIHmGmEBFfkcek0EZ43qnDs0dsSj2trIfvtCUCYifDSnF07uEim9H2AfE3uo7iJx2TY+axycek4KjfYRk7ID0R5f7FYn15HqcmH9+FDWXD8y48rzuMy2PkRcbH8dil7k7kWkNaRbTF54KPRxS2UrC+rBwzj00+5iy4s2A39TXFJm1IXWPsiazYCM9TdPizUAyO8rTHPAUrGMljbPkygmMem8RHyWNxvtxwvvcizrtvSoLy6FKYvBbbzyIyI6Iy1kRz9A3YYzvZ8QjDAAIDMeSzjXho99evSDcWrLefwTX6mtA0XMRMrsA0ckQAbKxqHfOMpTC9ZoPfcMd3l+oE5VJmy0bigzz87a0QtCnHUq4Fz2uM5shIhZYb/wVPG87p7U+vA5dFZWRRY/J1MZojeUHYXIZtZryBEOeL22tSgPC1ltsQ4M4reqTu6A8DRLpcM0AQAneV+QnPnC4GdxoOdxBpEIGT0IfGaJeejXtRtl21meFhc4yonsQzumLYDk04ogcIDDRg+G3sTB522RwnlBDgpSl8ZTgYBotySXJ3luM9DCfLse1DCGsMf2taxErn96OHpewU0TljotoRz3+M4DhEHenjLvyd455usumZgoyrC6M5ThlpE+e1uHKVM9/taGD2MIYwwiEDRcUk8kXJSRYZ0YV7jkE6GeL3Ml+jUJlbzBiNkcGaprxXIsAM7kQMQy8zv4GIly5YU1xdKXUV9/MEAX5sNMdGWPUCwzxv4UNP/VGk7HYVx+s3UD8GbJJRtrWuWbtRE6M5UpZxRAUjOYoakgvYdSMQDE5LWPplAx9lpbfQ2RFuztqM6feEjdCOV7L+Wmerrow42r6Fb4ZtDoM1NWEgyv95NMchOGtuk4I72pP0HCLQUn99i7nS0D59vY5AX44vRMOtB1sTci+LPcmHQ0ZVTE2YbNe8QY/vxy0Qcv0YjhCdjguLwfFdMNFGUw7KD1YYxPrENdCUC/oH9JXRDZH3EI0v77m+TNMx/LND3sk9SIT014C4COENs0KcMEaLQ2TF9UoCitbIs6jUaDjhxICJc80IiUn8AItoXytEOYyP5ugcWI8YeruI5hhR06wyGBAwkiwZBTIl2UEFIVO5QEB/6OYW/QZR6ZaIkknMEpg5bMaFe3aOcfLrw9c5IkEmR3PkwA67p7MDLBDi2aFl8nOCyIrFAsH5E377Wjlpr9iXkGYbRHPkKubYRskMrVTPxdYSiyZO0sew1x3NsdRpMcG7kMSHib7SNhcHm0RznK83j+bISfPx0g3vPu9VdlCSVZUZ25ALhGNw1YmDPCd1yjKaI/NH6EOIjldrpq6QPWCAIfIAfWEOHc2pfI1nU/A6x+fBBtEch7BJnOuBzVb9K7RJRjmibxLNEY815p5XjTaW6BdjeMrIcQ8LKIzsrZMuLpcSl91sy7eRp8xCtM1A4feBChcIJQP+CSrDqkk0x7dwv6TYpCouaBgF0qPIt1B7TF/ZU/Nojm2kZhpCkWEPnTY5cbLlTQJsGh7VA2a9AsW0mzQBwktO9NbfBJo40MJXLhCczZCCltpzOWptkuIIHG3YxQhxiVjrRoaxOmgT59EpxMYCMxzFaRf1jLcKWdTZLsBizVk7mBosTrDd3NIGMeREsPbVTqRdDu6Cc3oigbSY+0r73b76mgtsO6v+VU6c4iMXCrVP5b4R75iyrKssMLxLtYe0xYWB/CMu3abTQT0p7Iht4viJTZS0mCxPsUkb6HVJ9oixNonDhxNLjE2+QXA9ljZduGjM2dHJYojLbMYC6SvvZPnEM+vqKTjaj01i089jsaREbMZghBepF7GcxVImXbGZihPbxPETm+irYPguIMVX2iCGH6lzjF36SozjJ90mbaT6GeOXyigDyoAyoAwoA8rABWdAFwgXvAHVfWVAGVAGlAFl4DwY0AXCebCqOpUBZUAZUAaUgQvOgC4QLngDqvvKgDKgDCgDysB5MKALhPNgVXUqA8qAMqAMKAMXnAFdIFzwBlT3lQFlQBlQBpSB82BAFwjnwarqVAaUAWVAGVAGLjgDukC44A2o7isDyoAyoAwoA+fBgC4QzoNV1akMKAPKgDKgDFxwBnSBcMEbUN1XBpQBZUAZUAbOgwFGaEnXS4z/idYQ4lJtZ/iUDSdt/WhHsNHOOkwKLrclNmpstm61mvlp6yfHoqsrF3nJu+TlushLLuWx+SY4wUgeY4uykgTnl8m1ptzHpOCoz8c26W8qT8dyC2Jnk9+pvjo/YnGU8y04y36JX6/6zusw4rEv337s45os1mnYFCe6BC/nMblgJE/BUFZwzGOTjzkL7izYTX1NsUkbUtcYe6GsnKfY9DF/ELgUmz4/KbiwjilYaYfharJfGiB4oX4YEAhy7teOaHw9BCWqj8XQ5AoGI0TkWyOC3wqBdyQWQ6e9zLSNBDnZg/1Qf3he9pU4F4sBu1M3bIZe6wNjRTDSIeoawYqzQXkElTJ97IBNuwhq1YYt20U9EKypRx3ExsSqyKuO/eEZxW+IQFFoH5fyi9l5OXO2MxyjQC6xW3gDP2VkcdYfTF00SFvUbi9Hof36jOLIWB62sMxCLucdMJojIzEygmMfES8HrKvlVoQ6bMPmANyuGLymj3p2iItW5gMEa2I0x+EwLsqhwzoDQ9gcDuY2PgLLu2tK19bAoB8gd/ENYlDOKiVH4InRIGN2bqetMeQZkZGWJ5Zj+lljs4EzBlyaoM/PiI2sI72lbeIWiLORGothirZnZMQFgjaVfS07WVMLQ+xWqe/Qm/ZErcTRzzWoqujNzPrli97KjNlfIT1Bvo3AXanBmraAY/wH9KCKg74t/6LlFdxs43OCT8prYloRnIwivu7wWHwgbgcntMW7muG7ohLEqAOjHYIZxSVqpiyDJhHLY5bV17PeD8SttcGTMJs04HAhSLRFThh0aYZPfCwGtoiL5riNo2Noqfc1MOid7gFzxfYEFNZXyZN2h/R1H3OBxLlItUktwzUGvzD0iNgnIS5JiZzyJgEOA3VpQgnEBC25HbAw0BLLsMYyATr6RKo5dzbZtGVDhZ8hFnJcTNAeJ03UteSvJ04xP1mdHDStr7QpVgJBH0QblKesxaILr31socWHFcf0lYsLfpp9LeShL3cHrQgcP8UCwZfkcS7sXXA4RnO0djGgSCqOpKSaO5tcBHWnXB/I7iHyZB8FjNDZxYprQ0wD5BTcMkIiFwcMbZ3r7DDPPkb5Pgd53jkFcSVknT67KCGW9jx+HLCO00IlJ17i1pm9BrMFAEf0lTj6Ym3mtSzbqvUVssQywmJ3cvooy0mWVWPEy8HKnVfwocHMHS4QxGYoQh11ZSxnPYl19st14/W6xDGEksT0ga2Ge26yVmhjrxF+culwACjE7RFtcnJfAjBE9MAcJ3KVAlzASsI+HuAaW4N4F+5ZQO25tUl7wPG4aoKl1YSebjGsJ7FhT6jqKXS4ejJ6oJsMiyvtRw7nbLkZxVmp2gp8hgBlhviizabk3ze8fTlquNHA4Yh19Qz0NyikPHW4IO4NQnlxoZO2icUsZv3ORbyDap3dyEtb5KawWei18OBUVFLfCP2TNhtERDTLnZTzFfcYShmeOvQrPA+U2NPh4OhuXXl7GSZCTtaD43t4gxAd9BI6UUGEhDV4erRhm6MGMc8VLC76sOno9srbDjlpZ58ewxJzFIxN9A+Duzm5D0QEjnYol4d7foincglK6oy2NzCu4omc0SfXCBWNWbDG07IfhT4coU1WrKONylgDrS0CjtEuUU+LTeEHdeUCYckw2ikpG4xduOdjIMt1qlPFNwgM98yojgz3vDhF6OWap8CCj7IWRjgcDAZmNtsg3PMQvMLu6eywZoGQ2WmoAhckp4uj/A1C2av6Mw4DLg6gAfaELNcL1pRSlguopHDPAzxlZE/xceGey4Y52WLONEdonxRfWUtO8IcIjZ76BmGBe42T7cGSgX/j+aHntHmQhXsu16T5TPoVIyseoS/GWLRhnuEnozoeI38MXMoCgaMJJ/gDtE17uOey38RtgRs+yT+E3bpRpIwozljPMRY2D+Az9cQm4vhEzcmI2BSb5JKT7n0hGcdtiX5x1jnFh1iOzgw472zGtIyzR3N3oaHb10InbY/BzD2g0mY+gzcHa4N3wwgxzbdKNakwU7nIxcFbfNCoXGkuoK+MPco3CPeBrbXZDLdX0P82gQFLnHw6jBSXUT3BSF5c7D7KMSk0QS1xTBbf0gpOqvgWeYuPxNkJlrL4WDxtR2LZ/MTbT8Zv4U33kWCj7WUqBSd5tyUBFv5GYwQq9SQ3EfzQt1zOx5YNt2vCVAI91bcAZR3hGScg++8M2FBn1zntMYntLnm5LvKCl/K23JfdFL8Jjj4VuDYPq9cKnDuqSjSX+D2pWap6RXCSVyXKJb6cHDOPTT4mBScjDjE85ic2cWQVXCyGcsSJ3VSbUs8UP8WW+JpqU+QlT6mrYJjHJuFnEyxtCI56UhJxvu0ULGVT6piqW+WVAWVAGVAGlAFl4IIyoAuEC9pw6rYyoAwoA8qAMnCeDOgC4TzZVd3KgDKgDCgDysAFZUAXCBe04dRtZUAZUAaUAWXgPBnQBcJ5squ6lQFlQBlQBpSBC8qALhAuaMOp28qAMqAMKAPKwHkyoAuE82RXdSsDyoAyoAwoAxeUAV0gXNCGU7eVAWVAGVAGlIHzZEAXCOfJrupWBpQBZUAZUAYuKAO6QLigDaduKwPKgDKgDCgD58mALhDOk13VrQwoA8qAMqAMXFAGhvPdF7D5Nne0bkmVDaARgGT7WbNmSNnUYE0IZUxcbLRC36v19jM4ha8IQBKdKDu54jAMo9xR1ZJexlKYXLOBaLjju00IRNKYxBZDGVMe/vYQiKZstAXPXbMRkKo32gYaeBsDQqw14PJiBEiZXkNTIlxKIz+5sChFztDL5IUREhEyhfEGvKvlwxCPaHHkNkt+xDUpc3mIQ5AehLNmAKTVYurqWgYEZwjrgxCMQ/DCkM/EjqdX4W9ENMe8vRANbbxn8QwS1VzHwDT4GTAwGSKB2l3/u+6VAD4d71gcAxMxNXPkA9dmNHThmodskyzF+EyZLfDE1BnuGS7RrwlDWSPoFgNa7QI7T+KHkRV7Zsp+a21a01FftL3LcOHoe8KPjdwZgR6j7Rn4yEWCZMuEfaxZyT58lVRw2oDPipntwiaDNU1qA99U8QzStAPMCH4Se4Nhw3Fc2BQvqlheYelV2JogEhbDPTf3nSp+DDsM2MS4nM1PgVUc7V5HeyDeVx6sqeovpbKU3V/UtJvVDaN7XsdWrFXhogzeCASD08yYyzj6M+TyFnLK3QIxDBfN42aOcNFLjKp4hZzaf4W/nkjtIev5LJhhdEQJ1tTmq1UCEHE7+J4Cy8iMPsY/rjWKwufWbsyiHqet22fKXscYy2BNu7Ar3KTcK8PRwRu0mJYwAfVQyY2iOY7gKibQwdHbqGFz161ziB2jf3Ab346mOplKGXxdc5KmzxtEc2QUwd7RHaiNaEZOzFwwMWLlAjZRx3UQzbHiX6kA9eLiaYzuzyibSfw4TlYniCCJThGfMDSP4C8Gok2iObItFseMp5aQ0HfWmIRSozku5ozEODeL+aGZoZ510RybvODkxzS3OuIjuRPDxcEQ7XKCqJWpgZ7Iz8nsIDma4yRbeG8SzZE1PYTNmMSJeYG24IcRFQ/Azwy266axJn2cpBld8QmwKTja5qB1sEE0xykWNJtGc2Q9HvL+TEjkdLFG5FL4nBLN8RDjByMxHiC/hwiSqdEcEVgxOZojfZ1ist7G5x4W1imjLLEEEMfxNjYRx7istPUQ9U2xyZGV+DvWOA46Ev3aR0+TOLB3sIAqojl2gLPLXO6fwuqbyFN8pW26mRTNERUkhouabfh6p3aBmTnWkn2nh0V8y/XwEn09Ru3yaI4RU1ioI4WbEKvnyoAyoAwoA8qAMnBJGdAFwiVtWK2WMqAMKAPKgDJwFgZ0gXAW9hSrDCgDyoAyoAxcUgZ0gXBJG1arpQwoA8qAMqAMnIUBXSCchT3FKgPKgDKgDCgDl5QBXSBc0obVaikDyoAyoAwoA2dhQBcIZ2FPscqAMqAMKAPKwCVlQBcIl7RhtVrKgDKgDCgDysBZGNAFwlnYU6wyoAwoA8qAMnBJGdAFwiVtWK2WMqAMKAPKgDJwFgZ0gXAW9hSrDCgDyoAyoAxcUgawuXPKjtsZC8T4n2hysJP0RrjAbsqO1L49HmPv7aTEPfxjcdYWd8vOPmI72iZtyaerXcJ6CC7Loysp8pJHA52g+JsCE4zkMVjK5u2e+WrLMjc6dLhYDNj9HxiJy9AByS8zZoD959nLLzYdZM2TY3PfmwBFuWBYwuPU5OO7sKFseN6F53XBME9JPi4F63qCQ6TgxDfBu/PwPhKpcu4wrgfG1lIw1CTHsdgQk4LjyCH2ukYR2vGTj0vBEifykvt6247ZAj6+TZbXqJ8fYpjk3J3FfQuGeUrycSlYqZ/gU2xSVnBS5xi8YCSPwYQyw8XWTcyZ7TdJ5SomvuX0OnQhNMtaYlrhtMN7RpFaM4ofo0BysM2DEXUAM69XiFZoEPAkNFTxL5O3GXxdSzRHBHhprGvggtVJ/6aIVriaQVWTFQ/IOlG+j2hxCKpoEHHQBNEcm7Q4l4G30RwRmwzBcxp9dcL2u9CHACmTPZShO3BhUps8X3ndngLH6H8IIGKT1xcK3e5S3feAgaXoq02B/qy0ogc8EddngKAB2qSR20wB+w2CxwwQ+Y8BmgYI9jWc7IKeiGiOmQouCoaMWglbKwTOSelDLprj2KzHCPjl8SPeudzVPazrZLhlfc/t1VNUUsVJb4JojkwuHp9oLYOl1AczWNIUPK2GMQG7nD5GcxyQS0RO2iK3K/Jap923VBwzWBOjOS7R7ywuc7PQUPZbkKznNnC8ykBRMYk6KTlhP7BtkeKps7CDcWABu0y5jx32aXMXOAZramMn1wf5BXRugRv6yXwfPqcEa6LNPYRV7OOAAZ983biERIlqYiljgTKa4wKg8DVxVU+hg9h94Jb4NI0ihXRxRByjOTIuZ2oESfpzBV8cZcOU++pVlX5xpJOokZyJGPPU1dMTRFlTovxV+MrZJOSniil08ug6cGRHZr7cxyowLyGO0Ry3gONdUutrYSbH8YD6byAAH0OoNYhk8uWrPLuOe5J8MXql+Cl5BmrNhn1EbiurLeQbFXEgYMQ3TJy9fHIocE0d15YvEUeLEy8nXeZIjXZ8lZSzNtEsjTdzTU0oC5ydNLm4QCf2U/nMv0KD8I8Y4mO85MS85GQJmzwmNwG2xkNr1PmBq5abDJfxYwUavgoqOIkuEMgRWNq2qcmauyo27QTPsHr01+OnHZ1ZoE3ibKpHSGnONZxeI3zpCh+Hza9keqoZo2quWS+LxaKPkzyaR3QXiGqJc402EV7a6iFHBYJHwWnpIhcF/TWiXQLfQzS2uOQ0ruAzcfLWIgbNidNNtmtnM6bvZU5RP20KvstXawuLL+b0cYXjfKLvBjsJ9J1VHzhgaT+mjgS6erq6xi4QHM6YIdqB/xhFsrxEcLy3+cBJnnVMSdTKCZ9ModdW65h1IN8u5exSFNdojef8H5ssBvK0y0+YfFv+NfI6wEXapk03yvoSzce0wsDCHPFiGBIfHM7Z4oxSsVl1P3eCOjiCzFtkcmEcUEz8I5bH/Dib4hEKSqmqnDa5KKn4WsLxxOnkNzlh/TDzWZ95tTuxRdwiZghcYTPwNTj19XJxMMM4VK0FpPJCUeAKnK9Y7EHkFPjuevoW3fGwzxDIqQk3Vx9hm/sMf2snwFgFIGrFQWhhsbJAiEX38NTZg02PkW4oBwI+pXIgYQhcbwLsBHOCxhOVsaFzhfwWlLWFtSknTH4QltiGfkbj5Mk7zMtw4JoU38SxIxAbsUAodIDbBZ5WF0dQxi7RnWiTk4LtOniCXCFcb5/8NPhY1Yh19BJPq7SZkmgTbZIa7pmhnrlIWC1nWIcdg57srUeEbfcGYWKWCL9NuylpbZ9P0JQI4938BqFe42I5Ngu8RZIFQr1UuZSTkG0HFM+ALU+AZdnwjLIjPB0TF5M4dLH93UJmbU7B8YwLf/yrproy3F7op328dSC2HlfVxBLanqAtTvBJXSAQz6dxYlNsEjfBIvGYC8yExHtl2Odgu7bYeibKCjmpz9hfgTlFfoQFVMobBA7wW8ThwzcIsYmSUrtD4FImBgzPeMpdmyc44Fo4pp70izbZDrR1gJMUm7TBd3txAcrdJE0M72LmxHFWaLdZrgnfIPCDGawDByEvsU0wC1kcFyVxyU3s7Ad4REFoatwvccBcah+IR/iQ50oqVy2/TF/5nox94RHG91SbVIQFTYN2Xm1MwNiJJMsb5Wou+Lhk2xvYs12IdfR8rnGrtsj6JzapoytldnKxFKyARIfkUh6TC4Z5c+JYM1u57rI9XJi9MRZseAI8wqBwMB+Y+RKTDN5rDvluszXF2atX4WPb/XV4X8bH1muvL30ncL4f9VbKpWKzXNp25izIN4fdeJsiK3mbHbnma+exs+iXimR97jBusI5HOV0+tl57famP29Rmvebm0lSbIk+Ncpziq49JwYX2urCLFd4Y4MN7fme8NNdHXIRjkTDvm6OFW4SPMT50Ddeb+uvjmtkvroi8lMg589jkY74bOPq1qU0fG1s/H+PbTcFTlj8A1vQUMXC67Jvd0dL8+MsPzb/60hPzvVePzfXp0r6SPJz3zLcOx+bTt3fN3/nWvvnao6nhwIAHJ03KgDJwyRjg2wI+KLz3yon5oy8/Nj/y3IF5eWeG8WFlFnj8vH86NF95uGX+3rf3zD94Y88+PEwGfC7V9LQwoAuEp6Sl+S5ghjcDP/HyI/OLH37LfODGsVvS8n7PXhRcx09TXr4yMx9/8cD8wgffNv/X166Z//V3nzUPZgMsFLreJjwlRGo1lYFLwMAMbwyu4W3Bf/Ch2+bffO8Ds4eHBDsOePP/MzsL8/6bJ+Zn3vPAfPnelvmLX3jW/CYeHMaDmt/BuAScaBWqDGzyY4mqFi35F5oB/khhhR8o/tL33zF/8UdfNx+4jsUBfzDFH+J5A4KtRFa+h7cMP/+hu+aXf/wb5j37p3Zx8S90JdU5ZUAZiGKADwq8p3lv8x7nvW7HAt77TPLGkGMDxwiUc8zg2MExhGNJwq9EUKOmC8qALhAuaMOluM2fL/7SR26b//Ajb7lfVOGNz0EAP17ktTcOJ+abT6bm0SkK2CP44QsDDA4fuHls/pcfe928sjezsijVpAwoAxeUAd7vvJd5T/PetgsA3uv8VQPc9xwDvv1oYt44GLn7neUcKzBmcFjgGMKxhHo0XX4G9EcMl7yNT/A7B3/iXQ/Mn/7Q224wYH1xbz88Meav/t418xvf3DN35lfxkDA0O+sH5iMYNP6d998zH3sOv6PLgQNPD69ePTV/7oe/Y/79v/cu+8JBh4ZL3mm0epeSAd7O/FEh72Xe03ZxgLIlFgGfvrNj/vI/u2l+Bz9KmC5G+I35lbm1PTM/+cpj86e+5565NcXTAt8wIONY8pUHU/Orr13D/hd82tB0WRnQBcJlbVnUi7+EdBM39n/ykTtFLTG7//78A+Y/++YvmS+d7JjRc/jTq4Hb+uUYfzL2Sbx+/K03+uYXx3/X/MKNX4YSjAoYFH7khQPzM+9+YH7lazd0UCjY1CNl4MIwwF9Q/sR779l7WRYHfC0w/+y+Ofkn181P4fofH5xig6UZ/jwTey/cxV83fGPXPPjdgbn1E3jAeBYPDVwkIHFM+e3be+bxDH+yp08MjpRL+K0LhEvYqFKlGW74n3rlvnnpKrbmwCTPNwdvH/bMn/nmf2y+vv1vmZ3n8YrRJj5b2L95tX/Wwq1n/sf7P2z2Dz5lfvbVr9jXi3yb8HN4kvjV165i05aUP6KzqvVLGVAG/gAZ4B2+g901eQ/bN4P0BaP/P/jSVfMDn9ozP97D5M/N0jhOhOmNnvn8337WPPtvvGVenEIOLw04pvzUKw/NX/69m2Y61LcIIWWX5Zw/VtJ0SRng3zX/JP58KR8Q0Np/6UvXzO/hT5emPSwOVnjNaD9YQHBny+y8j3zYW5j/6YvPmzsHeP/IJwSMAe+7doJfVjrBn0DpI8Ml7TJarUvKAO/ZD+Le5T0sPyd848nI/M9fvIUNx7Aw4EwQ7lEj58O1+erDqfnfvvSMkyNHgHBs4Rij6fIyMEzbCTEjAjt7ybbHaXh0Ju62tsL+TMjTdgqEbbwCd1sXJ3RK+GpxNqfN2MkNctzJ0NrMHr+7+kFuC/7JMfF2hu0C8zpw2PEqt5m4kyJ/HGC3LuaWwlB1fboy77taDAgPj/rmN17fMdNXsveELS4N8TTx5kHP/OY3t83PfQj7lKEaDGXxfdcPzWfenCCuAZ8asLMXtxFO3JWOvwJtcTm2u03yrZbBEXdTbLTZoIo7eOY2vZ0mY3pSb816ui2TU9+dhFstVymvOgxP0X7uqYx5ik3KOpsOX7VXLhFbzOW4yWYbV8REb9GcuSD2iEvdSXGJPkTmnM205xxi+UlJlLY4sCS2u/CyNTOx3EWvbrvkNh1sQe7cyO2SLbbaVWrhtMdRx/3KgNtJ8YQLhBvYKZXvjHkRw8xv4E8Wv3U4NAPS10HHCH/a+GuQ/zMfumOuTaAZznFs2cePMO/jFxv5YwaqpSrJcdiYfHOsFjEYnaMSeaE8cx+b1gsKmyk4sc09Q2P9ZaVYX8o7XNrujQ5Le2nxMegrMewH3Bs1pZ6A2DR8/Id+GltqorfY5JqNb5rKKSuXQt7QCJzU5xbEGGzzHaIDXF6e9T425hqBmtb9EbCPMVezxEsZvsB513C4nlzFFs0PeRRccKchzgaEgiwDRPXgs8H2vDJZh7KisPCINkApgxGdPkId5YqzLWeCsz5x0ELgo942VtpcCL348ZqtqFvw9I53MDgqtneul6/zn9tf2y2aUdcFJrVbOw/MlfHXHF2oyrdOb5qDG/+yGe3csBNe4XvNERYnO7c+Yr664puG33YCcOVdz141uw9+0GwNcIvifDBG8C27FXVVR52PlGK79EdTO8mvbfAthy04DeuMc2B29l4yo/Ge2d1/BYNaFtMj6AuhDvGKNocjhErBNs0S00GuMS/6vLPtSHO9pY826WNb5zm3Ws5Akuc6oJ8pLB+jnsTR/3LK5MNiKwRfB6gfrs1L2x5nmLIicRW2eR3BmoZjc7rwt1rOcBUfqAgbSaN+u2hHbgf9rv2XMAG6BWRRF4cXqsNybuI6wtbZJ/m20IGfNXapgwsEBms6RR/gBMokuiXPK5e54HDYJhdjB4MghVstV/pcZrvQh219Ud8jPqB49oq6ZYbsVf9rjbdu2JIaRXNsmSypYk8uILd8ov33Ye/d4y2whEEaPrtxqahrASlzQCt7sMltmjkhCq5JPucKAuSH2+xyq2X6eIqgTx/bh0apHvL5o33zQ6Nx1MTxPII7fHCxbR4eTM21KbaBh6qr2Efhj+6szRv4pcYBNlRDKDXoWhtuvC73UxM/RXu4hd4+MI8sThzEiZd8PZTgdtDPI2f5j8K2jOxit6ioU+LbYwleitjgSQ+tzywp2/XtFVgndRXtcQBc0QuIL5KPtaWZaox4aBNstYyx2el0F3z9TktW7rl0HdP8A8tud78RT9j/9mCPag6BrS4QCgOFD1lZlg2fvPJjmLBdZDMhSTpiDspvMociAZzo7VsA2wEdVYITB4Wofoa35VyM8CaxA59IulzwgpM2y/3AYNKze8wXFSOyx8dl5gKwZzjnooCJkwmb0z7NuyKRzUnL6+hfh2UM1MYbbAXHwY1JfHO+owyDgdm6DtsYZJ/7qHdTi7zkzg5mSXsgu2zbQFbkCBMZk9gTO3kbiX2nzsminvYNC+rC4EK702+5pwNehdxJ/4oZ3frDpje5hpWlB7To8hcXRFs3/yUz38EvJ62LBcLu7lW7cJj2sSYl75zIMl9FZeFz2YZfbuMo2Kd6PiG7JO1f1DErh2JiuTgYYgG2s/eimWKxSKDozDGZyUo5VNEm+4SNi5C3twOEA4vg6RvbhLkL1uTk836TVVr6mtTFeQ56eog5YSOeNtjJ+64gmKP9fJtyKffZFYiPmQs5FyNMBkvvrY4MZQW/GT7Tx0lrhxE9cf7y3nOOH4jk+vM6hnaFC0zWeIRcwKarv5SX7UgbsdTKQWwIX20ALbGR5w4rGPFd+CX/ffwuzMI+H2X6rF5nW9AhjvowisDXbMwSwdxuUJ5xRBzjKPDU9p8MJxxJnqvjAYSv4BeAd9EHXsZC4SrvT6TCp7Kv+RiQ+UJbY1QYux7bEsHZ2Zl6rDbmosflLCc/fOxzUSDxBgI8vzgSBC5A9Pn12ExGeFjDaVe6gf74g/B/lG29THkGhPqBUd+8PORbCERbhVL64hYzTmPum6M199XzxNYDj40IKERu5IrUxeXFTzLc+RDyt7Kb9ofFJvE4ZpI8O8W5tGumD2YY4dDapHzezhZe4INr9I6+lt8eZDZd5mHL5fSZHIlNZ4m+Zr5leNfa9KnwBXvYmRNgmYShvI7ZGCLtKOXspxLFkW8S5HquP9NndVZsu4Lh/jf+DhYIHW8QMvLEMXbQ/A2CHRRy7bYC8iWOyrl1LH+DwPAahUbKVOQztVK+Rvjk3kn1DUKhpeyHIzh8g+C8KTDuvCBNzplDCpOSsW8QXHmBK9uyZ5zs8bbCvPjDuKsxBb/xWTdheyrDhYVcyp+guMBggCgblIrWnJ3CriCq5QxmtZ4xWBNf9/bMo+1HZvYqw/86zBVz3yxvf9osnn0P6vVeUS0Kyzna/PCt3zW7g3/mRhs+VMKJB48fmoM3P4c/jeIwwPUB3iDMszArOSVV36xwXhdMgDYMMn88wYWQq114kzpM1i9Qp50rr5rt3efMweNvmeMnb2DCZ5fPjVpxuanCcp6PYHMFe4xYKNdzXnM1Vd/59mCAdvHfIIhvuZ4cX1zh0QRtOeMbhMBPOS/89XH4yxK7qOXTKm/tLGU28nMpz3l1BVOEij6xNt15Ll+5j+kFJkzU7dXei3bie/3xG3j75Cb6HCe+V+y7Aj6bjGveIIh7RR2rJG1lbxDkvsh5EbDknu/UMsKEVbxBECHpScW5ndFxWtQFbxDg61H25sovdyjnY16e2WXpFhczOGAApvx6wL1n2f7YhG8OXkEfeH1+gs8xmOLS29nwZXkcltP0LmzyDQIXCcINj5hCH1yp++ZSZIIFzQH6OuX4FwzvPVmbDwoI+dvDE/M7823zCR/YcPw2fPgM7p2fGRdTI/dC+Mzp2txezHF/4A0LLLEOfIMQTuiiVszLOevEsivI+QYhpIYaw0QqGNzpX7EX1uZTGOuKNwgi7zgu+p6bHoVjDokYLQ3fIBAh5VZl8MUw6JJ4dA04vkFw79l4pbjOM/EgLHdvEFhPf7ImwiU0V5YyfVnGYr5BuO9N8RTMxQuyLV7K+WO7fc7VKI1/g2BVwHVnfLj3+m/mJ57JTCrLxKKUotMt9l4wg+N77i2ClHfmnKx3Eat+agZHeDLFTZ6SlrsvmP7Bm4CUG6RVBzr2eoqI4bypMdHH/w4CtMK/9dYzpnd0myeBmfAcl2HD4Ecv5homYLx1WL/5WfwEhpNDjWygzZ2iXnwzw4n+6K61XytWW4hJF74uTx7AD/7k0pg3Rmtz/8N988Ku68ovT++bZ578tvnG7k+b8ZV27hnY9vTul8z3v+tLhTVU4/dvPzZHdz5nVvbvn3tmuH3dLI7wm9FRKeMBnW84wcsvvNFZeT/2aVPB3zno4W3FaLJrDp982zx6+yv2jUDUfSl+AABAAElEQVQbxr/Gm2Vr64qZI2LlkiGxY5sESga0i3Y5ZvTS4i721Tceb03wJ2SzJ3bybRQKLnCynGAxw3TKqJXBwBCIl0453G3jxwWHDT/2KQnjhLamqNvNrWt2QvsmFl6pURkZzXEbi5LH4LZuQA9tyjltX0U9n+CtYOrvIEyxgOIT/UH+Yw3R2t2wV+HrQ++toCDbct5Pe1hI8c46zN+UtCEwBLCfw51rwH0Ti4PPHT+xPrejiqsc2G9iMfME9/OcK5PuqlkwfZ2Cm2187mGs5p1+vOib9z0cmj9mJdzXtRsPze8sMB57ZU2Htxdr8y38aOH6Hp5/aQC+3D0Zmt/EX0Ud8H6Ckn3Yo60HqHf76FK2wmrdwtdt6u1M7nl7Hw58z4AL2Z75h4gnwZjEKTa5gMIPWg0eM5Jw5OoFVPYe3gUUS6XM6ab2QTlxe7C3jTniNt4Q01cRj6n2y+uF+TbeRMXIZt5Ym8+i73D0v5fZlGux+ZC/D5Cceph0gUvHYkjIcBabuECwr++tvwk0cdLGDWonb2LRiaMT/SPW2ozAiS3iBLsGPu8KXZZRL2uPNvFJ4odYvEK3dXXD9KNZz3zh3rZ5YR8LI/SSrcna/Oz7Hps/93iEV5d+Fw38AkczhO/9wI25+dGX+DsI7voM+v7pPeydwH0T7NM77KDjWZuBitZTDCD2dT+6uwvZHMEtFNofv4BL+8rf1jV7NdJqzF3kj7msr7xRghV3F7zPOhJn8zhfRSd/VEAcJ8PYRFnimKzN6P7DnoYBz9p0+C6bYos41oxYTvjurAvtrttwzxvgxLazl8IPX2+730FI9ZUeCzaudk6K3hHHxIVJbC8QJpkTx09s4m2Hnoe/RsTzbTzM9jRi5MOesIUvjgW8h21cFSj/8ZcOzN+9dmwWD6G8455Y4W3Bn3rvfSw+AeSMg1vvC9hU6QC/oMjYDOSHIx1tcUaJ630QRGLViI2diciL2CCWx3KOw6hEebGZ4qvY5qv7lERpYvgZ45Nik3YEl2LV+epsbWKTdlP9JEbTBWGAL+9+7XX8rF56FXrMz77/ifnJ5183hydHeNGAXzayH7wUXPLjzmezY6x075n//KOvmR0sKiweA8I/fmvHRnjsDgN9QQhSN5WBp4QB3rOMzsp7mJM77+l9/JLhn/3YbXMyxqt2/OLcIRYvB/gc4cNjOb+/HJo//OoT7KFwP39YIJ5jC8cYTZeXAS6iNF1SBsb4McD/+50987k72+ajz3EBwJ+JG/Pfvfzfmt3f+b/Nr34Dr9zxZDDGz0nxKI+fihzgVW/f/KErp+a//Nhr5odufNtiSA9/bP/LX3nGhoHFCwRNyoAycMEYYAhn3sM/8vyBezLEePDul47MV/5Ez/z5z75gvvZ4gjdI+OU//N3j/eUKv2vRs/sc/Ml3PzT/0Q/dxZtDKMB/LjA+d3vbji0cYzRdXgZ0gXB529au7U+xAPjzn3vB/J8/8c+xkxpuZj45DI7Mf//Rz5k/+fyW+X9ev2K+fngVv+08NDf2HpqPP39o/ti7Hprr2xDkq0Qm9JK/9pUbiAm/ayZ4nahJGVAGLh4DvHd5D/+1r94wn/he/N4Qf88Y9/j3vnxo/sLNb5i/9Y2r5h/e3jXL0zF+nLI078GDwk+/+tD8ES4oeNtzLYAXBofYXpljCscWDQN/8fpBise6QEhh6wLK8gb+/N1t819/5kXz33z82/nPH1mVj+P3C/jBnzbYv3oYcPLnD524MJAHA/SQ30JAp//h88/hN+t1cUDeNCkDF5UB3sO8l5/fmZkfe8VtgMb7/ZnJwvz8B++an//eu9grhL/Hgntd3hTKgwLGhhkWBf8VxhKOKRqo6aL2gni/9XcQ4rm6sJK8kf/GN66ZX/r7r5i3jvDrOVwW8keHvPGzm3/AAYGLAj5VcB3AnoHPX//qNfNnP/UKNsHRoCxgRJMycKEZ4I6HvJd5T/Pelvvc3vO89zEG2MUBaynjA8cKjBkcOziG/E2MJbo4IEGXP+kbhMvfxraGvKF/41tXEIdhan7hg28j0Mojs7+VrQ78FwPZwuELeEL4P7580/ztb16xA4ZdQDwlXGk1lYHLzADv5RO8JfgvPv2S+ftv7Jl/7wN3zYexDbP88mJed44FSI+PB+aTGAf+d8RieO3JRBcHjpan4lsXCE9FM7tKcpHw7YMxBoYXzV/6Mn5Z6daB+T4MDM/tcGMebHWKLRv4i0qfvbNr/ikWCMeLnv7OwVPUP7SqTw8DfJPANwX8HaTf+s6++cjNI/NDGA/ei987uIm/bjjGjxJu443BF/GnjJ/GePDaY/5eAvZXwBii6elhQBcIT09b25ryZ5BsdC4UfuXxDfMrv38dWxgjfgT+Vn9+8hhvGPF38JBhlDb9hcSnrHNodZ86BniPc5fGz9zZMb/95i7GAcQ4wF8x3MWfLc2zzRd0LHjqukVeYV0g5FQ8XQd8zWh/KRE/fLQbB+G8z19SxCZYmpQBZeDpYYA/SbB/jYCHAv60kQ8R3JiH23tperoZ0F9SfLrbX2uvDCgDyoAyoAzUMoDNnTd4YiTG/9SqrivEinQjXKZLsCkrW8FInrrzVwoul+XK26trtE3BZHkdhY1lxAg+tk357JDh8rzRQP0FaxM6UpJgJI/BUjZv98xnlMVadhH4IE+M1RVj1MnQiv2XiCO6giXlHUkwFONxavLxXdhQNjzvwvO6YJinJB+XgqUVh92Unzpce8M4m8S5T0w9fVke865kHptEXrCxOJGXPBZHOWIEFzuKCE7kJWd5TCLzxMTiRJZ+Msm5O4v7FkysTdHq41KwPqcpuNCu1FnK2/JNffV1Dhe7z6ND1N8cRWngFibCxfazNq5CD0Ek8pSJFTi5Injc1oz+h+AwiLyDT/sLjEKPw6+2bqL38lj0if763OLh63pyBRDQxQA4hdIyqE4l/UPwJQ5Gxe7rdYKZKtqgrQGiMfLnd9s3s/DUTUaJC/Qh7kOPESFtecFPVUOAg3wf0S4tpwjQ4acq1r8KnOUli6mALVYrPvniOPb1DRCMKJfvmEALHF5fsh8wqNQCfaGkkcbCuqEEAXIGw238OGRoQz6PpldsHIdCJ3E1KfcJr01He/gZK8IvI0hUJ85TxUiOA4YaR5taerxrXYdT1JO4fALM/XHIOj8oO0ZAISaGi27qe3VYym6xPQM7zlr47XieoM8NEduCAZN2wPEY4akLmyGmOJfom4zfMB0iZDzwMThqoO+s5y4CtxFfBGuqtn1hsTgaY/xgXANiaTOPxhcB30Pwreoi0QHrOKVVXt1FP2CwJsYxaZLzyxmsaSfzcwf83kDgJYnnUNQEXDT4zAivV4FDzDUb+MnHdB0zkqMN94XfRixGkQZDmTLXJgguhfqxglXpaon4wSu7bA/k6Ak5Pz4fIlvO3exzI7DXhuPEx0iMrB/lngWBjO5oMYGLTXr4s3VuFE1xx08Z2ISj7WexJGEsB2/mwxmT01HBophXtvG9hY9sN2MhrV+FvlvZmO5KWkG46KT4fR1zEn3exnfRD7rwuQozHNjwyREAX4STLgahAcMgIxxtfEKDYHBmOOO+jayY5DImTvwy3SnjdoU0hefOI9dhcI0dHj5bbMoID9wag0lvRpuVZq9WmwsE3NCIf+w+iKiXHs2RtxfcZTQ++t2YwjqDWyxM1gy9HCwQQslcpb2AL04mGMhc2OaIeuYKMDBj4lzOEMMhJVl7mBRsNMcTMCs2Gz21C4TVcgZXEZ1sMUM0bUQOJNeRiRMCJ/kFoiPSbkpacULBDTYDtiuao9RE9A8wKcwY0ZN1rk3VcpaIHmILfmoVlAopywXNKaIcdiYYskMkaFxyIIGPp+CYIaYLDwot4lNR4o5swCTcVycIoVzva7WORNL2CP3uGDaLBUKovXpObSv8nJwLhONGm1WclIwRiOyoow+EdaVN3o1cIBzjF/jC66xNmLhAcKGaXX6ARW5qsKYJ2uUQn3lj/wmtunO2BL08ALZtFAnRrAXDEh/AHieWcqrWUa7LFdp6DGyKTXLJ5fBjUSJKG3KKcVkhgeIfYwGOLZ+SbHKC5+jRFHoZl2oTOdmCbeKqM1+1V1glKKbPc3zP0R4PMK638VOnhYuLB7hXIimyZulrHz2Wj4vEFjbjtQx7Nhyx1Rf/hUr2GGaVg1fiAoFRCjnIWrutE2DVnR4GEudvfAW5MMAMhhZijkEzcYGAmcjh0CHqk1fOiZnytCV2absRG2pkvaBvQJvAefx015iLL3RBa7/8BiG0Uj53OP5yosWm8ANfueCj3aSEAcThHNY9Q7Rr4BsELg7cjwiW2VuAblZEK3F2QcJFScfkIBjJ2V9XXEAB17VAEIzkK/hNXPWJVSSqOSfOJe4TpiXw9ZNuFccSyi65iAIuJllbOa/8jfYlnlbTbDodeKu4Mc4tTmL8pQxbfcH7C3VlnsIP8cQ4PM/ikrPJ4dYN8t5d36iACwTKE7vEMSf5+B7rXp0TI59GQ8EF2uBkMIeTM+CLiSEQrDkldo4ncizFaxYINYCsiDiOdLTFpWmKTXLJESRiSQspxwsXFK4HOByW4Ek2eXfQ3wIX06LOJmY+4OoWCFDYkMgP72i+eyI2hR+qJIaB36knNpEf4ljXctD4iLpmIvA5QrjiETH+pyLQUuDjNrXdor5yybchtitCDQWCjcWJfIM6LVYGlAFl4JIzEDtaCg0yakou5U15KCf2wvImPMtFVrBtsv41kZfcv9Z1LBjJu+T962fBCJZ5akpdyKTqV3llQBlQBpQBZUAZuIAM6ALhAjaauqwMKAPKgDKgDJw3A7pAOG+GVb8yoAwoA8qAMnABGdAFwgVsNHVZGVAGlAFlQBk4bwZ0gXDeDKt+ZUAZUAaUAWXgAjKgC4QL2GjqsjKgDCgDyoAycN4M6ALhvBlW/cqAMqAMKAPKwAVkQBcIF7DR1GVlQBlQBpQBZeC8GdAFwnkzrPqVAWVAGVAGlIELyAB2UkzZvFFqSIz/kfKu3MfIcRfGvy4Y5rHJx6TgqN/HxtgTeZENz6W8KRd5P2+SDct9DI9j06Y4X3+KPeJ8ef/Y1xkeh3LheSiv58pAlQHpNZJXJepLfHn/uF7alYZyPA/LuvCCOQvuLNg2//xrvp9y7F/vOk7BhLJyzjw2+Zg/CFyKTdbJ93fTOqbapJ3hCtHbkhP2MmewpjWxSfvwYy9y4hhUiNg81kCc6w7HGF5x8rZe3LPdRldEPsSO3ymxBugfsYyOJ5tzVkx7Bdj33Mpj334brZJYm2I3uSQeu4zj0yM25ydT05ohooHgsCd+XKLvDkd/iU/iB5z0GH2SOKTYWjJwUR84a2tNbDdy3UN8APoITnqIU9BnXfsRL8Dy5qFN4GiXftPhyDQAhljmqbEYbCRIYFNiMbBNiGMa2tx5G+MzazZAECuH664gowMwkiPrRTZtVEf2iW5oLsFgTUO0zYh6EpDWNnH4rCSkYd5eufrKAUVG1mbPYp3NCCBwrBexE3xSkthE+DZg4/hhaB0bcRKGmNNmfbCmet9ZyqiMDLwUH5bMjY5Ta69nmKfU1NqEPeK4l39n4piHxG+OdrTF0TLFJtuEWOJiEv2iPDkhljjGckixyfBrDErF2S8FR9uMyMjgSSkRaMiPRHNknmLT1RGRQYEr2IbCjkRfGcWRswHjRyC+WXIarsa7ANGFhIRJd8WQxAyeVBP4pjmkBBcIqCai6q2WsJvdpM3yZZ/WiOa4pr9ZpyxfrZ5ZvZBliGlEB3IfdPyYZKXo3wjdb8FulOHaSKYNyjPKIAd2+GuPBWu1tCmAAKNHchFFrDeIVb0O9WDQQpTM3gghSCIXCG5MdjguEPq2LWkp1I0iL/m+9GFzYBdQFGjH5Sq4QADOZH2ne1JBGyKCXp/cgBNO1AOEQ+aCIUy+b/41TtADLCrW7LsrTr5lX5tw1CHhnpfWZiiZ6cmy8OoQfX3IBVRjny37IT6P+ojqiQaiv9L3Qt0i6+eUGYGfEex23lcwDQtWnmGTeTzmIsjrr6Fu/1yOuUAYo783YZv8cPYGCJuLENyN/IgVl7N+ZGyCtmfo5CkGwJK/9XSWlExwf/LDFMMp5ah2inra4EsYFiq4zH+/fIH2w9ISIam5kOmbbSxouYQKU7XESTDcs9hEuK8Q1nLORQzDPffMNvKUyYhKt4DZRoRE9jymwr8aHyDLxCtii7FSCwyvFqmuL1B2C18Mct+U3FjlrtIvyvIuJpbHLHP1rPER18LExwTiOPvF4mjL2XbBrOJjwrKn054L93xi+ywKskS9NlVcLwp2MQ7s2d4nwtU815Ndoq97wHGBwPBrRT8o9IqWECvdbTg8vCMy8TkHLXT4wfG95GiO69GuWXFSOXrb6og3CklOYodv4aBawUY99JVvOZBvEu7ZDuxHd2m80UR+gbY4OTNqJD/gx9homQW23XNc5WSCiIxrYsGxpHYcpSiBJ7GTB84HAXbmmKztYg1YG4K78LUKDa/hHD4uUkOGczAFVza6IkIod3HLmjGa4zIL1bxYHJnZyWOYri4Qqj67Ei4Q+JQ8R5jo1GiOAyxMhlgcnJw+sTqabNSW9xG9jWG/IydA6uBwshy54ed0znhsGe8h/TUGrSzqeTSPC8FtbaHPMvojJ+lDcDzD/ZLbrLERFnGBALQ5YDhs8TUUqjmnbUa3O8C9ErtAoBr2hykWJHwaP+BDSoJN4jlhP7ZRVnnWlRzptMkQ01wgHNkIm104PNWCzyNwy6iOxNxfLrBQqJsi63VxgCc/T6CDumKT5Qd2dvC5x4V1LBByxA4AuMf7MxEnURwfwtcUm2SYn7cjq0i/GIWRH4tD/hgfZ9O1F05bExcIvMPuQEMKzrUJ+AEq9Q3CLtjlE/0djNO1/LS4zpHuzR7eRLbWqnyRvvJO5gLhPufO8uX2M/QdJsReToIVSomTT1HacYTqCUbyDkTpco5JoQkaiGOy+JZWcFLFt9iz+EhcLgt5wdtuXKhtPhJ+fGyzdPkKsRkuqRsJTmwij07EZJ9oTCYoONsR223aqyU5TAk4T33dL5iNcGhDwadUlZNXqj3qJ87mrGd2bAs6vpx0OkbUborfBGfrZ2tHdFry7aWiaSsV43wlrvh0ecxRR+rFXM6lrAvP64LLRrAYiL37xRbzVKzYjDKWCXFEFluSx+LFXoqflCXOx6bixc8UHOu0Ce4s/Pg2qScl0VffdjzWWUrlJl6/SioDyoAyoAwoA8rAhWVAFwgXtunUcWVAGVAGlAFl4PwY0AXC+XGrmpUBZUAZUAaUgQvLgC4QLmzTqePKgDKgDCgDysD5MaALhPPjVjUrA8qAMqAMKAMXlgFdIFzYplPHlQFlQBlQBpSB82NAFwjnx61qVgaUAWVAGVAGLiwDukC4sE2njisDyoAyoAwoA+fHgC4Qzo9b1awMKAPKgDKgDFxYBnSBcGGbTh1XBpQBZUAZUAbOjwHEu0jdvBHO2H3BiZNPrIMi7+exWMptgvMxPE5JPjYGJ/IiG55LeVMu8n7eJBuW+xgex6ZNcaJf8HIekwtG8liML5eCJU7kJfd1dR0TwyS5O4v/brPJzWLD5NvhcZ1MiHnnzpss+l751qRccv9a27HIM5fjNnm5JvKSS3lsvglOMJLH2KKsn1KwxIm85L6utmOR9/M2ef+aj+FxbApxKVjaEHyMvVBWzlNs+pg/CFyKTZ+fFFxYxxSstMNwvvsijrsGoEA1Anksd24hKiMi6tVEcxTlRS54hGfJojkaRI3LYyQUgg1HDr/efhbX4Wt04BLgKDvZR47QFTbEdFddPRe4///kmkFgM1jNcFIVTyw/pI3JFdhhMFLIbz9jegzaJNhcsOkAyhHFr4dIjjaEiI0/0CSblef+IEDK9Br2/eeaj2E6mPKL7rT2GzhGY0Qwj56NIMiaxuCcsiHrm9WvF9sukBuOd1ywJtjOuW2xy2BNQ/DCcM1DROccs64I1pS1Cnxo8DkrZmCg8XjP4le1wXYa8NAs0RzpZzWuQjOODE0RfdQx6uT8qHS8Xuc3JccIDsVr6eGeERmPkUCROtsRhsjLhBEnEfyIAaV2gJ003NMF11Z9/sWoitTBVCdTV0ZZ2t5FWHNGkmTkQpuCPlSHpSSjMdLuEFjXfzK805J/1+H3baTLXCQ7KONznLgFqR3YdBEW/X4nepxgjkMxgzQRwwBNu8hvIugXfQ5TUzvxLr6G+3KCAchGcyy76HFdvsAzG80RtshO+Jq48KCMo18suQFOGbBJRhGW+6nAozRrL+IYHIq22HNDmyiyqYS1JS509g1cqF7LQMj8a/SLgY8watnyW7ipGJnR2gyq5OMgkieGPbqKD/tOna9NONq+BWYQF9YGe8oVegcVLHyiWy7c88qMwFmdTVFRwePCc+uFxbjqBZXMgCGOvl5HoC/HF4J25bD8QExWctE1HB3erlzsLMAEZMPufpejOa42jOa4PkM0R/b/Xmo0xwUWBfwc30dwR4k51skqBGCM0RxXs0o0x240HcVAy8iK6BTxCcM0Q0SD29UpYqLVDGDNutCNIL9JNEfGxXPRHL1ohY2G4COi0i3mx8DMkR+ZOSJPpkZzZBS/jaM5rhDNcZYezZELipN5ejTHFQYEptNFDD8FcW6yjIzmiC7DSZqRHBdYFDCi4hE43iiaI7AHwDr7hT9tR7Tdx+T33Y7mSB8fLdDnkWQgbPOT10CVWWLcYzTHY/TFKo4S5SRRHBmJ8RAcP0CUVkagjE0c2BEh2hxsGM3xFLbubxrNETjaj02s/Xc3miPuK9gkm3fRh4pojnEeM6g5F11FNMc4nG0TiCZFc4ST5MdGc4Svb/FhzDPnH3vFpUMuKDaJ5jjDsoKzwQPOnbmhal8tGfNOsJBK6QYZkhj/4ylsP4RjG+ECu5budkv5Vd8ej0tNk0s1Hwg+BpfLsgG8usZgrQcexvra7Fb1yqbYDEcfk/khRvBVjxpLLIY4h3XPEI3S9sLa+gZ5d2afduXpJStszfh07H9ahYOLm+KoZhMsJ07iBG8PEr58fBfMynr3U3jehed1wTBPST4uBUsrDuvyFJuUFbvuOA7tbBLLJ+uYHuuewIURh2t+Kq/zgqOV/6mTqSvzbRGfkjbFCo62Um1y3pJ6xvgqsrTJJOfuLO5bMMxTko9LwQo/xHDCbnuDUOeP4KTOdTJhme8rbRbYfKUQQirnqX5WFGiBMqAMKAPKgDKgDFw+BnSBcPnaVGukDCgDyoAyoAycmQFdIJyZQlWgDCgDyoAyoAxcPgZ0gXD52lRrpAwoA8qAMqAMnJkBXSCcmUJVoAwoA8qAMqAMXD4GdIFw+dpUa6QMKAPKgDKgDJyZAV0gnJlCVaAMKAPKgDKgDFw+BnSBcPnaVGukDCgDyoAyoAycmQFdIJyZQlWgDCgDyoAyoAxcPgZ0gXD52lRrpAwoA8qAMqAMnJmBM2y1jI0b862FY/0gRj7+RpWRWz8K1ts0stOyYCTvBPgC4ivymBTaCM87dXj2iE2pp5X18J22REDsZFgpjs49XGQz2j4g/sbWscSH53OKn6k2c93OXsp2wDkUNuVfUdZ+5MtvYtPHt1tiD3P/RC48l/K2XDQwT0k+rsB2dyK/9dMsOu8En+aruxtTsL6sHDOPTT7mLLizYDf1NcUmbUhdY+yJrNgIz1N0+LNQDI7ytCfbGMdgKCMYyWNxIic45rFJfJQ8FufLDZeIipecsDBYIUJiDwFlNonmuEK0wx4CEjG4UGvK2JAhY41ofOvJMSAhTeG5pxW+rid7gJAmpMhgKdYm/UM0PrOkzdwLq6b2izYoj8h4po/jCbGIWplj/aM6DagHozki0qGxUSDJT0vdSiqwPzyiHPaWCPKTBWsSj0tilRMEzGH0P9YVAVocP7E2EQkNETL7Y4Zp6aqbZxiT/QA49h0G/SqQ9XYZAXE9WJo+o4cy6AhyRnbkcWxibIMh+h1zRnNs4rWOsz6i8A3RLuMh/a2TaPZihGiFS+AktkIoWaeNk+UYOPExD4BUT09JJfUxsuKCQb+yVGdDrtEW5RlRkVEFp8C54zZUgebRANgJomwubJTEGJzD0/YU98pyPcaAm1Wuo470kSIT4Bj4aIV7LufHqe383kJkxRnv0ZZU1MI5xO9t4BisideK681KGKxpAm4YwXGKnBEdk6I5wugOcKyxjebYbKpyRaI5zuCo+Cq59KsKCAWsJ6MyzshtnUBDGXG7wNBbv0UKmwKkZDlRZhdfHGUbkweztiDI+KHEIlavzTmStNXNXs6+OCpjNkFEx/q4CFW/HZCc7Gft4cKpsdxzzolVvimxA7ltsHMKb52vgVimps72FfTzo/wu6bZHzZS6hrmAox11il7JUdSSnA3cJRBHw7an0CGHsUErfWwmVtUmJRBAh3euMheaQv2ZNxksv0pbvr3cadGfFwQHvE4s7HWJ+kixZ21mQETjak2+rK0f5TswvsIcD0x+7AvkbPiF2TGGylpMjWipKPORWIsvXaz0/6I27ih1gLbarUn75RkTfV4RD1ns8e7sobDO1wAqzheayZEo9YRbaKW45dUCnSZBNoXqlevMU/mx9qwCIr2zaqxo30yOcBbLflYEswKn3dlxU28qOpO35gpffXutnoBT0ppXrVWYWn1GeOps5rBKO1YKrIZc3ne05thZcxecJXrgPjXipaJQLjwXYd+GlDHvZaRYHL+qVfHFS8dii7mMsoUAS5nqFfpYJ9f87WuSEb3eZrsOsSlSolfO/ZyTNG2JjGDl3JdtOqas+FvlpwlVtD0XQk326srJtPgsdputyJWifagzHGvq7AiSOXmijG+X5fWpsMXrons4OLlfL99WitXMGk84xPYYSjk6YQha4s0BnuT6tGsXC9Fgsxpumd7JAwDKlWnVwKd6VpdPGggR7AaUVkRx0S4osNZkCGVLc3Gp9oi2iOHbEX4YPjkI99zuOa7yyQ9PHmsbeplNG5uA6U8QsvkJ8FwzxibYtG8OGO4ZWDvgxmIxtA1HZjk7iAU4OdSvh9ijK7ztWC38tzPNatZ46l/hrcqaK2JwupgdQkfEG4Ssp69WeGuBNwGLBdbheHPR3g5lPwbrEeyuzAxhplPfIPQHQ4RsPm58g1C2lNED7/iPaZNwz33wcmL7ndPX9u0sIeQzeGW45xNwvEm4Z95ix8A2TXZ1PtD2CPfLEcYE2o5NlFzijQXfIBDrbMqQ1q1ltBog/HLx/NeNcCMOLfANwhH6Yow1vkE4Qb9ZZvkT4FLDPY/xJvIAOhgyOjZREu9o4SvCIAObNooAC1uP8eHIGZtok/K09RDY8M5s855c8n3XwzYhXJdEO/zwvSWxGNXtx9UzpmWM4RsEymMGS+KHdsntfaDSZj76yzcILlR0bZu0uL4F7D28MY2kCFYcR1TJ2eA+37yyMDENUyfpXL+dPGGSeXRC9XxcEhZG7KMG7aXQlOHYlaztllYI6yHy1s8YHG1QLvtYf+U8VN5wLhjJG8Rqi3MMbSYkwUkeDfXqGY0RQWBzexH+UtbySryPFX3tuYVLuyCPsJgrlAmIeRqSnqZjaFjspOJFXvB5JVoOfNlN8ZvgpJ4O2+JgzSXpDWK3RqSxSLCNAg0XBCd5g1he7MvJMfPY5GNScNT/TmFjffVtcoQO/Q3Pfb3ia8pMIhjJiU3Bi4+pOPr9/7f3HmCXHOW54Hfyn/NkzYwCGiWEgoUCcIkyeDEYjG1YDLbxZYleG2wWMBdfjANcjJeLF9bcXViMw70XGwwY/JCRhAQiKEsojEYaSZPTn3M4Yd+3qqu7Tp/uPt1nZoRmpmrm/N1d/aV6u7rq6+rq+gxPFn3ssWy+LLy2zow9n9Jp66asLCmrnVlkO1qHgEPAIeAQcAg4BE5RBJyDcIpeOGe2Q8Ah4BBwCDgETiYCzkE4meg62Q4Bh4BDwCHgEDhFEXAOwil64ZzZDgGHgEPAIeAQOJkIOAfhZKLrZDsEHAIOAYeAQ+AURcA5CKfohXNmOwQcAg4Bh4BD4GQi4ByEk4muk+0QcAg4BBwCDoFTFAHnIJyiF86Z7RBwCDgEHAIOgZOJgHMQThi6WI4Cq5bpVQy9tb64oiHzXDpOBIgtseTacB7GPM66YNZxWuHYHQJpEeBdz7Uaq1ihq4af2uI460I3afWdKXTEz2BbwypJ/BFn5jlsT3wtSI5YcuL1nWYSUSXVkq2onnkE1ykjgFX3FizYOIwfloDtPgtLJo+jBmMJYxOcKkfIuf6XS4kIKIcAtz4DMhUQhKo8hgBhm2W1sE7qXcC4C8tf17DEc3UBYoB/DounZl2ZM9EAd9IhkA0BdlRrcAaKWGp4kD8sYX7e6opsredldm1VxnE8g2Ww5/BYxpX8SxFLEmfTeGZQs+Nn8Chuu4HZCJZNPwsPXptU0DWR83BiXz4vM6BZwo8LEpeQ51rZ468fx7HUMuDHxYhulHkpY5LiMbwZL6HhjREdne3pYnXJym/oubWrGyqp6vALiCg4fJnkh39Bcn07JFcZQ2fGyIjo1BBqLH/JtaoDa6wckcbsTqlP3SGN+UfQOjCSJQiiim90Gd3RhYrJtcoaQxGd7ZUvq04VQCmETbSC5lxVbsNnth4JIoSyw891bZbcEHAdvFRyPdvQ/w/IIiIqLnLx0L4XSWkLVjZfm5bG4h5pzNwDbO/GYudHgSnjj4VXgjfqjS5lgMlMsbX5NG96CZ0sJMyqYfRk4zdLDxv+FIXzdZG2U36NUDZbtT6jM6HNiCiE1kde/Ysgic3qhIfCDJ/ZGgV0Cmj9OdWaPG91Ta5dW5PzazXVkVUas2q5Wz7hLoJuHB3ZQ8WC3Foqyg/LZTlYyKu4AAW2KaFk9Jht6HTioeEx20Ti0EnDw22WZPNl4bX5bH1EZAWY9QGbZ62uKmwvX6vK5lpd+pFnnm5/BXQziO2yD87XncD1++WS3IcteSugo/wwurbOtLYaOsObZfid+m2+LLxgVbzkCZeD55KS4eE2q07KLa71boR2U/QYVb5VZgfBXXrWIzgQQhNnDdaEML8NBiRSDXkbvSFzGt3ogGlClmF70lYGwYMhaYbQbVdWWyefSCvDUMlK5tnKkYBCt+RHniX5oWvReW3XZVFD3gx0ClXKPuwhoIyUMZqAp9/cwKWS3/wKaSw8gs7sVmlM3a5tUiMKRikKx5C5DGXMLPVEbDA3NKGtfxqxNbuGUDzYHIuPT2wJAR+uCXXlGAIX+HgltWjMbpgfT0sI+w2FisCPyGfI/W2YDzc3QlPXgVm9ihDOGjXldOV6z5P62AtFBi9HRBUGYwWvGk0AtrCNoZoZjKiBa5ArYmQBzoOM/QfJr05IfvoOyY/fCKdhP7CnA4aS+A0vQigjFHceZWSwpvgy+kZ7Owg8g+vIQE/kyRqsqQuhu8lngi/FY2TrxRNQkbhQt2kGodsmidknTXeJoV1YZ8O4h5gILf4x3HMRehiSuhe85boua4g69lCFM4YMpjQ2GkHU3Yt7knXW4BNcL0MVvS2jDjDwkQlN3baslph+2GqQCew1ORYhd71sbhiumcGayl7gmzqY0RrINdWq/Nr8gvyHlRXpZeAzJtY9LzGHjTM7uj44DmeD/n9ZXpGJ/JLc0N0tX+7pkceLeRUkKeDSqoegqwxHfA164+tOs+08MuGebZfNlq1Na+ZjHnOGVVugxuUUWSufytZ/vPuLfAwTzXKyJhges9XEUX91Bz4KQtsa4oqg98BpWX5paUV2wPlSdcPC1Uhj4KUxjCqMIfjbFXDO3ri0LPcVi/KNnorcAGeBryE4omAnhF+TQaVRtz7t7dTcFLMeDzCsQeFgTbEywEQ+hnvuAi+dQeJkUiyfIcB2g3pwMhjpwrTjY70bYRuLLcNMB/UnHT/VF0vzB7jNltAB5VDIwtJ4dgeh1I+ojIgEuXgMtciGqb0J6kabPwxCXcD2HCRF5ElEmeM2pyIktoPVksqGi5HbFo/oTDgHuYFLpLD9DdherGQKL5xyDtgmII76ypI88fBtUip3y/bz8QSMJwZ1q3km5/ovkkLfhdLou0xqez4Hh2EvWg/GMmMCEZ0ndGSNRbyayISPVlBn5EnPHi2z3V80zaVl6GI0R0SfjLgB4yUQS8SqX8oYERR1p4FOmh21iuZIe9GhFza/Ck4UngeK/cpZgEG+auJ47OBuGT/wiGw651IZGtuiro0pa66E2339L0l16JlS3/+vUj/8DWWbGU1g58e0hoiM1Jsl0Tko4rosI9plVgeB+Cwj2qXRn0YvO8uK53h3Es2RJV1IGWGTuqrAgz9GVJwHPp1Ec6zi/ppjtEu/a2hfUupmozWP+zNrNMcuODR0EOb9aI7t9dkU09Wgbtn5cfvEtNoo+tEcWYN6kPnWxSX5LXRi3eig1L1j3z/Y/+LCvHx5cUHe2T8o13ThAYX10KMZxf6rFxbkhctL8qmebvl8F51CNAGeEWzvGmg+5nF/ZI7mCB09+E3AYcnSyrKcbHbIR/1pE/lw1ypdjOaYRaduRUSOQAjlLMPuq9HRv3d+US7DiIHBy9+CZhzt8genp2QMTtv7BoeUQ6Srnq6B5LtspirPqpTko709sgujNoxSaRJdYEZXPIgt8Q7OGIrorbomODWOEoYdhGgO5KKAlI9WXXrh7B32HMxY+pgT+/EwmdZOiqCtS7CTs7VUNEcCnTHhOpKrkx81dcqX0cqfOzkuCxrQ/KZfluLFH4RzcJHuwDyvzjcPFXt1eUHmJw/L9MRBhBaGQ4G8psSGH3y5kWukeMlfSn70OsjK1lg1yTvVD4AHR1iKF75f8tteh9YRjajCo/VWmAGuS9NHZH4Gjqmqe1bh0UGRj68iCue+RQo7/giOBp5BwtfIYnG7DoFOEFjFLX0WOtBPz87Jm+EgdLOqhu9zCkb+rXAeflpdk3swFyEygY9Pvx+YW5CP4teLTiyb+xop9ZTMJIzE9ncwAvDZ6blm58AuETA7hBGFHwLTm1eWZY73fjh5XdPzVlblH6dn5ZewpeMRTibHI0/Vo1FGFnqbtlPeTvls3Z3sB+OXtMClaAToHGx9jRS2ogOjXxbzWqWBRqOnf0S2X3ydFIslNYoQ9+SYa6BjrIyK7Hi3yO5PSf3o99RTdLQBp2kucezaJIUL3yd8tZDoKKHhPOvcS2V2aL0ePYhqFAgT8vM5OGDrXgBnYUiqD/81Hv0wMpLpmeY0xdsV67gRYDd/HjqnT83OqzkHkY6Br6UhfzgwKM9Z7ZLru7pRN1udXp8UI2QvX16Fs1CXdw70ySw6syxP4b6cU3RHOwc5+f2FJfXTPTC7tIgEHC/G/I2PDo5IP+YecBQhNgHXUQj/r7he/f298kWM0tgjCbF87oRC4Eyqg51dcrxWyG96GZyD14Mfrym8QZ6WkQFPOvPHNpwtg6ObkRPdIJBmcX5Spo7tAUVBCue9HSMKHEngm7czJKEjZwdehIOU6z0XQ80sO4acI7x8IkJHq6u7XzZs3SHlCt6xxzS2nKMweXSvLC8cwxyRK6R4/js8xyviKeMMgdoV88QgUEV/tRFP+5+wnIPoOzzQtx3vwn+9t0+G1KvGIN/eW0JdvnFpUQ6h7l63WlUjCXyP3062LeNU3+eEwjdg5IAOgnIO2pSfLsGLMXfjOjpeCWkXJjfeite+pP8gRmhegpEEfungUjoEnIOQhBOecPOYRV/Y/jug4iSZuux99G7Zde/3ZXkp/n00OymOJkQmVM4ahhx3P/hjeexnt8jc1CHJ4/128by34rPIrdBxJgwwsunDe8pz3ii5/gvgHFRlYXZSHr77Bjm458FEJ6GOSV5xzkG+UJCJI3vk8Z/dLHt23YnpCUtwvK6WwrbfhDq+iXPJIdAZAqyxefz5U0xGPJ8T5tDh34fO57cmjso/zeMzZtOrRYmPcWYVKdqDf8MchbdNT8qHZ6aUGA6Ls6PkcPuZkOgcXIuvP96FOQeEkXfqx2Zn5M0Tx2QfJh7GJuKagO0Czr13alLePjUht+FVBKZ/y5/BSeD1S5Aaq+5MPOEchNirjsqHTxYLG1+p34ujstVRWTm3YGHykCwtzqIj6wA+yMlhSKy3f1QqfcN4GsZXHXiFIeV1niPSgczYMjxFT+D1Sn3oGkyXxmegnDeAYcIFjKgsTh6RGeAb5wC0K40ZZSj3DgHfEe1oYAJcfuPL1GhC40waoWkHljufCQF2Yr+MjvxZS3zC1T33z7C2wY8xme4WdD6ccNlpOhujDDsKRbmkpL8EoXw+TXM0YeU0dxL4GNWPUZm3wjmoeBCuoI38PiZu3gp8H7cnKWYEuAwcn45XERfide8G4EvnYxQPbn+8oD6WzijtzCR3cxDirrv3aiHXc67/bryAinbOBVfLyvK8DA5tVJ/cxbEn5XMY/ZwLMNseIxIFVFz1WWQDHSUmLubxxNuYuy+J/RQ/hyYBrxbyW37Vf6qv47vmkfXbcf9i5rXXsXfiJHDUZmB4vVz0Cy/GqIz+bE+Bhc8U82e9RnK7P4bHE8x7cMkhkAEBdmIbUbfevMivfbweG53Yr3T3qNnzl6ET6rgfh5zrKl3yhbGKdBvZ0MfFlv4AEyD/COdO5xpLx+t34XQ9zXIE+PXFnw8Ny36MFl5bwVddwKKTxM8f/wxy+AUIP/tUcrB93sqavAgjFrdV0P11JroTc05JnjPgcbWT6+J1YhteggoUDEax0+pHB7Ru03l46j1O6FBR+U1+U0fIvI2/7L0z78TuU4CHr22wbkGuexuwNcP+mImBTwnXbzlfPfk3YZKxSOTNQ1ZTok58eZIbvhLO3unc3DaV2h2cIATYib0S6xZsRIdlp360AZxfcH7Re/K3T2bct50DxQqdV6ETew5GKPAtVEZppwY5HS9OynwtsPUdL8/0K+AYvbynF2tOHF/Z2Uor56AJkob6UoKLKDn/oAmYloPj7OVa5J0eGfxqYehytWxy0InpovEplXMMTkwKVU90Xrm+87GK4FlW53liND01pKC8WJI6P/ZclI/Ng53wCodzN1rybZq0+yFcycY1LbC4FV7wpBXi6BwCqgPhAkcvx7yAcCem4ME5VOaTghRr6kvReZ4c6SfF5ExCuXzyc+AEbeGcjnAirgrb8IkTcAy9l2LEgosvZVky7QRoPuVEOAch5pLlhp+JMz+HzgQxBXK9F0B3uAONMfRUysaIQa5nq/pqwR6ZeVKKAOej3n0OXm8MRzgnT4oFTskpiADHDy9ER6ImJj7Z9qMjuwSrM46y7j7Zup8EfWxdOdT/80hc6O9yzPHgapguxSOAMe4Oqh55lIfHbRZ+eoUWb7xd0WeMziw+ta/P0x3b6ZuaAvuKffq7fH8IPNqcqFxOXNSvHzB8hdGG7MPl+Pyv/0L4Jnw/RmyNXVHa7DzP41YYYT918viIKXkzpwx8GJnhCAmXqk5c8yDGBi6xrJ7iYGf2URxgyaWbe89BAK0jEKOHhdOUWA9E8m8a6mbjNVc2XsNDScejs9mS6CNbl9GXVaeRcTx8WXh5FYIf99LeIxoDw6uPkv8yzsLlGObP897AfuZk83Rwf42gDdmBpZlvxpLBZhJfOxtM+extOx5z3ubhftoU5mvHy5ZtAGV7OsrWEa685uZydIAry8W4DgyYRVvSJtKybNxm4bN5svAZu4y+drgaem4Nj9na59LuF2uMU+Ajbdi0GQZ/k+tv0XHVsRww4zBkjsWANfgZi6HO5Y9bvgJI1tvAuvYNa+1/3564HSUOnTRs1Z0tM+JK5elG2XJYvCdXHlE8ap14VQH1+ThVzCft0sKMTI3vx/yCvIys2yblLtisOvokTvJquxp0Sqi/az2uMD77ibU3LA+D54zhwHfsMY5NdMnxzt6LxaCe6mlH+6J6yjFnooi4FNCbJuXqBTgI52pS6KE96RworD4BDMePPI71DWYwkXFUhka3kDuFWuiBLnUNsMRpoe8cKczek2meB2MxFLF+f6mI+h5zPaKxhU/Cul6oRpQz3nZ2lmXwMRGfOJ3hwmsbclLGstVVj7+ZplUndVVAz5gGxJNxGYhXkk6/rJ64AngrwGgNcpL4wteL7OTjMs1pl1pWdUbx6aWWa7xf8S99wnoacDS76WymSHlgcXGtFbcUrCp+wvcWF+UxdIKXYyLjs/FePXPC9af+21B3GWEjTSJVF+zuBizLuDaMdJGUbPRIyUmCnHeRpSMjXy8EsRZx2D4Ymo7WzZcKZ6NcG+AkZE6w7XE4bTfgSwfOL3gJ1kJYz68U2pSzSQ/4tmNy9BbUn3nsB/Y2UbUc0FoumczYGPFjH81lJr4KH/zlNcTC4un0WWIGwLMAW62sFtuCDE3Fv4PgIdbcT1vGQA6elccvfwvW+zaTurRgDr8w+RXHPzb5aFbQqeRMjAPPbMNnFKBZ1nI8fnXAGxO/XHU5kO8xGH7DZ9AwdjQQSCaP9d7DFcHwRefDBjSWqrpbM9iNTLNFS6xtBZz5/CiC1+ilSpYX57AiIt6bq4lvmsYzt2lD54CLHz16/w+lioU5aAu/yT//0ucmLuxDIWyQl5fmhV9JlEroGMqDUt7xKjgICz5Gvp0GFB/bwAyup6DjTpiyNNtrcPVlqdNwEFRjibPeBL64oB6G32gk7jkG6WE9YPLUGTqz1SdZn2oyh9GRNWxr+ISJS1FXuuC8GUZDGNoCHtm3+z7EYdilzyBj09mXyqbtF6lRmhC5dcjgTlXEx1hUiyzR+eobuVRGihPQqDsIg0VrmQ2GvD4YFYJOFeTJrydGjUfXkq/PF9Fw1VS9M3QhPnMdTbba4ppQJ/ZrsDmw0QPYo/Xx9bLNcRmTX9e8a0lSkx/cJ1qAOWYHP9zFB4WGXDp2gXamFJ+mM9fHYGTkmXuGlhbgEDOeg7bVK6vHbvQYOcxWdCAroe7VOPfEx6GZ1+cJ4curR71rnjPsY+TJ8VSrmDG+PpXJGe0FxJvQk48Nn9Fjjs2WHcLFs2xzRGbRmc2jwd2sOiOVFfuHfB+bmZEvLjEcOZogbP4Q8Rhe24eIBV5Z1ImIP8s4fxQTIrfh80fa9Wxcz6meIQTRMp1pM0b+9fAxhD5wkpufDJrzpkzmOK7MCJ8FvqAz8vl8u7V+mu6fg27qo2x2nK11hdT6PLd13E/b8KVY2RO1D07UGNYxaZmsSeKmlJOHsf7EO7G2wVFVb0S+DifsEyOjcBL0Pd1EHjo4CFwZVGoQ9XUUZXwzvh5jJMhwNE1TLrIH9VcLY+AjfHPmoc0873p4ZQnONOczQBRDUbN3sDtrn97jj5KHj+ERyVYnY1vA5+nxz+tjPlx0ebbR3kCnofcV+tcr0K3PgYc7T+aP6ow+r0QpN+ELlZJN6/Mrt+EyNoS3qBAY3menOTV+QB6689uy55E7WbMTEzuQ8cOPa+eADQgcipWFaTWawHUP4hI7n/nZCdl51/dk9wO3ojNhw8VLCRktNsdJ0fksSbrUWmbNF85Pc0zOMF2cFQARcywauEkfe+jHsvPO78jczNHEL0KI6wqcp4mjTwBT4Ehsgdn44cekyvXtcT4ukXcfFrbaece3lbOmokAqx8/mCNsed0yeqHO2rOz7vMRRP1+SpdLQtZjhE+sd09mGstsfUpcSbkgt5S1KFbEhTNwmSSFj0nlzLqwgLj9MF3WcjI+RrLd8tcClefmp3Lux6M5vjh+Vn6GDSqp3OCn70eF9C6sjsrPFoxQ6hpx8CesoLPmdfJRlGosPz0zLq7EA03fUmgsYnWnDEyVJWR9/a0Sx+HnkjUrNyLReN8PTjs6cLzPAFXC5ESMBLO9fYqEo5iQmlOlrcLroHBBXxkrdBQf8JshIvCZoCx7AQ8nrcf3eBeeCTlgByor4UWe2n+6as/FoHaZsUbzm3IncGj1RMs255i3LFvyK6+75dMtFaVuv4HlVESa6sDyJIW3tiWsDqCopceQBQ+6I5phHJMjwK4YWvSFx9b4Nkp8/CgWhE77KiHx6wgiDzFcMOUTji6tEvm6+Nhm+CjESMEkRPBj7RAOObYRoX623EzVcHpXXxEfFkE0dSg8uDjPWnrhBGktPwF765WkSnjq7RqS+PAP25ieNMLdfVnUCfHxFgKeqegI+YRn6GOGe8eRZZQTJphQDFm/KC6/BGN0mr7yq4F6JmwRYB6yspGNWYLnB1YPPord3ee3MD9cfjsUClmBe2PsD+GBm1MyjjzGZZ/kJZgEjJSuIkBg/nB0toLvSh2iOeHyEHWkTy1tW4Z7xBIiog/E6WyUSjx68xltYm/dPBqj5Wf4OdVUQTfTSsR1qmP/+8V2yyjghFtYWsb9r73AEohuf+s2v8dkouCJJeslP3QN4RbWAEai0rxg0H4bQ4XTraI7NtrbqbMV9ENjOpIjmSE7K+21EjNyADobDymztIubc06wggYl3oOE3J0yeOY7bVlFX+OO4CtN+jLR9bXEacxCay9JaVi2RVBWc5NP4FJyL4MlRn0/6S951eLqeBJ9pRZLo7XN90EldMxDS7rUGX2G8CEP8LwM93+DoMtvS4veVX2GdJg5trwloWB687IOzp68Ny/plKcnDDdQl7McmC2jyYAUcmUQJ7Z5P8Vp0Whapgz30fIgAitEh3C9ZrgnFbsLn9odMXxCINeIjtxwDGkNfQGymMuo0Aov5FXQoWROU5kt9kkd44MxzEHB1OVRL3rCD0M6M3CrmPayCz7tx4umtK8UhSHYGsDnHELiomImJQ7Mr08rG4XVbpasHw/1Y+99q9yLZ2RGNbjgb8RX24VN7PGEglRA7YNiEJY7koll16R0YlQuvvF69YlALJ9WwMtvqNH4YVELHnS6hucXkvwZfwXjDrnF8zfWLR8CEDgJ52+HTJBTD7nglovia8mMOUMnz1QW8rinIuRddJ1Xg1NWD8N8JT0h0mhiDYXjdWTKJcM/GvtEN2xGrHK9UcD4usT3d9rQrZMNZO6S7B2/xoKcB/bUqyumH2NbczZg0S2RTzTq3xtdimfDBE0qtLGvoAI1D0yw5+ogdp9GzCt7IzjqaVdEW4dCsolNLk5QucHHRLnbSKxj27STccx7TwZfBm8VW6q7US+DDypq8WCmToaSDsKxea7S5p0NyK3j6XMIvTWInwIWUGR74Y8Oj6jUD4yskOnwoy1bQPB/vxr+2vKiG+2nzy7CwUg863yReluT9WNznjbV+ORevHEk7jUy+2qilxIi6zIspLjecpTMiLyNKki/+zgJRKJGP15665lPo5EvJCXUvNeT67m45t7Qeqx1ynKV9eiliMHwHIwbTwIR6t2NUkVgn4cpzl2Klyn8aXY8AT3BoWXfwm4DFWDRfXaP2mrWTgV5I0PMlzEEwkoLS6GtCB7MuM9CZ5ZpQWj84yEc5qUACGa8fH4NY06fRvmfVCTY4TvAsOkq8uOTNxI/iKb5OeGGl0alhSmk2beSFok7vl8TJ1wFVPBEz5DCGw3v6hqANdqOCJSV2VH0DY/K0pz8XTsJe9YqCDgPfsSd1YlomJq/AEYESVbJGdR4dGZwZNiZpawMF+eVjeTMkw2e2qVktXNPw8IZexft/xETnvI5SGQ4N8tolIr/tvCvUtVCTFOFQja7floIXjSM6yx4saW30NFaOQZpnt6U4GTFNzwYwSwdI8Z3wGD6zzaLT6MvKQ11MnfJ3wqf1GZ1Kfeo/5gqabWpGEGbhqeGeOFzgfdiQYdyPw+p1YXJbQFvo1v/x4JBcgq8POEnxCjizv4iOEBWRpxMT35Gfx2WXPdpD0JvFZgo39GabqDB00vBwmyXZfO14uVLkBN79c74COzG7vIk6wXdpuSKfHBmTb+MVDhdSejkcr83tnDZP6HY6XaqVxZwS8Kr5B8jhFU6bWDbSZ+HhVTc8ZptWH+mMzva1p1kqddm6m8+2P0ocWWnPfhpSwOFprE7iN4UvCTbiHk33pEEktJMwKv2DBdG2+gAAPnZJREFUYwoYPbzdvgM0vIoJE5JkBa9RapzclKUKKu6n/J/G4l5lo36iTlnd0ShwHseGLTv88qX/zBFOl9fQcmSlsbQPMto1X74at3OGI8Aa+kjT5LeUdRZ8fEp9dS8mJZpk6qE5TtoaWsh4tNjZ01+S+J/3ObZsR+D4HIPztRmvGowzlMouYMNwz/ypRKwMXm0FeNcPm33QPQN8T79Wti0IqQkcNi1QofNYm5PGwmPoR9IO7wdC6CSw8+p8VUA4KHM7MYKRbog40HwK7AHPxtwulA1r2mfupPXaBwbb7KXFda3i9dTC41Dt/OLs+J2ZHJx1fncJy8WgI+komc4rdQfWrGUaT9kPYwidT9ynU2LHMw0H4YGUT/4tZT9OXPlcfQ90cy6ES/EIOAchEhs8dU7dEXnmpGfiPX1jHg7C6ejX0kFY2gvn64mOnK/jwh4jM/lF6MUrjmyvxY5Lq2M+xREooV9+CB3JY02jCE9SodAJPoTh9HE86WZ/VHmSbDwONRxbvRGvYH4uCY7BPWW0CT8X5aeOUodP1LXCE2Z9+i6sMnKopSPj5DEzgSyK9bjyoLex+Jg0ljEM3sHoxXHpflKY4a3XlqQ+8cPI8vErg5OW0Njmpn6CcYvT60nspOHlBCsE+HzJd9Vf7wrmBDRBc5KfQL/ZhYm4mUfbmix8yh6UcU/eAgfhyJPtfKEJ2InXNg+X8PUCRyJcikXgJLbIsTqf+ifYUWEeQu3o99CRBcPRdAy4oNHKMhYwOs6GwfCbrQIFMuuHvqEnSD71UerMQkz8rB+7GU5Qs/PFVwdcaMpMJuxMOC6Xd13MVuMKnfOPYFTodgzM/JyeWDotkOP7uSPAjuzLlbJMqMmKgTlchGgX1kRo+dwtIEm919JNIeNevNrgEsvl09SpZefDeQhfgBMUnkNwAOvBHA5Fz0wNZlvChvxjd5csoq1wLxiSwXIOQhw+6Ejqh7+lJ7XBSWCHw1UVH77nRtl1381YnW/J74ziRCTl79t9j+y69/twOPCRDTs1LODTmLpL6pM/Pr07MeV8TUj94Fd854sLGB3a8yAWNPqOHN73sLeyYxJ60efUOgdzU/Lw3TfIQcjTTgKbAMwL2f8FzFE03+lH87tch0AUAhze34+n3M/2WF8h4J79v+dm5TVY4OfzCyk+n44SzDzIuR+f+/7OxDH5J0sOgwh9Evr4Kd7p3IlxbYf/0V2RvXiiVwnl3Qvn4D+OH5O3TozLeMIn0Joh/i+nl//N7Iy8CdjuUwvQIQP6foLJjd+Cw5c2tkW8htP/jHMQYq8xoKnOSe3IV1Gp8DEOOzberPzkCPtNT6ixMiJOQEYdlZWrNC5MHlSxG3J8ql2bkdqev4cuPo+czk0Ci1eS/OSPJDeD1zjektYKV2KLX6cphwldC3OTsjh5WKYnDujRCCw/XT/yHThet0G2N+u5UwWO74xFgB3ZV3p65e4uxFPAPhPHokq4n493TIorM94KJ+H7+LZffXED+f+Mp+osAZqUQafgH97tU7jnP93Xo0diUHbmEdcymsHOWwO9zDRXafwhsN2N2A1sv2eh6yN93bIG2ad5K3tCakMwfn5CxJ1mQtCh1KfulFquVwrb36AW7Lnw8heikPo7fv/zObvYqITG548cLscNwJgLZ1/wTLWE8MDIZnzxUJXa45/RX06UrM+ibLmn1T5vTSz88vinJbfjvVLvOVs2bbtIRrC2AdeN4OuGqKTnKLBxxkyCiPUT6vhcijLQgksv1j7IYeGo+sx9cLz+ESzH09REWePyziQEWGPZqXygv1f+Fp3NNtS1t/UPyCvhNJyVNBMf7YFxKCLxQnvABZS46NNlWPuAem7Da4WPocM8UxpnOl8344n+b3u75R3zi3IWvtr43Og6KQCTkcQHBqBFwMAflRh06oNYdIpxHp6FQFlcaOovcf3ux/UaiOGJknMm57lWs93V56uG/V+S+oEv4VOnIlZV7IsPvoQKWV1bUXEG9u6+Wz8NRMinYzEwvEHWb7lADafXHv//8F7++97TdATD6ZjFLxqwaFHt4b/Ga5wDqjPnaodxIzN0DiaxANUjeC0zN81wzVFVF84XFkbiegm9w1ukPrtTqrs+dtquKXE6Vouncpn4RcNedFjvGOiTQ5iPwNUVt8HZj6qJqhxoD76J+AtvmxxPjN/Alf1+o7dPdpRKci86r3dBPtb6jJf7VAapQ9s4z+O/YV7A57zXOOvwSifJOZjBq4c/mZ6QjyNuBRdbiktXwjF4BbDliMRH4HR9BSMz3c45iIOrJT+2brdQnrEZ9FLzeAr9B/UKoMHPEGM+OmLntrw4K9MI2jR+CMGE1uKX5qWM+ipeYTzyCUxM/He0Bsc7UHkKXiDOu8Cnh7WH/lwasw/CAeMrAD4SRCRkTx7dI3NH98rUxMFYR4L8dTx71Sd+ItWdH8JkU8b8OFOexSJwc1knFAFMp5P7Mfv9TYN98iC2QdyTCDXoiL6B1f6+iaBiP1jh2h8JCR3eTRg5eBvkHkM7cqbVWN71nIXwVxhF+Dg6ctXpRw8M4H7OyRMYFfgqXh98BQ7YdNJkRuDKpbLfh5GDv4cDEo5nkXBF3CkgUGzgiSu2UY6DiEvmokNTYaLt9jzugvpysL6Ax6d5M/onXGVQdaRtFfka1Q1MPnqN5EXlSp34lEpevMdmqh/8Nzzt7levG3I9GMpm3AZrpUUVV6F/RLbsuEqKCF6jlxIO2crOik/P8w9hiP3vsMXCQQhgpRNtZBm9X+RTskfastG8OVXWDGXkR1TkgU16m4WXczI8vhZ7EjJwLRQfdSNsOFeOrD38ISlsfa3k1/8i6ggcBWKL834Cz+Ztl0hP75CKedH6igF2gy+HFSjr+/8VIz5fRghTzOco4J0xEiOB5lhG/PJ5S65REJFlTuXJo/i4VnwWfGASriF59SLaRmLylrTkYyJvoDPBSE8kabXOtPeW1kU+loy8DL4U6PQEJ2xI3wkfy0lera992YwJpOTws/61s7VVruE18qK24atsdJK2F0uFP46RgzcNDcg7F5bk15ZWJM9XXhFty9vxGuLpKyvySrxGiBwKR71cxAjC3/X2yGfRgVWhGFMhVeI6AZgerX5Q2XQ7aIrov7TV8HEbXxNasdG85OdLwOYUxsQ+a/ioiz1KvE6bS+9TLvWxlaWcz2AUgatHvnt+Sc6GI9CCKzC7CM7UnyB8NsM2M0x0ZALdfaD7CLC9B85cP45Noo3ml8VWStB8gawkXIw+zdcALwKx8f42J1JuDV+gtT0jrx918YVtJzqpIXfBNdez5eR+fPKsCr4hR9CJnvWI5jidKlhTIB1NAjqEOjpcRoJspzfg06bVe9ZhsRs8EUa8f441nrQVxDnANmdFuIult0+g8ZKuYRFEnvQbTK5wWETojKGrJT/2Asl1bwYH6NgZec4CZ+Uz6XfpKAUaefXjUr9YobE+fqM0OEHPi/cARkWv/sBhyyEaX2OJ+LDxi0sWjyJBpWM0RwbBspwWnoqVoUSAr4QmCTZyRCOKOpYf1AVEc6wxgqRKzTbF8uFGLZRRRsy9qCMYkdLJ60QMe8+X+rrrge+VEI5Glc0Uy8PrRzzQIDQwR0HN/+D1IbbEHxNK65M/lcKx7+F67UEWb2P/qin6SqVf1jCqw1Ggdsmv6ygS4zkUIW9lDZ+3xqOpRAZl1lh0lRHNEXyRnUOsEWhElFPaUEGXfJnN8EZy075uXM9FBN7yyxBJqTPZSVcQqfLikaepgE0PTT4qa34ApBQKIYYdfBdkzFfxZY/6F1JoNcz2GeruR2TXRQSWMsGa/LLahGo/sIV7FTi1fG+/AN6kaxLIC/gHYOssIiQmpTAfuXuhE49GKtATz7MBrsKGK1ZW5TX4AuE5q2tSUmXFWSPAtK02Bt7+POrydzGj/kt9vbILrxa44oHtu1L+ENqSRdR9RjsMkr0f5Np7Fejtwm8aT9C4O7yUzEeTSTGK6zkFnS3Ufoa/YwQr2j7oo65Z2Bro9ElidtD94Mwo/oxbYlchawi2vxjO168ur8jWqjcvCfl+Mvs2NtxH/sNwGr6EryNuxvoVSzjmKww7sXUYhNXRkVlsyuZ9XpMNuPLTKGH41Ubs/QbV1M5ojl3gHcdYSTM+zbZZJfSVb0QbeARtXTOlOa1zw3y0dQR83LYN1uQJDmTojGJp/qDRkn6rGnM08ksTqRyEQDCaBESBzKFRKCzi0rCBz5RQAecPgSMapkhRrOjshLDNqQiSAQSR9HYm7OOoQG7xCHINH7eTeL+9G68Gvin5wctUeOhc33mSq6wHGTpaf5IdaOEENJaPqJGCOr7Db8zej1YFHQZm8muZpiyUi0vJJ94yeBQ+cRUCpC0JcvCYUWfo5ZCD0ELalIFrUsUIBu3Oio+HSZXOTJaEm1U5B3QQ0KloHDwBy1jBcvJOqfeeA1zhhA0+HU7YWcop46hBg+u2m4R4GYztwImIXOOgsbhPx13EKE1OKDeoKXQo2J6soeOsmU+ejJykLXg4r6GIDnt5GZ+k4kuJLIlPfsuIIho5oTVGEDvOalE3PyuMIOnXvRgGK5u0jRyi8aV0hpUuXIcqrwUwmgc+nURzrKLOzSmnJD0+1E3qedyfxkGwihK7yzumy3MQ5ts4CIEQ2y50nCmjXRp+6jQhmBdxf9vSboSPejPmDVyMTuxF+CLhmrWqnIth72HGJbY6JsoYh1PwMJ6Of4T5BjdVSrIbHRlHt0q1NTXvwOjj1tT0eWC7ZsmxaaL2FT6o7JykN9HkIERRB/cIz5KXzTL5oqcKx8vgSxS26FOwNUvLbrA8QuUmQQZ6F/kERhM+j3kDz4Lz9Xz8LsWIwmbYViathQmXTN4DbLl2xA0YNbgdP8ZZoGOA2wHJaNEK2Pry0eQQ8rPYaq4Jo0CGHQQtOeIvVNMEhO1DuOec6uiz6DQSD6BdsyEy+XFb2roMO3kdJ9G+J+pshscXiZY0kc0nbNkhn/m1nIzLQPEMj9nGkUbl44Jre7PABEHUxaR0xiChKZr/GnrFb/N5IwIczh6/BXc9fggfXNjxf0h+9Frc2V7VwVNn/fA3pPbE36GG8KkVdnA4vynUsC0X51UZvXJyP0syvKGboa0Iw2e2bRkMAe30fiYr7dbwcWvbqxwnwIWYCY35R/G6AKMGA8+Q4kUf0NdP3SLACdhXH/oLRaeaUr66UaMGTdJsyZ4edKFKZ1pDKc/7Bz7+y5IMbxYe0ho9WfkNveFPo9em7ZS/Ez5TTs2bxtKAxtbH/SwpVONSsxo+szWM+gWkIK5AAR0Uvj5Ap/RMdGSfm55TQ+eGjmsavAVzDO6HU1DHPkcbkt6JGz1ma+Sk2Roes03iIY1JbFkND+6y1CnMl4U3Th9lEEuuZPk1OAn/jh/x+qu5BXkpRhVU20MLkfd1fAXx/v4+9YqG8ugYJE1GpGz7RzFpUyd8xMfm436WZHgz9nxKp607i07S8tWPSx0jgMvG9+VMfF3AX1NjharKwERcRyGv34UrWvenPQJqrgaqJx0rFdkyfGvgmPnwjPVoTHuRjsIhcDIR4FMpO30+HvDpNZxYg+eQz0a3ADqX0iHAzrHLw4uvC/gLJzpfq8jucbiGoTmu46yOzHEpO72ZWWlbK67Oi8o/vdE4saWLwy8u/8Rqd9IcAlkQYK2Ma1jj8rPIP5NpiW3UXR+XfyZjdSLK7urriUDRyXAIOAQcAg4Bh8BphoBzEE6zC+qK4xBwCDgEHAIOgROBgHMQTgSKToZDwCHgEHAIOAROMwScg3CaXVBXHIeAQ8Ah4BBwCJwIBJyDcCJQdDIcAg4Bh4BDwCFwmiHgHITT7IK64jgEHAIOAYeAQ+BEIOAchBOBopPhEHAIOAQcAg6B0wwB5yCcZhfUFcch4BBwCDgEHAInAgEs7mxWl84gjjz2LzUrVg/riM9TwFWylL0ZViGz9SneqGU2Egrg62zDF2uXVeZINbZc4kp675dp5W2Lj/ypk6UrE5+nwLc1tcKgfGl4lU1x5bFsj1FvOHUsBKz+D3lZ4iJwVRbGDFD/aIt9uWJ02tk+b4ZraXgoh/tZk83fjjdMGz5ux8/zhofbLMnmy8JLLfqnJaTTGVw4w5+OT1MZHrNN4k2iMee4bZds2jT0Rl6YLy1vmC9Lz2DzZuGjzbwy5E/DR5qo8hj+NDIgQukibVp68jAZHrPVue3/2vZl1WnrjSp7nHZjo9nG0SXlF9f6EI0wYunKJibPquAWQ3QxRHNsIIBNzsQdaGJoPtB8FNKQOkIbNxBNDRGbEFQmkGg4mnPMkQ7qUu8Z02Sq0+BuCrjYcXvRHIWhhSN0ekL1xv7LGAyI5sjgN/HrvXs2INiNDi1s24R9RGbM9W6AXm9JZlu+2rfpkeFFc1SnoN8g0MLWUnYESGHkSUaSDAVripWhVIPPi+aYK3AR2Fbq1pzAGkZzDFJzWWL5cP2CaI5cgtqj9K5rEx/LUh5oKS15SshHCB3s2gNh0TbQKSiXEYWT8TF4rdok3wbwqWiOvC7evyRWn88j6sL151XM5JSgtDqaI9ZCh71hme30d7OeA4bY6HKWAHaxjOZYRIwQBsPqQyyBIJqjIWzG1OSarYnmSDsj7xPvuhp6s6XuPgRuY6jo9vgENnCvgnpeBJ8OFd2KUGtOwD+AawmFxozIbZif1L3QyRiHlYT7knysXYMqPnOzaJ4bAs4LBdhtn/JMCetkwz4MnWXI6iSaYzevBoKLBXdH+zKTYoTlA1MLtZ/h7/ilYI6J5siWLtDpk8Ts6Lad0RzTpBXQMcZrOCHcnGxGO22WZA6fDx9zWWxGc+Q9QtUp1StM1qMWMP6GCdYU8LbiovQim2dMNMciDmx80tynjOZIPdEadG5gh9KqnBkTzbEXR7ZOTRH8ZcCwqFQsLk8gPyw6TBpiRkPSQAwCFc2RcQZMCpGFS8QGKF9CpEI0CjlGgmQtTEhNVuEgh4YshzDRcYWJFEVbCSu2uRWEM451ECK4YV8Da/3nGCGxHUZ0lJSzZFuNfUTja5DfxGyIUBNkwU6G+aXNKwihTP3ByTZ7oISORkS452QZOMtOGLrqWfEBJjk0eDUVJrqNefZpVkZAw466DnwSE28MRAlsalAVAyIeIr/BqIVt6pEmR0cPWxnNUYV7TgalyaRCnU5FRVYzRiukkDwizK2sLaXoAAOV6rkYdYBppbpClL2T7Y0mbR51dllFyfTYEjfQhutRQ4RCRlRcgr411ONAZyKzOslOmpYtNtnano/lLMFWO9xzey7dSNaAjw73HLa1PUZ0LOZTPNjQlmbkgRNsXgpFcwzbTAdhwY/oGpylZfPIn0NH1lqfAzqzxxpQrCOkNe6BNSLcvmiKlWQM9cxQ1DOJ0RxbBTKnjGaZfLoGKpGxf2x8GDWQLfoM6lFyy94sjjLYYU+1mtNMiCO2Fox4E07Mn4AjhcD1qRL1MTFiZBZbiQkdIPJZPR9FIWk0DCY6T2ezaOgJECsCvKh/WXRSDkOBj+NeSQERyVWirXR/uO04mmMOYUYzJ3a2bES8Xyw/KopdIOUp1VfRH8FD5Q2qGnabwpbUArPugBHHnVJ1Px9BY4vgPhtaPjGqLXWm4DEyaB95VWPSho801BFORm+qKgEsUAm0TuhV+IQFxh2DF7YyjHJ4BCGOQ+cDTfKw8qltm3I2CcMVReOl+Jry2xywXqCh1D/o9m6sSC4Ga6IDE5G0bjo3cXUoYGInqOghKwjHHZxP2ss1cEN7fFkjQdZx/evECPrTJtZv8jGRN0tnTVqtM6IuRhhgdHFr9tn5ZtGp7UR44Ix81Ece/rKGe67hmrCmZtVJW2u4FvxlSaRWfLCZT/NJdwlrNB2JqMR88kefbebgFayhbuOuDo0gNNOFjyibNuhfts7a5k1Xg7R2w8eOjz1Klg6QWNJW8rVLpImyi3k8lyX6IOn5y2Kr0UO3lLxpE/GhY0G+Vfyy6KQOw0c5aZO2NafCPXeik3qy4JnWLkWX1CDy3qzBehagDq+PhWYlYd+NETH8eAMGUPiNcpCFBpdq6CiQ0yWHgEPAIeAQcAg4BE4kAifcQYhzDOgQrCmnICddXQ0Z616Tke6GDJTrGNKiR4/ht7W8TK0UZHK5IHOrBZVXgqtVxHmmKL+b+pyTcCKrhJPlEHAIOAQcAg6BEzyCEOUcrGEEuArHYENPVa7auCTP2XJMLl+3Ktt6F6ULzgHGboPrgNGE+lpODi8W5cHJLvnxoR75EX67ZyoYaYCx+GkdzU6B0eschQBKt+cQcAg4BBwCDoHjQeCEjSCYTtoYQ6eAIwYXDa/Iq3dMy8vOmZOR/lVkFuWR6Yp8b2+f7JktyQRGC1ZqOUw4Ehmo1GRLX1XOH1qR6zYuyvXnzUp9NS+3HOiV/7lzUG6eWS+roC0XMJYQMXIQlWfscVuHgEPAIeAQcAg4BNIjcNwOQtgxoOolzDjZhBGDN186Ka+9cEpKpbrcdbBHPnnPiNx6bEz2LfXK8twU5iBgQp41gMCJCJx7UEb2WHdVLhtblpfCsXjJ9gV5PrY/OrAon7hjQG470o1Pszj5RjPbIwfOSUh/8R2lQ8Ah4BBwCDgE4hA4TgfB7t054RCfoOCVwku2zcufXHNENmMk4NY9/fLpn43ITw9349MrfsVXliq+7eWbhW44Dr1FfK6EeQYccVis5mUZIwR8LXEMrxm+vadP/c4dXJXXXzSD37R8/pen5P+5Z1Q+dd+orNbzan5C2CkIH8cV3uU7BBwCDgGHgEPAIRCNwHE5CPySwHxDQOeAExHfcdmE/MFVR2UCHfy7b9wiX3tsAB0+F2PBt78g7srX5FlbZ+RF647KpZiLwLkJFXgLK/jed3ypKDunyvIDvFK4eX+Pev3QBb49s2X54I/Xy5f3ny3vf8YuedvVx8C7LO/94UY5uliKfOXgnIToC+5yHQIOAYeAQ8AhkAaBjh0EdsAm0Tng8QeuOSqve8aE3L6vT96Hznv3TBmOQQ0/LBJRzcnVmKT4vmv2yeWbFjEXoSCPTZflwYmKLOLrBY4mbOqtYq7CvLwSowV7J8vyX+8Yk39/rF9KcCCKmKH4s6k++d3vbJF3XjEub75iQj77i/vl7TdskX3z5XgnwRjptg4Bh4BDwCHgEHAIpEagIwfBdg64X8XT/58885hyDr79yKC89wcbZR6vC7rhHNCNoHPwyvPm5CPPPaxWJvzknVvk64+WVcfOc6ThSARHGTii8PytC/KWZ0zJ31x/UC68c1Q+dtcYZitwbgIWVcEoxX+5fZ0cWijJnz77iHzqRQfkjd89C6MPpcjXDamRcIQOAYeAQ8Ah4BBwCPgIZF3QyfvM0OdXnf/vXjQlv335uNzw6IC865ZNai4B1zZQzgHmFLwYkwz/+gWH5MhCQV77rafJX923XXZPl9Q6B/wigY4Bt+j75QA6/r97YFh+/d+3yg8wB+GtzxyX9/zCOL6IoAvBZWTpSNTlcw8OyZ/dukEuxKuGjz7nMNZS4Gps2q6wAxNY6/YcAg4Bh4BDwCHgEEiDAEYQ0Kt6HWssA/tmJtKpVwtqB+vEC14bLMq7rj4iDx3qxpyADfgMkQsbsavXcxK24LXBn+NJf2qxIG/57mZ5aL4ivficMc9Zid6Ck2ZZV6rJ5/BtA6w6DGfi927cKJ98QUPeBAfhEbyO+JeD6xGoQ6+y2A0n4R/gJGzuXcP5Y/J7z+iSj961Trox6VElmqjs5ieRXDqW+e0KqlmDv7qc6fiSZBs5geToPUNnb6MpW3NtHu6nTZ3yGfmG3xyn2Roes03iSaIx57htl2zaNPS2PENvtva5NPtGdxpa0th6uG9uwLT8x0dna08jydCbbRoe0hh6bs1+Gl5Db7ZpeGyaTvgMj9na8sL7STTmHLftkk2bht7IC/MdD6+R2W57PDop2/Cn0RNHk1aGrS8Lz4nko94sydiZhc/mMftZdJK2WC/1pebxn8y5fnqhR7q78bXC1UexTnhR/vi282QSAW0qFXbIEIk2jWFm3nDJPtkwuCbvuPE8eWBuADxdKgpko7SMFRD1AIYutGkE9VEJ0TQW4Gy85yfnyr+O7JY/gpNww+yFMldjdDx0+FhiuQRH4uP3b5XLNtblf8PkyJsODcmdEwNqZUasuQTt+ANjGohuRwehgQAkQWPbrDUSBNpXRPgPRsejrKSkYktgskU4IUCQ4s8z/ld80tJhEwNSGZ2ZlpGG41RAECzyYv3+9EnzMRZDrojVxS2d8SXW2BGTPIJL5RF8SyWT3VY5PlFlUCrGnTCVJY4HsRhypI1ISgbKnBzTQzOy7haALeMw5Kg3Qyog+l8BURWLsMP+pDaNCM2HIFqqnGk42Fhizg30MdXwms440O16UX29sKYI6lzJ42/W2HqBqKsEekZU5OLn3Geer7NZQOQRgzWV8GVSBbxZ+LRu8KH9CGIxtNoYVkoKHc0RXzw1UG/xLy5FnWE0xi7Y25Ri1eoTSif4GPqtrpaCb+JuOmBcgQpoolIXZHTjF9IeRQpdOugSHqewJn6UvKg81h/Nx4BN3fiFh4mjMDEGkJc8Pfh5j1rmVOJW8+lHPqx206Iz0nxPIu1hkKUUrazCDS1qS2IeIzrGB2tqxop3Fx82yRPGB1mxNYqYkI+Bl3id0yZq7wNPN37cap3NNsXJIj6Mxtival8EVYwY2trHvhpbxnKIKmeENC9LCy3W2aGgMjSnkEZzyM4WhDkoXURRX3/BklyyaUE+fvs2uWt6WHrKCITjCeJw/4bBmvza+XNyL75K+Ob+MSyxjMqLzoRhohtKrzFZSfU4jTJE+MJVP7iSl8/cvw6jEI9jbsKSfGmuR7q8uQ20ehmfOn7ozs3yhRfPwInAq46bEIbau4EZTlpFfixCH0cRCrikobIG2oI9zxDQwj5lKzre2CpjCoxbXjU6thzss9FkB5o2miPp+IPN2PFN0bd9cBi+Yjyvol2yM03tINBWzcfOOo8ONIxPoDFiD+w52JrznB87fkYEdZCFekRbVaeE6wIpwbnwEYLyEMPWhArPTpChe3mdYpKRzA6a9Pk8HA5Fb1+nGGZmg6wA/QUMa9FRMLYauYoggV3xQm+cgxDICYTwLiMfU7GRPtyzlkUHAaGQIzFrLTN1kZ6OD2PMqbDPrBOhaxJYZ+9peXQQiqg/Sk4EX1QZKUXpBh8jOtYxcqhSq4k63/tLWSQpQWcBNpfBm8VWiiEvf0y+bf6Oym75Q51l8HBWVTnBQaAYfq1VUg8jzWJ4rqRsDjsI0YXWOhkUKK5xDxsdyKlAD9xZFdXRvzuC082GWUdKJ/jIS2coKoW1koaU5KEuPi74OrGvUhSTOsG6RocqqXPXIvgXxYp0rni3dOO6dKd0xHkn0046FC22Ii+uLWMtRQ+mOvq0DgJ9ReLTBUTJ24M2L0onSGITw1jTudBXRP+NhdSTQlu7oZMOAh/Wwzqb+bXMsAHF4uLRcF70MQw0Iuqo/BvKOXnz0x6XvePd8k/3d0vv2hE1P8AwVzH34BdG52W4b1k+efdGWVuYxvA/bq/astTRiVXnJ2F6AQ2h9qbUZ5J47KfRJcxHKAJV6utB3i17EL72ypK8cOgR+belMXRkXmOC87zI9x0oyL/sHJLffsa4PH+4S27Y36fmNeCUvtDsMOkgMCwxa1jahAZBNZUITU1JiYkjCDUGIrXpsI+wuw3ytxlB0LJRYnbwjMq4NAlR4UsaWGCuRVNODk9iy1Moa9oRBNoKSSU6TmikGSo6Cz4oaw6dS42hqbMkdRPjSQzlrKuwxDZmIUEcQSguREQVgwe/Ou+FqI7HyUhTDgLwZMhm6s2SCkXMlwHP8sq86kiz8OYQ7nl5bQHVr/WKxclhza+X9DVcQTjsdB2glkZadvaLVXwplCIpXbg3TLjnRVyPVdTlLDrpILAzWchoK3Wze5/HfROMILQ3mkiuYdSB4Z7na4xTl1B/IsTR3jnwJadmmdTZQFtFB2GRo1AJzKxdDOscTpQxh/wZVe7w2dZjSlD44H5eTdnxUQr1cPRgFb9JtNXt7w5y6UTeEv5Mok4Eraw5G78lnxk5mIatWXQSS46ojFNIm8SwzlEB4peQfwx9RfwIQrNgOgjE9xiuZLSt0VeYmNAZmQBX6miOEMWi9UEXnYMjaGujdYIoJuERQ/GlgMiXQFtZU1nOtuGefa7mHTzepjNVd9eaeQVP7a/YeFA2DS3KX9yyEQGWisG7f08+q+W5Q7hVYOUDkxUMzwIl6Grgl0ej+fqLZqWrlJMH8JnjxFJBfeL4DEw43NK3Jv/joSEVi4FBmjgp8Si+UOBaCOf3L0ilOAaodKhXU5QSatd/h4Pw6gtm5HWQe9PBfqujA6SqjNxqGwxf2y35zC+xSYAkpQPyW5KnU51vORnK8Gw1dqbiMSLs8mE/S1L6aKf3S83bCY8n3OjiNhHbBJvAq4b8lYwURnv0WV8TsANS/4y+FKoMieFNLKIhtrbkY/L5rXNJu4be8CfRmnM2baf8nfBRf8BnrEm3Dfj0XjouTaVrnMY3O5+urUncWn60ZHMuid9wsmU29Olaac3Ju9/wcpuVlzqz8FCr0Wn0ZeE3+tLwkCYKuywyaK9tZxq95DHJ5jV57bbHgw9lG50ZW3bFZ+tuZ2f4fNTYbZim6ZjK2CG/atsRmZkryjfxpQE/P4xKgwzGhJGEecRTMBeVI2/ru6ryfnwWWUY0R1WzQKMjMUEK1jvYjcWS7jnWhaE6Dccahpmn8apha/+a+tphBZ9G+gLJAkfiUay5cCNseTGWZD4PKy8+hgBPzLcdb0ozdkTZ6/IcAg4Bh4BDwCHgENAIpHIQ7PenXIdgO4IuXbFhSb6JRYwOLxSli2EWI1LV65E5eGASH/YYznnPXElGQfBZfNI4hK8ankDgphectSDXnz0vdxztVp27z8MxA/A1MISkOnxLXkAj8vUn+uWlGEV4NuZFPDxFB4FnLduch2DgcluHgEPAIeAQcAgkIpB1dEWtR8AgSkVMSLwZkw/txKHb4If3O1g6WTCfYKQbkxfZOePHyR8cUWAY50EsivTdvb3ypz9ep6I1ciXFvRgJ2IURBD79M/Ev11QYgwyOIqyq9RDUKUsXvmhASe4Z75IFLPH8LKzUSIfCT/Ywgp/pdhwCDgGHgEPAIeAQiEMgs4PAvvZSOAgNLI/8IOcWeBLC73U5avA4OnumCxDyuYanf/M0z877Bwd6sN5BQ563ZUE5DTtAc9EYgjsh6uOs9UqiBodgM+YlbB1YlQdnBxEMSr+uaNEHOxjL4WHYdNHIigxgkpd2MYxWZUrsbHJ91v11CDgEHAIOAYeAQ4AIZHIQ2OHyyf68wRUVjOkontbzmCcQ7qwpmHS7pisyh1cQL4ATwHgKqsPGH57biY58CYsnXYGJiRxdOH9oVfKIx3DnEXyXYD3xc8TgeVsW1YjF949toujYtIbJk1xQaT1GJka6OGphDyPEsrkTDgGHgEPAIeAQcAiEEGjrINjzD9jDc0nk9d1VObqC4fwaHYSQRO+Q+UfxRP+dvf1yzVnzchXmLPDpn4lOxdRKQcVT2Dawpl4PbMbrBcrfP69lUi+CQMow5ie8DmGeD2NOwY8P9yr9UQ6Jp1YOYqnmAhyNYeUgmFy3dQg4BBwCDgGHgEMgCwJtHQRbGPprNR+gD8P3M1WsZcBFbBISnYR/wCeLq3AM3nPVMelDx81Onz7FKr5cOIbPG/mkX8GrBk5U5BcPc3i9QD7qIs3vXz4pZ2OU4TP3D6vwz3EOiTFjZhWfWICfNmb49Nywu61DwCHgEHAIOAQcAkAguYePgIidOzvpGpwD601ABCU+h8SrhAcmu+RTd4/J5XjN8MFrj6qOn3x0FGYw6ZBOQxc+k+zDJ5F1OARLiALJROfg9y6blDcirPMtu/vln3cNgo5uAy2ITjyjQjxg286RiJbgch0CDgGHgEPAIeAQIAKpPnO0oWLHzsiKFSxZy1cF4WQP//M1ASM1/r8/G5FzMcnwVZdMyoGVQfnYfVvUEME8Jjr2YPSAcxLoKNApWPF+v4nPFd997TG5C5MZ343w0dTJTt92D4wu8xqE1mgnAjZCjk0bttMdOwQcAg4Bh4BDwCEQj0AmB4GfKHLSIIfxRxBsqZxrPxFQddL484GfrJcNiLz4+1fsl0cnc/KVXV0I6zwkN+/vxeeLBemHg7CMTn1+LSeXjK7If37WMXkCExl//6ZN6tVCGW8OGJPRJOMc8Jj7xkkYxSsLLOyuv4QIyA2b2zoEHAIOAYeAQ8AhkAKBzK8Y+JR/cL4kG7tXZYDBmVoHEXy1phPnJ498dfAejAQcninIe648JBt6avIglln+2mN9eM+BqFp0EEDDEQS+WujGK4c/uXU9dDEyXbOSuH4/hxGNbRipWMY8hgksxkS5LjkEHAIOAYeAQ8AhkB2B4lrfZj6Cx3PiNYF5OuekgxV04g8urMj1XY/JpnWDcmhyUH1ZoAVwoaSQKNVH41NI8D6GVwp/u7Mof3HNTnnB0/Ly+d0bVWRGrs7YXTmiwjsPDQ8jauMeufXAiPxg5mypDKpwDnqUoGdM6ojjEFbB9xUM9sJIWReO7JN9Cz0yUdgsuT4vIhmFMJwMwz7TwBYjQzabQ8ZCqAwjfgRfbXhaoScyIaiQqLDH9nnsl6CzdwME6DUh9PTLSAnIBD3DPZOH+ppiMdhyLX4/G6tNdg2jaBhqQUCQ6OQTW6fBx3DW0JVjdERg45XUojG7YX5EDqwMmJO4xv5uaCd8Aq+VSghgiiA09WqbSJnEFTrCEmColKk7h/NNOIVVG05E4Sv3q4iODNYUX8YQPzQzZDMjORIZ4/SGqeKOu8q9is/EMonHyJaAEMyI5skROxP2mWfT2EyabtQfTW/Krg5b/+A07aqgzqkojqjbfeBdy4QPqizqTBfrLTSksdEYQt19CNfNqJ4Gn7YTmzzmMiNWQi8DL6nrAglp0wBsNSmwN4bfy+amj4HJiFdksJ2An7VrkPU2lKhrCFE2FwsIUtd0LuC1s5k7BF0VNEBr0Btfd1r5y8BGh3qOC0ZETa18zB0Bpmhm/WBNAUY8G0pee0hJvdDJJ07GoTU8Zhvisg4ZDk9kNEQYOvTpV3AiKiATa/wmAJQ+mmNDBomp+hfY6yuK2WE51wMZxAf2gzXF2eqLAJPCB38Z0bEEzGwee9/nCe1sZNA65FGO+duOj7TDbGOx7cNfU3/YrqRNxdLCoba0voMAygrq/c8O4s9lIlf1H5C79iyhsQ8URjWghr8Xo/8/ehxfMlxRlCsHj8m/LKIiYoIim4ee/KosrOZkS/6I9OMzyjsOInf+GPpLgImKxzKpQE9LjL8V6KPxlN/AawWOHpw9uChfxoTG5dkJNJRkgmNQY3S6IJpjlI2RILDhQvCI3BIjXra5HIzmiGh2zXTgWUM0R0bMTBvNkXTlFURzHIesLAM8xASlXJ5GmRm/K20CdiVEoURD1Ek0R2qpLiGCZJakrhcqLjqiVNEcC3MRk2XwumtlThqMJInr1C7pOoiGtpNojnAOioiyuQx9qeuOZdAyok6ae8DKVrtRtYqdZRnYMK1mjJDIBo81YXF1QfG3+0NdjFRZ5bXAdVlAfU0fzVHfh+yka7jP5oAt9adN1M3BwU6iOXaho+00miMtnKky8mr6xJLWEEEybTTH2ZhojjPAWcexba9bufmo2vO4n9dwbdImUjKaYw9+Ex1Ec+TtRL64x4woO6iTrR/vxE6iOVLm0RRFpA5Gbgwn5h2GIxXlPIRpeUx3fxX17xC27VuPQILBpLNojgz1nOsomiPr7AFE600BkW8sbV1G6dgbqGiO6W9NXwY0plBp0ZTghtyPVwMzeM1w/dY5+RzmEbS12uNn07WATx6XqkW90iEalRoqIpdJ5uRCvhYYQyAnthr7EAhKTYL0ebUajkS0KEQeJyVet2keayDU5AdYjVE1k6T16c2+X/YUO54uJaMNeSyNpzf2vC3X00dASW9cPpskdt/ibXtBbCGd8hkZht8cp9kaHrNN4kmiMee4bZds2jT0tjyb185Ps5/MG2UJO05Tx/V+Gj3NNGn5SGfboI/tnGa5UUfG2mxcuoSd8No8WXXSfsMfVZa4PMNjtnF0zE+iMee4bZds2jT0Rl6Y73h4jcx22+PRSdmGP42eKBrDn7asNn1aHttOwx9lS1Seobe3UXRxeZ3w2TxmP05+XH4W50nJ4JcEXADp+5hceOXGRbkQSySvWQ+sUU9K5qmLAwGr9YIs1YsyilECzkMYw6RCxmDgHIRFTFDsKcLvQWm4HkLTSEGC98PCVzAS8YpzZ2Vqriy3H+62XnvwuTpIxpYgx+05BBwCDgGHgEPAIRBGILODQAF8JfDF/dvwtJ6X1+yYUZ8ghgVHHbOjnq+W5dF5rK64dUFu+Y0n5Kbf2Cvf/NV9Mja0ppwCM4RjFlQK5NjdfJBLh4QTJ6+Bs3IZgjR9/fF+ObJYUp9E+lT0TFxyCDgEHAIOAYeAQyA1Aqk+c+RTtxkZ4H45X5Ofjo/IbQf65VU7puW/7xyS3QjMVPJm3pDWflL3eeFY1OBe/KefnCWv27aMVRQxoAnaKt7LLGMOwVd39WGCIt4moT+v4jhN4ugBA0a95emTsoJJkJ9/eBDHzPWS7RykE2k43dYh4BBwCDgEHAJnLAIdjSBwIhIXLvrUfaPqc8Q/vGK85R2ScQpsZBk8qb+4Kv/reUflotFV2YoojVv6qrIFrxjOwf4HrpuQP3jmpNx7oFvuPVZp+bzRlsV96uCnka84Z1au2z4nX8Cyzg8hZoNxVEhj+wT2Ps+55BBwCDgEHAIOAYdANAIdOQjsdblC4g8P9sqXMXrw4vNn5NX4cQ6BndiB244C1zh49TlH5S2X7pHt/VXpx1oHI111hHOuylYcd2Mewhcf6pc3f3cjFk/CHIQmcXpUwMjklk7KuYgs+e5nHpVDiBz537BiIyc8RicKaxIYTeZyHQIOAYeAQ8Ah4BBI/4WH/crA4FbAUP7/edc6eWKiS96POAvXbljEFwrRnbDq2MFIx4JpEa8DOBFxFj/GZOB2CXmb8S3kf7p2Qi5bt9L0mgH+AFLw6qAG56AXExo/8uzDMoYVGv8cKzUextwDvm4wybY52ipD6bYOAYeAQ8Ah4BBwCNgIWN2pnd1+n0/3XCGRXzT88Q83qa77b154UC4ZWY51Eir5OhZHWief37kZ3xQ38CVDTUVz5EhCNzp7xmXgFw2/8rQ5+chzjuFLBKxhEPgEvnvA+QklOBofec5huWrrvHzyjnXy7T19kGERh4vgPIQwIu7YIeAQcAg4BBwCsQhkchDsJ3IO19NJ4IjA7Ud65D03b1Yd/mdevF+uxkjCAl432K8DlAX4rn+hWpBdMz1yaKEoR/A7uliQcYR9nsBvcjkv0/jx1QEdBhORkXJUwpavKbjE88efe1Becv60/E/Mg/jkvaMIGd1cxmZbm8+5I4eAQ8Ah4BBwCDgEkhEIdavJxDzLjtf01+adfhc682/u6Re5aYv8NTruz71kv/wFhvy/+AiXONZhn8nEZZr/4wVH5D9ffVQm50pqpIGxHDh5kY4G3QB+3nj/eEU+edeIeg1hOn7SLYL/ytEl+RBeK1yCzxr/8Z5R+fDt65QjYZwJ6mt2DujIwJOBDpccAg4Bh4BDwCHgEEiHQGYHgWLtrlY7DFgDG07Ct57ow0jAVvkvzzkkH37+QXnulgX5v+4ek51TZfU6gmscDOLpnysEctSA8xUYwfGmvT3yzw/3eespYAlMjCDUGnm12FENHfsqVl8cwYJKb7p4j/zvl+zF2vh1+fAPN8rnHhyGXK6VH19Y5RvEn3ZnHAIOAYeAQ8Ah4BCIQABLLZuliSLOxmbxWR8/8uJHh4GvAbqwDsIdRyryum+cJX905bj8+oXT8gIsx/yFXcP4DSB6Y1k+t3O9nDNWkMuGELERkxj6MP/gmq2LKszz3z8woJZcrqNXZwCnZUjmpMWXnD0jb7h4SraPLsv9h3rkQz9dJz/Ba41uzFGgA2CGNPyRA2+IQ48c0Eba6tnb5N7EFjA40ZbPc5cUjsQlnAxOUeeiaEnv/fxZF2G6qGOLj/ypk6UrE59RYPjNcYqtKZ/ZJrEom+LKY3THnYdgc3l8OaTVo1VJau1zmpp/E/TYDNa+5srGa3go5nh0WmbE7tq6jL6sOo2M4+HLwquvILGx8fEudGxJgxOGP8hpv2d4zDaJI4nGnOO2XbJp09AbeWG+4+E1MtttbZ1ZexTVhENBGj7SRJWHeTyXRgbIfNq09ORhMjrMVue2/2vbl1WnrTeq7HHajY1mG0eXlF+sdY8mnY8+h86w3jWEgQCoZpAik/AeoISrfQzZ77lznXz10IK87enH5LcuPSK/ddGU/PRQt3znwKh85sENMrkwKhOrFVmPJZe/8/KdctXmunz20SHp7VqTjV2LcsnwnDzvrCV5/lkLMti/JvtnB+TP7n26/OsDBcxvyEtXL6CCrqa4WMpbMMZgq4YPMNGR0RxpK6OQhGkscntXNTekZcTAejgIk03p7ROHfBAlTufCRkSrE2BlgjW1hlcIXXIVzbEX71pWtb0RqqKzgEQZobMZqEk5K6QKyY5kNNEcucoVMVUlb6JstTk4nUdUxkIZtmZJ6KwLjHKIwDU5RMhLDPCjomTq6IRhFUVEoWxATlKwJlMaOrDFYrfne3Ft8DTYaDJGciziutQQgCdsq5Efts0clxHhswE+fx6NOZG4RbAmBIdior6wzlbWoCykrYC3VtTBnlppKdNLYGPHzGiOBQTrYkCzLvDqfZ/KUGMb6LEyQY/7MQYfmy68T93d4MMdqgJFhc9HHdMqWlHxojlSRnt8KCmwvQeBntaw2BtTVCnVidAfcvd60Rx1/MgQgSWftaSHrXJE6gXO/QiV2BzNMYIQWdTZB2xp4xpvQr8IeifOdp6t4D5mNEd+eR4/wOoLBIfGgjn9iq9poXt1PukP+frAR13cj9MZJZXlGMCfxPBZnqmk0XcGdqzEvBH8cIdbufG7iFsrQ6ClvDhbw9y0k5cV8X3xry7xd1iYU2PSC65uxRcOEOXZ7G2oJ5yG0aavqFBh4TPxxxQ3iv6ANZ31LShnOowoGSMIZI8yiadNCgmEsXQOlIPgd0aaVjXEAIKfG96KBY9uO7hFrhmpyK+eN4POfh6jBXuB1j6ZXcFExeVumcKkxApGEeZRk9/+jEl562Xjsq6I1RTRwNXw+ePtR7rlq5hn8N2DY3K0tEm6a0fROPAWRFJmoXkw5lvzDPToAQhon/2LLasuoxGlS4NCGN5YPk2p6LRBXgY3lGbZwCOtxpLmZZCcSeHp2axzUv7Vehq+vQFbUKaQLkVCPuYbnQG1kRDFpc+BFvp4uzC1cmoqEJkdb4tjY6fij+ckHTuuqKT0KtvD8kmt88wZ1kvdSXMbLS9KBy0jveKlrpCppuxRvCrP0+vTGYNiGXiC1J79qnyJxIrepgjKaudG72tNlj5LdytHtPGKG3ayJoTgUSKi8njC8LGIvmR/x2hvzuCR+uEPryIjUNry7X0jIbwNSmvpDSwIk6tj6qQ+vYVTHUmlM4M7opWIuimnyc6Ya6x0gZDywuWkZJ6PSs222hRxHJqGNhleU1abO2nf8FECeYOUrJN01EsexdeGPMm1J7/XM2BPC2rCGbkmUY6v02Sm2God5MUodwt9vE6eMfq4bU6elWFjLSy0XuNexeux5Qa2EheDCCnCimyu5v1igeGBsyY2mMVeya/M4ikQQTNVBbeV4jZAGRh6kzfEjw52y634rcPowEXrG3LZhqpc1DspZ/UvyHbMLbjvaAWrIPbIM8YW5OGjNfnG1IDch4mK9x7rQlTHspqbUC6sSE9hVgqrs4G1UKm1WrpVnnXMzgBeu+poYG/gTQRiYvc44sDwywjzazTF0nIEAU/ELakGH5X8CGdtJ+vaW9nI5ZMjzG8gRHDSk7HF5O0CaT6tMsyvcvoCimhd5rx3luGeyet7W+Y8thacVq46US/iCXAtXWhhn5eNOp7GUod7RsjjqMkytSpCaVcXU+HEOlqErVXwUG+WxBEE1uQ18PqvsTwBydjCzwXvam3Zu0fSaeU9YzBfAW+6J2Qtm7SFQhFf+yQ+j/mGKF04quM+YSe0gpGr9OGetRiOIOTwWwZvFlupu4wQtku4d6g7bSIlfwz3vMRRKPzLksoIGLeYsQ5QH8dY0oZ7Xgrdg8a+ReC8gCYpzQgCG/gK6fHLGu6ZqNB1mgdvkjNj7DJblrMb12IeP+pPm8jHRF1z4M2ik1ePfcWsEYL9uMSx3OaWVFOytiPwu3UuuU7wjmabMgOM0tpK84gJxj4VX6sd8TrJW8UV4Xj7FDSm0mmJw9iwTOEeSwERNOhEW1nP6ByocM86O9PfYrZOyJLNjkT99IqH2kkw53HL4jTzePPySwTuT68W5OaDfXLD4S4pLlcwjMpzqPyYqMhPGx+a6pJ/fmRYLZDErxIYU4EjEVyQiS1mgx02fx5M4caa2lvzPDvBr+3FNm3yy0ieNnykjUzIN3Iiz4cylZyMPL4Ij6+drT692aHtnej0+DLro16bl/txydBFnTfnkvhtvqz0htfma9bVfGTo7S3vgPZUNgf3DY/mTs9v6A1/WG7UsU3bKT8tNLxROuLyNJ+uDXE0Ufk2X3p0tCTDGyU3Kc/wmW0cbdJ5c47bdsmmTUNvyztRvLbMdvud6rT50uoI02WRQV6bnvtpkqEzvKk6eU+w7sG0XvJl4aUI6gx6PuakS4anE53UEPVglk5ziIodc7OTgEJZedynN1PBYkZlfNKYx0Mc3YeVGv1y7QywI+U+z5tkd/ik1/9J1ZxsuuYz7sgh4BBwCDgEHAIOgawInDAHgYpth8AYYjpu5Tywf6fTQEcAP8VjCJVroA/MOf+Ut8N87UIEDgRPxdGH+d2xQ8Ah4BBwCDgEHALpEDihDgJVms46ajSB59VLB28AwNAyPy7ZNM1uQaArjtflOwQcAg4Bh4BDwCHQGQIn3EEwZpiOvdVRgJNgRhC8UQTD03ZLx4KjENZoQ1seR+AQcAg4BBwCDgGHQGYETpqDYCwxjgKPtbPg9fKGIOWWvoR+wUD+8FhCSiGOzCHgEHAIOAQcAg6BVAicdAfBtkI5C97oQbtu3nYsfBlZRxx8RrfjEHAIOAQcAg4Bh0AWBJ5UB6HJMM9RaMpzBw4Bh4BDwCHgEHAIPCUQyPo55lPCaGeEQ8Ah4BBwCDgEHAInFwHnIJxcfJ10h4BDwCHgEHAInJIIOAfhlLxszmiHgEPAIeAQcAicXAScg3By8XXSHQIOAYeAQ8AhcEoi4ByEU/KyOaMdAg4Bh4BDwCFwchH4/wHGxDZJhf9X3wAAAABJRU5ErkJggg==;" vertex="1" parent="v0qMlTzIx6Jk7zW65Q-t-1">
          <mxGeometry x="30" y="100" width="250" height="250" as="geometry" />
        </mxCell>
        <mxCell id="gCi0SzVC2TGAyjIE5B04-9" value="CountRings (0, 1, or 4)&lt;br&gt;Passed in by fullAuto" style="endArrow=classic;html=1;entryX=1;entryY=0.5;entryDx=0;entryDy=0;" edge="1" parent="v0qMlTzIx6Jk7zW65Q-t-1">
          <mxGeometry x="-1" y="-20" width="50" height="50" relative="1" as="geometry">
            <mxPoint x="570" y="218" as="sourcePoint" />
            <mxPoint x="495" y="217.5" as="targetPoint" />
            <mxPoint x="20" y="20" as="offset" />
          </mxGeometry>
        </mxCell>
        <mxCell id="gCi0SzVC2TGAyjIE5B04-10" value="&lt;font color=&quot;#ffffff&quot; style=&quot;font-size: 22px&quot;&gt;A&lt;/font&gt;" style="text;html=1;strokeColor=none;fillColor=none;align=center;verticalAlign=middle;whiteSpace=wrap;rounded=0;strokeWidth=2;" vertex="1" parent="v0qMlTzIx6Jk7zW65Q-t-1">
          <mxGeometry x="240" y="100" width="40" height="40" as="geometry" />
        </mxCell>
        <mxCell id="gCi0SzVC2TGAyjIE5B04-11" value="&lt;font color=&quot;#ffffff&quot; style=&quot;font-size: 22px&quot;&gt;B&lt;/font&gt;" style="text;html=1;strokeColor=none;fillColor=none;align=center;verticalAlign=middle;whiteSpace=wrap;rounded=0;strokeWidth=2;" vertex="1" parent="v0qMlTzIx6Jk7zW65Q-t-1">
          <mxGeometry x="200" y="140" width="40" height="40" as="geometry" />
        </mxCell>
        <mxCell id="gCi0SzVC2TGAyjIE5B04-12" value="&lt;font color=&quot;#ffffff&quot; style=&quot;font-size: 22px&quot;&gt;C&lt;/font&gt;" style="text;html=1;strokeColor=none;fillColor=none;align=center;verticalAlign=middle;whiteSpace=wrap;rounded=0;strokeWidth=2;" vertex="1" parent="v0qMlTzIx6Jk7zW65Q-t-1">
          <mxGeometry x="240" y="180" width="40" height="40" as="geometry" />
        </mxCell>
        <mxCell id="gCi0SzVC2TGAyjIE5B04-20" style="edgeStyle=orthogonalEdgeStyle;rounded=0;orthogonalLoop=1;jettySize=auto;html=1;exitX=1;exitY=0.5;exitDx=0;exitDy=0;entryX=0;entryY=0.5;entryDx=0;entryDy=0;" edge="1" parent="v0qMlTzIx6Jk7zW65Q-t-1" source="gCi0SzVC2TGAyjIE5B04-14" target="gCi0SzVC2TGAyjIE5B04-19">
          <mxGeometry relative="1" as="geometry" />
        </mxCell>
        <mxCell id="gCi0SzVC2TGAyjIE5B04-14" value="Move to boxes A, B or C correspondingly (avoid hitting rings)" style="whiteSpace=wrap;html=1;aspect=fixed;strokeWidth=2;" vertex="1" parent="v0qMlTzIx6Jk7zW65Q-t-1">
          <mxGeometry x="407.5" y="310" width="95" height="95" as="geometry" />
        </mxCell>
        <mxCell id="gCi0SzVC2TGAyjIE5B04-18" style="edgeStyle=orthogonalEdgeStyle;rounded=0;orthogonalLoop=1;jettySize=auto;html=1;entryX=0.5;entryY=0;entryDx=0;entryDy=0;" edge="1" parent="v0qMlTzIx6Jk7zW65Q-t-1" source="gCi0SzVC2TGAyjIE5B04-15" target="gCi0SzVC2TGAyjIE5B04-14">
          <mxGeometry relative="1" as="geometry" />
        </mxCell>
        <mxCell id="gCi0SzVC2TGAyjIE5B04-15" value="Select Global Path" style="ellipse;whiteSpace=wrap;html=1;aspect=fixed;strokeWidth=2;" vertex="1" parent="v0qMlTzIx6Jk7zW65Q-t-1">
          <mxGeometry x="415" y="180" width="80" height="80" as="geometry" />
        </mxCell>
        <mxCell id="gCi0SzVC2TGAyjIE5B04-24" style="edgeStyle=orthogonalEdgeStyle;rounded=0;orthogonalLoop=1;jettySize=auto;html=1;exitX=0.5;exitY=1;exitDx=0;exitDy=0;" edge="1" parent="v0qMlTzIx6Jk7zW65Q-t-1" source="gCi0SzVC2TGAyjIE5B04-19">
          <mxGeometry relative="1" as="geometry">
            <mxPoint x="589.8333333333335" y="460" as="targetPoint" />
          </mxGeometry>
        </mxCell>
        <mxCell id="gCi0SzVC2TGAyjIE5B04-34" value="1st" style="edgeLabel;html=1;align=center;verticalAlign=middle;resizable=0;points=[];" vertex="1" connectable="0" parent="gCi0SzVC2TGAyjIE5B04-24">
          <mxGeometry x="-0.013" y="2" relative="1" as="geometry">
            <mxPoint as="offset" />
          </mxGeometry>
        </mxCell>
        <mxCell id="gCi0SzVC2TGAyjIE5B04-32" style="edgeStyle=orthogonalEdgeStyle;rounded=0;orthogonalLoop=1;jettySize=auto;html=1;exitX=1;exitY=0.5;exitDx=0;exitDy=0;" edge="1" parent="v0qMlTzIx6Jk7zW65Q-t-1" source="gCi0SzVC2TGAyjIE5B04-19" target="gCi0SzVC2TGAyjIE5B04-31">
          <mxGeometry relative="1" as="geometry" />
        </mxCell>
        <mxCell id="gCi0SzVC2TGAyjIE5B04-33" value="2nd" style="edgeLabel;html=1;align=center;verticalAlign=middle;resizable=0;points=[];" vertex="1" connectable="0" parent="gCi0SzVC2TGAyjIE5B04-32">
          <mxGeometry x="-0.52" y="1" relative="1" as="geometry">
            <mxPoint y="1" as="offset" />
          </mxGeometry>
        </mxCell>
        <mxCell id="skCdvV_W5BpAoL0RBRB2-7" style="edgeStyle=orthogonalEdgeStyle;rounded=0;orthogonalLoop=1;jettySize=auto;html=1;exitX=0;exitY=1;exitDx=0;exitDy=0;entryX=0.5;entryY=0;entryDx=0;entryDy=0;" edge="1" parent="v0qMlTzIx6Jk7zW65Q-t-1" source="gCi0SzVC2TGAyjIE5B04-19" target="skCdvV_W5BpAoL0RBRB2-8">
          <mxGeometry relative="1" as="geometry">
            <mxPoint x="520" y="410" as="targetPoint" />
          </mxGeometry>
        </mxCell>
        <mxCell id="gCi0SzVC2TGAyjIE5B04-19" value="Drop Wobble&amp;nbsp;" style="whiteSpace=wrap;html=1;aspect=fixed;strokeWidth=2;" vertex="1" parent="v0qMlTzIx6Jk7zW65Q-t-1">
          <mxGeometry x="550" y="317.5" width="80" height="80" as="geometry" />
        </mxCell>
        <mxCell id="gCi0SzVC2TGAyjIE5B04-28" style="edgeStyle=orthogonalEdgeStyle;rounded=0;orthogonalLoop=1;jettySize=auto;html=1;exitX=0;exitY=0.5;exitDx=0;exitDy=0;entryX=1;entryY=0.5;entryDx=0;entryDy=0;" edge="1" parent="v0qMlTzIx6Jk7zW65Q-t-1" source="gCi0SzVC2TGAyjIE5B04-25" target="gCi0SzVC2TGAyjIE5B04-27">
          <mxGeometry relative="1" as="geometry" />
        </mxCell>
        <mxCell id="gCi0SzVC2TGAyjIE5B04-25" value="Move back to start" style="whiteSpace=wrap;html=1;aspect=fixed;strokeWidth=2;" vertex="1" parent="v0qMlTzIx6Jk7zW65Q-t-1">
          <mxGeometry x="550" y="460" width="80" height="80" as="geometry" />
        </mxCell>
        <mxCell id="gCi0SzVC2TGAyjIE5B04-30" style="edgeStyle=orthogonalEdgeStyle;rounded=0;orthogonalLoop=1;jettySize=auto;html=1;exitX=0.5;exitY=0;exitDx=0;exitDy=0;entryX=0.5;entryY=1;entryDx=0;entryDy=0;" edge="1" parent="v0qMlTzIx6Jk7zW65Q-t-1" source="gCi0SzVC2TGAyjIE5B04-27" target="gCi0SzVC2TGAyjIE5B04-14">
          <mxGeometry relative="1" as="geometry" />
        </mxCell>
        <mxCell id="skCdvV_W5BpAoL0RBRB2-6" style="edgeStyle=orthogonalEdgeStyle;rounded=0;orthogonalLoop=1;jettySize=auto;html=1;exitX=1;exitY=0;exitDx=0;exitDy=0;entryX=0.5;entryY=1;entryDx=0;entryDy=0;" edge="1" parent="v0qMlTzIx6Jk7zW65Q-t-1" source="gCi0SzVC2TGAyjIE5B04-27" target="skCdvV_W5BpAoL0RBRB2-8">
          <mxGeometry relative="1" as="geometry">
            <mxPoint x="520" y="440" as="targetPoint" />
          </mxGeometry>
        </mxCell>
        <mxCell id="gCi0SzVC2TGAyjIE5B04-27" value="Pick up 2nd Wobble" style="whiteSpace=wrap;html=1;aspect=fixed;strokeWidth=2;" vertex="1" parent="v0qMlTzIx6Jk7zW65Q-t-1">
          <mxGeometry x="415" y="460" width="80" height="80" as="geometry" />
        </mxCell>
        <mxCell id="skCdvV_W5BpAoL0RBRB2-12" style="edgeStyle=orthogonalEdgeStyle;rounded=0;orthogonalLoop=1;jettySize=auto;html=1;exitX=0.5;exitY=1;exitDx=0;exitDy=0;entryX=0.5;entryY=0;entryDx=0;entryDy=0;" edge="1" parent="v0qMlTzIx6Jk7zW65Q-t-1" source="gCi0SzVC2TGAyjIE5B04-31" target="skCdvV_W5BpAoL0RBRB2-11">
          <mxGeometry relative="1" as="geometry" />
        </mxCell>
        <mxCell id="skCdvV_W5BpAoL0RBRB2-18" style="edgeStyle=orthogonalEdgeStyle;rounded=0;orthogonalLoop=1;jettySize=auto;html=1;exitX=1;exitY=0.5;exitDx=0;exitDy=0;entryX=0.5;entryY=0;entryDx=0;entryDy=0;" edge="1" parent="v0qMlTzIx6Jk7zW65Q-t-1" source="gCi0SzVC2TGAyjIE5B04-31" target="skCdvV_W5BpAoL0RBRB2-15">
          <mxGeometry relative="1" as="geometry" />
        </mxCell>
        <mxCell id="gCi0SzVC2TGAyjIE5B04-31" value="Warm up flywheel, move to shooting position" style="whiteSpace=wrap;html=1;aspect=fixed;strokeWidth=2;" vertex="1" parent="v0qMlTzIx6Jk7zW65Q-t-1">
          <mxGeometry x="695" y="350" width="80" height="80" as="geometry" />
        </mxCell>
        <mxCell id="skCdvV_W5BpAoL0RBRB2-3" value="&lt;font style=&quot;font-size: 5px&quot;&gt;Start&lt;/font&gt;" style="ellipse;whiteSpace=wrap;html=1;strokeWidth=1;strokeColor=#82b366;fillColor=#d5e8d4;" vertex="1" parent="v0qMlTzIx6Jk7zW65Q-t-1">
          <mxGeometry x="186" y="320" width="20" height="17.5" as="geometry" />
        </mxCell>
        <mxCell id="skCdvV_W5BpAoL0RBRB2-8" value="&lt;font style=&quot;font-size: 8px&quot;&gt;WobbleController&lt;/font&gt;" style="rounded=1;whiteSpace=wrap;html=1;strokeWidth=1;" vertex="1" parent="v0qMlTzIx6Jk7zW65Q-t-1">
          <mxGeometry x="490" y="410" width="70" height="30" as="geometry" />
        </mxCell>
        <mxCell id="skCdvV_W5BpAoL0RBRB2-16" style="edgeStyle=orthogonalEdgeStyle;rounded=0;orthogonalLoop=1;jettySize=auto;html=1;exitX=1;exitY=0.5;exitDx=0;exitDy=0;entryX=0.5;entryY=0;entryDx=0;entryDy=0;" edge="1" parent="v0qMlTzIx6Jk7zW65Q-t-1" source="skCdvV_W5BpAoL0RBRB2-11" target="skCdvV_W5BpAoL0RBRB2-15">
          <mxGeometry relative="1" as="geometry" />
        </mxCell>
        <mxCell id="skCdvV_W5BpAoL0RBRB2-21" style="edgeStyle=orthogonalEdgeStyle;rounded=0;orthogonalLoop=1;jettySize=auto;html=1;exitX=0.5;exitY=1;exitDx=0;exitDy=0;entryX=0.5;entryY=0;entryDx=0;entryDy=0;" edge="1" parent="v0qMlTzIx6Jk7zW65Q-t-1" source="skCdvV_W5BpAoL0RBRB2-11" target="skCdvV_W5BpAoL0RBRB2-19">
          <mxGeometry relative="1" as="geometry" />
        </mxCell>
        <mxCell id="skCdvV_W5BpAoL0RBRB2-35" style="edgeStyle=orthogonalEdgeStyle;rounded=0;orthogonalLoop=1;jettySize=auto;html=1;exitX=0;exitY=0.5;exitDx=0;exitDy=0;entryX=0.5;entryY=0;entryDx=0;entryDy=0;" edge="1" parent="v0qMlTzIx6Jk7zW65Q-t-1" source="skCdvV_W5BpAoL0RBRB2-11" target="skCdvV_W5BpAoL0RBRB2-36">
          <mxGeometry relative="1" as="geometry">
            <mxPoint x="640" y="560" as="targetPoint" />
          </mxGeometry>
        </mxCell>
        <mxCell id="skCdvV_W5BpAoL0RBRB2-11" value="Shoot 3 rings already held by robot" style="whiteSpace=wrap;html=1;aspect=fixed;strokeWidth=2;" vertex="1" parent="v0qMlTzIx6Jk7zW65Q-t-1">
          <mxGeometry x="695" y="460" width="80" height="80" as="geometry" />
        </mxCell>
        <mxCell id="skCdvV_W5BpAoL0RBRB2-26" style="edgeStyle=orthogonalEdgeStyle;rounded=0;orthogonalLoop=1;jettySize=auto;html=1;exitX=0;exitY=0.5;exitDx=0;exitDy=0;entryX=1;entryY=0.5;entryDx=0;entryDy=0;" edge="1" parent="v0qMlTzIx6Jk7zW65Q-t-1" source="skCdvV_W5BpAoL0RBRB2-14" target="skCdvV_W5BpAoL0RBRB2-33">
          <mxGeometry relative="1" as="geometry">
            <mxPoint x="640" y="680.1666666666667" as="targetPoint" />
          </mxGeometry>
        </mxCell>
        <mxCell id="skCdvV_W5BpAoL0RBRB2-39" style="edgeStyle=orthogonalEdgeStyle;rounded=0;orthogonalLoop=1;jettySize=auto;html=1;exitX=0.5;exitY=1;exitDx=0;exitDy=0;entryX=0.5;entryY=0;entryDx=0;entryDy=0;" edge="1" parent="v0qMlTzIx6Jk7zW65Q-t-1" source="skCdvV_W5BpAoL0RBRB2-14" target="skCdvV_W5BpAoL0RBRB2-24">
          <mxGeometry relative="1" as="geometry" />
        </mxCell>
        <mxCell id="skCdvV_W5BpAoL0RBRB2-14" value="Intake x num. of rings" style="whiteSpace=wrap;html=1;aspect=fixed;strokeWidth=2;" vertex="1" parent="v0qMlTzIx6Jk7zW65Q-t-1">
          <mxGeometry x="695" y="640" width="80" height="80" as="geometry" />
        </mxCell>
        <mxCell id="skCdvV_W5BpAoL0RBRB2-15" value="&lt;font style=&quot;font-size: 7px&quot;&gt;ShooterController&lt;/font&gt;" style="rounded=1;whiteSpace=wrap;html=1;strokeWidth=2;" vertex="1" parent="v0qMlTzIx6Jk7zW65Q-t-1">
          <mxGeometry x="780" y="490" width="60" height="20" as="geometry" />
        </mxCell>
        <mxCell id="skCdvV_W5BpAoL0RBRB2-23" style="edgeStyle=orthogonalEdgeStyle;rounded=0;orthogonalLoop=1;jettySize=auto;html=1;exitX=0.5;exitY=1;exitDx=0;exitDy=0;entryX=0.5;entryY=0;entryDx=0;entryDy=0;" edge="1" parent="v0qMlTzIx6Jk7zW65Q-t-1" source="skCdvV_W5BpAoL0RBRB2-19" target="skCdvV_W5BpAoL0RBRB2-14">
          <mxGeometry relative="1" as="geometry" />
        </mxCell>
        <mxCell id="skCdvV_W5BpAoL0RBRB2-19" value="&lt;font style=&quot;font-size: 8px&quot;&gt;? Num Rings&lt;/font&gt;" style="rhombus;whiteSpace=wrap;html=1;strokeWidth=2;" vertex="1" parent="v0qMlTzIx6Jk7zW65Q-t-1">
          <mxGeometry x="705" y="560" width="60" height="60" as="geometry" />
        </mxCell>
        <mxCell id="skCdvV_W5BpAoL0RBRB2-24" value="&lt;font style=&quot;font-size: 7px&quot;&gt;IntakeController&lt;/font&gt;" style="rounded=1;whiteSpace=wrap;html=1;strokeWidth=2;" vertex="1" parent="v0qMlTzIx6Jk7zW65Q-t-1">
          <mxGeometry x="708.75" y="760" width="52.5" height="20" as="geometry" />
        </mxCell>
        <mxCell id="skCdvV_W5BpAoL0RBRB2-32" style="edgeStyle=orthogonalEdgeStyle;rounded=0;orthogonalLoop=1;jettySize=auto;html=1;exitX=0.5;exitY=0;exitDx=0;exitDy=0;entryX=0.5;entryY=1;entryDx=0;entryDy=0;" edge="1" parent="v0qMlTzIx6Jk7zW65Q-t-1" source="skCdvV_W5BpAoL0RBRB2-27" target="skCdvV_W5BpAoL0RBRB2-30">
          <mxGeometry relative="1" as="geometry" />
        </mxCell>
        <mxCell id="skCdvV_W5BpAoL0RBRB2-42" style="edgeStyle=orthogonalEdgeStyle;rounded=0;orthogonalLoop=1;jettySize=auto;html=1;exitX=1;exitY=0;exitDx=0;exitDy=0;entryX=0;entryY=0.5;entryDx=0;entryDy=0;" edge="1" parent="v0qMlTzIx6Jk7zW65Q-t-1" source="skCdvV_W5BpAoL0RBRB2-27" target="skCdvV_W5BpAoL0RBRB2-36">
          <mxGeometry relative="1" as="geometry" />
        </mxCell>
        <mxCell id="skCdvV_W5BpAoL0RBRB2-44" style="edgeStyle=orthogonalEdgeStyle;rounded=0;orthogonalLoop=1;jettySize=auto;html=1;exitX=0.5;exitY=1;exitDx=0;exitDy=0;entryX=0.5;entryY=0;entryDx=0;entryDy=0;" edge="1" parent="v0qMlTzIx6Jk7zW65Q-t-1" source="skCdvV_W5BpAoL0RBRB2-27" target="skCdvV_W5BpAoL0RBRB2-45">
          <mxGeometry relative="1" as="geometry">
            <mxPoint x="467" y="750" as="targetPoint" />
          </mxGeometry>
        </mxCell>
        <mxCell id="skCdvV_W5BpAoL0RBRB2-27" value="Shoot x num. of rings" style="whiteSpace=wrap;html=1;aspect=fixed;strokeWidth=2;" vertex="1" parent="v0qMlTzIx6Jk7zW65Q-t-1">
          <mxGeometry x="432.5" y="645" width="70" height="70" as="geometry" />
        </mxCell>
        <mxCell id="skCdvV_W5BpAoL0RBRB2-30" value="&lt;font style=&quot;font-size: 7px&quot;&gt;ShooterController&lt;/font&gt;" style="rounded=1;whiteSpace=wrap;html=1;strokeWidth=2;" vertex="1" parent="v0qMlTzIx6Jk7zW65Q-t-1">
          <mxGeometry x="437.5" y="590" width="60" height="20" as="geometry" />
        </mxCell>
        <mxCell id="skCdvV_W5BpAoL0RBRB2-34" style="edgeStyle=orthogonalEdgeStyle;rounded=0;orthogonalLoop=1;jettySize=auto;html=1;entryX=1;entryY=0.5;entryDx=0;entryDy=0;" edge="1" parent="v0qMlTzIx6Jk7zW65Q-t-1" source="skCdvV_W5BpAoL0RBRB2-33" target="skCdvV_W5BpAoL0RBRB2-27">
          <mxGeometry relative="1" as="geometry" />
        </mxCell>
        <mxCell id="skCdvV_W5BpAoL0RBRB2-33" value="Move to shooting position" style="whiteSpace=wrap;html=1;aspect=fixed;strokeWidth=2;" vertex="1" parent="v0qMlTzIx6Jk7zW65Q-t-1">
          <mxGeometry x="570" y="642.5" width="75" height="75" as="geometry" />
        </mxCell>
        <mxCell id="skCdvV_W5BpAoL0RBRB2-37" style="edgeStyle=orthogonalEdgeStyle;rounded=0;orthogonalLoop=1;jettySize=auto;html=1;exitX=1;exitY=0;exitDx=0;exitDy=0;entryX=0.013;entryY=0.648;entryDx=0;entryDy=0;entryPerimeter=0;" edge="1" parent="v0qMlTzIx6Jk7zW65Q-t-1" source="skCdvV_W5BpAoL0RBRB2-36" target="skCdvV_W5BpAoL0RBRB2-11">
          <mxGeometry relative="1" as="geometry">
            <Array as="points">
              <mxPoint x="675" y="572" />
              <mxPoint x="675" y="512" />
            </Array>
          </mxGeometry>
        </mxCell>
        <mxCell id="skCdvV_W5BpAoL0RBRB2-43" style="edgeStyle=orthogonalEdgeStyle;rounded=0;orthogonalLoop=1;jettySize=auto;html=1;exitX=0;exitY=1;exitDx=0;exitDy=0;entryX=1;entryY=0.25;entryDx=0;entryDy=0;" edge="1" parent="v0qMlTzIx6Jk7zW65Q-t-1" source="skCdvV_W5BpAoL0RBRB2-36" target="skCdvV_W5BpAoL0RBRB2-27">
          <mxGeometry relative="1" as="geometry" />
        </mxCell>
        <mxCell id="skCdvV_W5BpAoL0RBRB2-36" value="&lt;font style=&quot;font-size: 8px&quot;&gt;Powershot/Goal?&lt;/font&gt;" style="rhombus;whiteSpace=wrap;html=1;strokeWidth=2;" vertex="1" parent="v0qMlTzIx6Jk7zW65Q-t-1">
          <mxGeometry x="610" y="555" width="70" height="70" as="geometry" />
        </mxCell>
        <mxCell id="skCdvV_W5BpAoL0RBRB2-50" style="edgeStyle=orthogonalEdgeStyle;rounded=0;orthogonalLoop=1;jettySize=auto;html=1;exitX=1;exitY=0.5;exitDx=0;exitDy=0;entryX=0;entryY=0.5;entryDx=0;entryDy=0;" edge="1" parent="v0qMlTzIx6Jk7zW65Q-t-1" source="skCdvV_W5BpAoL0RBRB2-45" target="skCdvV_W5BpAoL0RBRB2-48">
          <mxGeometry relative="1" as="geometry" />
        </mxCell>
        <mxCell id="skCdvV_W5BpAoL0RBRB2-45" value="Move to white launch line" style="whiteSpace=wrap;html=1;aspect=fixed;strokeWidth=2;" vertex="1" parent="v0qMlTzIx6Jk7zW65Q-t-1">
          <mxGeometry x="430" y="752" width="78" height="78" as="geometry" />
        </mxCell>
        <mxCell id="skCdvV_W5BpAoL0RBRB2-46" value="&lt;b&gt;30 Seconds Max&lt;/b&gt;" style="text;html=1;strokeColor=none;fillColor=none;align=center;verticalAlign=middle;whiteSpace=wrap;rounded=0;" vertex="1" parent="v0qMlTzIx6Jk7zW65Q-t-1">
          <mxGeometry x="90" y="40" width="130" height="20" as="geometry" />
        </mxCell>
        <mxCell id="skCdvV_W5BpAoL0RBRB2-48" value="Done" style="ellipse;whiteSpace=wrap;html=1;aspect=fixed;strokeWidth=2;" vertex="1" parent="v0qMlTzIx6Jk7zW65Q-t-1">
          <mxGeometry x="577.5" y="761" width="60" height="60" as="geometry" />
        </mxCell>
      </root>
    </mxGraphModel>
  </diagram>
</mxfile>
